<?xml version="1.0" encoding="UTF-8" standalone="no"?>
<!-- Created with Inkscape (http://www.inkscape.org/) -->

<svg
   width="7mm"
   height="8.7463675mm"
   viewBox="0 0 7 8.7463675"
   version="1.1"
   id="svg8"
   inkscape:version="1.1.2 (0a00cf5339, 2022-02-04)"
   sodipodi:docname="B.svg"
   xmlns:inkscape="http://www.inkscape.org/namespaces/inkscape"
   xmlns:sodipodi="http://sodipodi.sourceforge.net/DTD/sodipodi-0.dtd"
   xmlns="http://www.w3.org/2000/svg"
   xmlns:svg="http://www.w3.org/2000/svg"
   xmlns:rdf="http://www.w3.org/1999/02/22-rdf-syntax-ns#"
   xmlns:cc="http://creativecommons.org/ns#"
   xmlns:dc="http://purl.org/dc/elements/1.1/">
  <defs
     id="defs2" />
  <sodipodi:namedview
     id="base"
     pagecolor="#ffffff"
     bordercolor="#666666"
     borderopacity="1.0"
     inkscape:pageopacity="0.0"
     inkscape:pageshadow="2"
     inkscape:zoom="15.839192"
     inkscape:cx="21.118501"
     inkscape:cy="17.709237"
     inkscape:document-units="mm"
     inkscape:current-layer="layer1"
     showgrid="false"
     inkscape:window-width="1842"
     inkscape:window-height="1128"
     inkscape:window-x="2636"
     inkscape:window-y="0"
     inkscape:window-maximized="0"
     inkscape:pagecheckerboard="0"
     fit-margin-top="0"
     fit-margin-left="0"
     fit-margin-right="0"
     fit-margin-bottom="0" />
  <metadata
     id="metadata5">
    <rdf:RDF>
      <cc:Work
         rdf:about="">
        <dc:format>image/svg+xml</dc:format>
        <dc:type
           rdf:resource="http://purl.org/dc/dcmitype/StillImage" />
      </cc:Work>
    </rdf:RDF>
  </metadata>
  <g
     inkscape:label="Ebene 1"
     inkscape:groupmode="layer"
     id="layer1"
     transform="translate(0,-287.0108)">
    <rect
       style="fill:#501616;stroke-width:0.230508"
       id="rect3688"
       width="7"
       height="8.7463675"
       x="-8.6618073e-09"
       y="287.0108" />
    <text
       xml:space="preserve"
       style="font-style:normal;font-weight:normal;font-size:10.5833px;line-height:6.61458px;font-family:sans-serif;letter-spacing:0px;word-spacing:0px;fill:#ff2a2a;fill-opacity:1;stroke:none;stroke-width:0.264583"
       x="0.91873902"
       y="291.28711"
       id="text3692" />
    <g
       aria-label="B"
       style="font-style:normal;font-variant:normal;font-weight:bold;font-stretch:normal;font-size:8.46667px;line-height:6.61458px;font-family:'Gotham Rounded';-inkscape-font-specification:'Gotham Rounded Bold';letter-spacing:0px;word-spacing:0px;fill:#ff5555;fill-opacity:1;stroke:none;stroke-width:0.264583"
       id="text24"
       transform="matrix(0.89327074,0,0,0.96007667,-0.16337297,11.098264)">
      <path
         d="m 1.6800521,294.42708 c 0,0.36406 0.2878667,0.65193 0.6519333,0.65193 H 4.499452 c 1.3377332,0 2.2182665,-0.54187 2.2182665,-1.6256 v -0.0169 c 0,-0.7874 -0.4233333,-1.1938 -1.1091332,-1.45627 0.4233333,-0.22013 0.7789332,-0.61807 0.7789332,-1.27847 v -0.0169 c 0,-0.39793 -0.1354666,-0.7366 -0.4063999,-1.00753 -0.3471333,-0.34714 -0.8636,-0.52494 -1.5494,-0.52494 H 2.3319854 c -0.3640666,0 -0.6519333,0.28787 -0.6519333,0.65194 z m 1.27,-2.87867 v -1.25307 h 1.2869332 c 0.5503333,0 0.8551333,0.21167 0.8551333,0.6096 v 0.0169 c 0,0.44026 -0.3640666,0.62653 -0.9397999,0.62653 z m 0,2.3876 v -1.30387 h 1.5070665 c 0.6773333,0 0.9652,0.24554 0.9652,0.64347 v 0.0169 c 0,0.44027 -0.3471333,0.64347 -0.9228666,0.64347 z"
         style="font-style:normal;font-variant:normal;font-weight:bold;font-stretch:normal;font-family:'Gotham Rounded';-inkscape-font-specification:'Gotham Rounded Bold';fill:#ff5555;stroke-width:0.264583"
         id="path43" />
    </g>
  </g>
</svg>
