<?xml version="1.0" encoding="UTF-8" standalone="no"?>
<!-- Created with Inkscape (http://www.inkscape.org/) -->

<svg
   width="10.16mm"
   height="128.5mm"
   viewBox="0 0 10.160001 128.50002"
   version="1.1"
   id="svg8"
   inkscape:version="1.1.2 (0a00cf5339, 2022-02-04)"
   sodipodi:docname="ChainMixerChannel-dark.svg"
   xmlns:inkscape="http://www.inkscape.org/namespaces/inkscape"
   xmlns:sodipodi="http://sodipodi.sourceforge.net/DTD/sodipodi-0.dtd"
   xmlns="http://www.w3.org/2000/svg"
   xmlns:svg="http://www.w3.org/2000/svg"
   xmlns:rdf="http://www.w3.org/1999/02/22-rdf-syntax-ns#"
   xmlns:cc="http://creativecommons.org/ns#"
   xmlns:dc="http://purl.org/dc/elements/1.1/">
  <defs
     id="defs2" />
  <sodipodi:namedview
     id="base"
     pagecolor="#ffffff"
     bordercolor="#666666"
     borderopacity="1.0"
     inkscape:pageopacity="0.0"
     inkscape:pageshadow="2"
     inkscape:zoom="1.4"
     inkscape:cx="235.35714"
     inkscape:cy="188.21429"
     inkscape:document-units="mm"
     inkscape:current-layer="layer1"
     showgrid="false"
     units="mm"
     inkscape:snap-bbox="true"
     inkscape:snap-page="true"
     inkscape:bbox-nodes="false"
     inkscape:snap-bbox-edge-midpoints="false"
     inkscape:window-width="1842"
     inkscape:window-height="1128"
     inkscape:window-x="2636"
     inkscape:window-y="0"
     inkscape:window-maximized="0"
     inkscape:snap-bbox-midpoints="true"
     inkscape:snap-nodes="false"
     inkscape:pagecheckerboard="0"
     width="20.32mm" />
  <metadata
     id="metadata5">
    <rdf:RDF>
      <cc:Work
         rdf:about="">
        <dc:format>image/svg+xml</dc:format>
        <dc:type
           rdf:resource="http://purl.org/dc/dcmitype/StillImage" />
      </cc:Work>
    </rdf:RDF>
  </metadata>
  <g
     inkscape:label="Layer 1"
     inkscape:groupmode="layer"
     id="layer1"
     transform="translate(0,-168.49998)">
    <rect
       style="display:inline;opacity:1;vector-effect:none;fill:#2c2c24;fill-opacity:1;fill-rule:evenodd;stroke:none;stroke-width:0.375315;stroke-linecap:butt;stroke-linejoin:miter;stroke-miterlimit:4;stroke-dasharray:none;stroke-dashoffset:0;stroke-opacity:1;paint-order:normal"
       id="rect420"
       width="10.16"
       height="128.77928"
       x="5.9211732e-17"
       y="168.29755"
       sodipodi:insensitive="true" />
    <rect
       style="fill:#50504e;fill-opacity:1;stroke-width:0"
       id="rect206661"
       width="9.3199997"
       height="18"
       x="0.5"
       y="269.49997"
       ry="1.4264066" />
    <g
       aria-label="G"
       id="text43491"
       style="font-size:4.99999px;line-height:1.25;font-family:Dyuthi;-inkscape-font-specification:Dyuthi;stroke-width:0.264583" />
    <g
       aria-label="P"
       id="text41381"
       style="font-weight:bold;font-size:12.2835px;line-height:1.25;font-family:'Gotham Rounded';-inkscape-font-specification:'Gotham Rounded Bold';letter-spacing:-0.07px;fill:#999999;fill-opacity:1"
       transform="matrix(0.33379305,0,0,0.33379305,-20.170449,172.06849)">
      <path
         id="path44464"
         d="m 75.468978,363.37891 c 0,0.52819 0.417639,0.94583 0.94583,0.94583 0.52819,0 0.945829,-0.41764 0.945829,-0.94583 v -1.70741 h 1.43717 c 1.928509,0 3.47623,-1.01953 3.47623,-3.02174 v -0.0246 c 0,-1.76882 -1.240633,-2.9726 -3.291978,-2.9726 h -2.567251 c -0.528191,0 -0.94583,0.41764 -0.94583,0.94583 z m 1.891659,-3.39025 v -2.62867 h 1.461737 c 0.945829,0 1.535437,0.45449 1.535437,1.30206 v 0.0246 c 0,0.73701 -0.552757,1.30205 -1.498587,1.30205 z m -3.820309,0.71391 c 1.289767,0 2.309298,-0.42992 3.009457,-0.85985 0.442206,-0.25795 0.663309,-0.6633 0.663309,-1.20378 v -2.08819 c 0,-0.52819 -0.417639,-0.94583 -0.945829,-0.94583 h -2.161896 c -0.454489,0 -0.822994,0.3685 -0.822994,0.82299 0,0.45449 0.368505,0.81071 0.822994,0.81071 h 1.277484 v 1.22835 c -0.479057,0.34394 -1.080948,0.51591 -1.781107,0.51591 -1.523154,0 -2.604102,-1.15465 -2.604102,-2.72694 v -0.0246 c 0,-1.46173 1.093231,-2.6778 2.468983,-2.6778 0.822994,0 1.351185,0.20882 1.879375,0.58961 0.135119,0.0983 0.294804,0.19653 0.577325,0.19653 0.52819,0 0.933546,-0.40535 0.933546,-0.93354 0,-0.38079 -0.20882,-0.62646 -0.393072,-0.76158 -0.786144,-0.54047 -1.621422,-0.83528 -2.935756,-0.83528 -2.604102,0 -4.508045,2.00221 -4.508045,4.44663 v 0.0246 c 0,2.55497 1.842525,4.42206 4.520328,4.42206 z"
         style="fill:#999999;fill-opacity:1" />
    </g>
    <text
       xml:space="preserve"
       style="font-weight:bold;font-size:3.25px;line-height:1.25;font-family:'Gotham Rounded';-inkscape-font-specification:'Gotham Rounded Bold';letter-spacing:-0.0185208px;stroke-width:0.264583"
       x="3.2487013"
       y="181.03354"
       id="text6161" />
    <text
       xml:space="preserve"
       style="font-weight:bold;font-size:3.25px;line-height:1.25;font-family:'Gotham Rounded';-inkscape-font-specification:'Gotham Rounded Bold';letter-spacing:-0.0185208px;stroke-width:0.264583"
       x="2.0502055"
       y="181.1342"
       id="text10873" />
    <rect
       style="fill:#000000;fill-opacity:1;stroke-width:0;stroke-miterlimit:4;stroke-dasharray:none"
       id="rect23866"
       width="2"
       height="2.3494666"
       x="4.0799999"
       y="183.47452" />
  </g>
  <g
     inkscape:groupmode="layer"
     id="layer2"
     inkscape:label="components">
    <text
       xml:space="preserve"
       style="font-size:4.99999px;line-height:1.25;font-family:aakar;-inkscape-font-specification:aakar;stroke-width:0.264583"
       x="13.060203"
       y="45.750874"
       id="text125184" />
    <text
       xml:space="preserve"
       style="font-size:3.49999px;line-height:1.25;font-family:'DejaVu Sans Mono';-inkscape-font-specification:'DejaVu Sans Mono';letter-spacing:0px;stroke-width:0.264583"
       x="12.645776"
       y="52.328892"
       id="text133092" />
    <text
       xml:space="preserve"
       style="font-size:3.49999px;line-height:1.25;font-family:'DejaVu Sans Mono';-inkscape-font-specification:'DejaVu Sans Mono';stroke-width:0.264583"
       x="12.692331"
       y="48.073616"
       id="text139696" />
  </g>
</svg>
