<?xml version="1.0" encoding="UTF-8" standalone="no"?>
<!-- Created with Inkscape (http://www.inkscape.org/) -->

<svg
   width="20.32mm"
   height="128.5mm"
   viewBox="0 0 20.320001 128.50002"
   version="1.1"
   id="svg8"
   inkscape:version="1.1.2 (0a00cf5339, 2022-02-04)"
   sodipodi:docname="ChainMixerMaster-dark.svg"
   xmlns:inkscape="http://www.inkscape.org/namespaces/inkscape"
   xmlns:sodipodi="http://sodipodi.sourceforge.net/DTD/sodipodi-0.dtd"
   xmlns="http://www.w3.org/2000/svg"
   xmlns:svg="http://www.w3.org/2000/svg"
   xmlns:rdf="http://www.w3.org/1999/02/22-rdf-syntax-ns#"
   xmlns:cc="http://creativecommons.org/ns#"
   xmlns:dc="http://purl.org/dc/elements/1.1/">
  <defs
     id="defs2">
    <rect
       x="18.951939"
       y="128.22154"
       width="2.9603795"
       height="26.149619"
       id="rect139664" />
    <rect
       x="30.793283"
       y="166.70589"
       width="10.854667"
       height="18.255398"
       id="rect64003" />
  </defs>
  <sodipodi:namedview
     id="base"
     pagecolor="#ffffff"
     bordercolor="#666666"
     borderopacity="1.0"
     inkscape:pageopacity="0.0"
     inkscape:pageshadow="2"
     inkscape:zoom="1"
     inkscape:cx="159.5"
     inkscape:cy="245.5"
     inkscape:document-units="mm"
     inkscape:current-layer="layer1"
     showgrid="false"
     units="mm"
     inkscape:snap-bbox="true"
     inkscape:snap-page="true"
     inkscape:bbox-nodes="false"
     inkscape:snap-bbox-edge-midpoints="false"
     inkscape:window-width="1842"
     inkscape:window-height="1128"
     inkscape:window-x="2636"
     inkscape:window-y="0"
     inkscape:window-maximized="0"
     inkscape:snap-bbox-midpoints="true"
     inkscape:snap-nodes="false"
     inkscape:pagecheckerboard="0"
     width="15.24mm" />
  <metadata
     id="metadata5">
    <rdf:RDF>
      <cc:Work
         rdf:about="">
        <dc:format>image/svg+xml</dc:format>
        <dc:type
           rdf:resource="http://purl.org/dc/dcmitype/StillImage" />
      </cc:Work>
    </rdf:RDF>
  </metadata>
  <g
     inkscape:label="Layer 1"
     inkscape:groupmode="layer"
     id="layer1"
     transform="translate(0,-168.49998)">
    <rect
       style="display:inline;opacity:1;vector-effect:none;fill:#2c2c24;fill-opacity:1;fill-rule:evenodd;stroke:none;stroke-width:0.530199;stroke-linecap:butt;stroke-linejoin:miter;stroke-miterlimit:4;stroke-dasharray:none;stroke-dashoffset:0;stroke-opacity:1;paint-order:normal"
       id="rect420"
       width="20.32"
       height="128.5"
       x="5.9211732e-17"
       y="168.49998"
       sodipodi:insensitive="true" />
    <rect
       style="fill:#848483;fill-opacity:1;stroke-width:0"
       id="rect206661"
       width="9.3199997"
       height="18"
       x="9"
       y="269.49997"
       ry="1.4264066" />
    <g
       aria-label="P"
       id="text41381"
       style="font-weight:bold;font-size:12.2835px;line-height:1.25;font-family:'Gotham Rounded';-inkscape-font-specification:'Gotham Rounded Bold';letter-spacing:-0.07px;fill:#999999;fill-opacity:1"
       transform="matrix(0.33379305,0,0,0.33379305,-15.090396,172.06849)">
      <path
         id="path44464"
         d="m 75.468978,363.37891 c 0,0.52819 0.417639,0.94583 0.94583,0.94583 0.52819,0 0.945829,-0.41764 0.945829,-0.94583 v -1.70741 h 1.43717 c 1.928509,0 3.47623,-1.01953 3.47623,-3.02174 v -0.0246 c 0,-1.76882 -1.240633,-2.9726 -3.291978,-2.9726 h -2.567251 c -0.528191,0 -0.94583,0.41764 -0.94583,0.94583 z m 1.891659,-3.39025 v -2.62867 h 1.461737 c 0.945829,0 1.535437,0.45449 1.535437,1.30206 v 0.0246 c 0,0.73701 -0.552757,1.30205 -1.498587,1.30205 z m -3.820309,0.71391 c 1.289767,0 2.309298,-0.42992 3.009457,-0.85985 0.442206,-0.25795 0.663309,-0.6633 0.663309,-1.20378 v -2.08819 c 0,-0.52819 -0.417639,-0.94583 -0.945829,-0.94583 h -2.161896 c -0.454489,0 -0.822994,0.3685 -0.822994,0.82299 0,0.45449 0.368505,0.81071 0.822994,0.81071 h 1.277484 v 1.22835 c -0.479057,0.34394 -1.080948,0.51591 -1.781107,0.51591 -1.523154,0 -2.604102,-1.15465 -2.604102,-2.72694 v -0.0246 c 0,-1.46173 1.093231,-2.6778 2.468983,-2.6778 0.822994,0 1.351185,0.20882 1.879375,0.58961 0.135119,0.0983 0.294804,0.19653 0.577325,0.19653 0.52819,0 0.933546,-0.40535 0.933546,-0.93354 0,-0.38079 -0.20882,-0.62646 -0.393072,-0.76158 -0.786144,-0.54047 -1.621422,-0.83528 -2.935756,-0.83528 -2.604102,0 -4.508045,2.00221 -4.508045,4.44663 v 0.0246 c 0,2.55497 1.842525,4.42206 4.520328,4.42206 z"
         style="fill:#999999;fill-opacity:1" />
    </g>
    <g
       aria-label="MUTE"
       id="text204240"
       style="font-size:2.5px;line-height:1.25;font-family:'Gotham Rounded';-inkscape-font-specification:'Gotham Rounded';letter-spacing:-0.0185208px;fill:#f2f2f2;fill-opacity:1;stroke-width:0.264583"
       transform="translate(0,2.7)">
      <path
         d="m 1.621,263.08248 c 0,0.0575 0.0425,0.0975 0.095,0.0975 0.0575,0 0.0975,-0.04 0.0975,-0.0975 v -1.305 l 0.5575,0.82 c 0.0225,0.0325 0.0525,0.05 0.085,0.05 0.0325,0 0.06,-0.0175 0.0825,-0.05 l 0.56,-0.8225 v 1.305 c 0,0.0525 0.0425,0.1 0.1,0.1 0.0525,0 0.0975,-0.0425 0.0975,-0.1 v -1.5725 c 0,-0.0525 -0.045,-0.0975 -0.0975,-0.0975 H 3.176 c -0.04,0 -0.07,0.0175 -0.0925,0.0525 l -0.625,0.94 -0.625,-0.94 c -0.02,-0.03 -0.05,-0.0525 -0.0925,-0.0525 H 1.7185 c -0.0525,0 -0.0975,0.045 -0.0975,0.0975 z"
         id="path206518"
         style="fill:#f2f2f2;fill-opacity:1" />
      <path
         d="m 4.4724745,263.19498 c 0.4375,0 0.73,-0.2625 0.73,-0.775 v -0.915 c 0,-0.0575 -0.045,-0.1 -0.0975,-0.1 -0.0575,0 -0.1,0.0425 -0.1,0.1 v 0.93 c 0,0.3825 -0.205,0.5775 -0.5275,0.5775 -0.3325,0 -0.535,-0.21 -0.535,-0.59 v -0.9175 c 0,-0.0575 -0.0425,-0.1 -0.1,-0.1 -0.0525,0 -0.0975,0.0425 -0.0975,0.1 v 0.93 c 0,0.495 0.295,0.76 0.7275,0.76 z"
         id="path206520"
         style="fill:#f2f2f2;fill-opacity:1" />
      <path
         d="m 6.1139508,263.07998 c 0,0.0575 0.0425,0.1 0.1,0.1 0.0575,0 0.1,-0.0425 0.1,-0.1 v -1.48 h 0.5075 c 0.05,0 0.0925,-0.04 0.0925,-0.09 0,-0.05 -0.0425,-0.0925 -0.0925,-0.0925 h -1.215 c -0.05,0 -0.0925,0.0425 -0.0925,0.0925 0,0.05 0.0425,0.09 0.0925,0.09 h 0.5075 z"
         id="path206522"
         style="fill:#f2f2f2;fill-opacity:1" />
      <path
         d="m 8.450427,263.16748 c 0.05,0 0.09,-0.04 0.09,-0.09 0,-0.05 -0.04,-0.09 -0.09,-0.09 h -1 v -0.6125 h 0.875 c 0.05,0 0.09,-0.04 0.09,-0.09 0,-0.0475 -0.04,-0.09 -0.09,-0.09 h -0.875 v -0.5975 h 0.9875 c 0.05,0 0.09,-0.04 0.09,-0.09 0,-0.05 -0.04,-0.09 -0.09,-0.09 h -1.0875 c -0.0525,0 -0.0975,0.0425 -0.0975,0.1 v 1.55 c 0,0.0575 0.045,0.1 0.0975,0.1 z"
         id="path206524"
         style="fill:#f2f2f2;fill-opacity:1" />
    </g>
    <g
       aria-label="SOLO"
       id="text202124"
       style="font-size:2.5px;line-height:1.25;font-family:'Gotham Rounded';-inkscape-font-specification:'Gotham Rounded';letter-spacing:-0.0185208px;fill:#f2f2f2;fill-opacity:1;stroke-width:0.264583"
       transform="translate(0,2.01001)">
      <path
         d="m 2.318,255.88997 c 0.3475,0 0.5975,-0.195 0.5975,-0.495 v -0.005 c 0,-0.2675 -0.18,-0.4075 -0.57,-0.495 -0.3875,-0.08 -0.475,-0.175 -0.475,-0.34 v -0.005 c 0,-0.16 0.1425,-0.2825 0.3725,-0.2825 0.1625,0 0.3025,0.045 0.4525,0.1525 0.0175,0.0125 0.035,0.0175 0.0575,0.0175 0.0525,0 0.095,-0.0425 0.095,-0.095 0,-0.0375 -0.0225,-0.0625 -0.0425,-0.08 -0.16,-0.1175 -0.3275,-0.1725 -0.5575,-0.1725 -0.3325,0 -0.575,0.205 -0.575,0.4775 v 0.005 c 0,0.2875 0.185,0.4175 0.5875,0.505 0.3675,0.08 0.455,0.17 0.455,0.3325 v 0.005 c 0,0.1725 -0.1525,0.2975 -0.39,0.2975 -0.2225,0 -0.385,-0.0675 -0.5525,-0.2075 -0.015,-0.015 -0.035,-0.0225 -0.06,-0.0225 -0.0525,0 -0.095,0.04 -0.095,0.0975 0,0.0325 0.0125,0.0575 0.0375,0.075 0.1975,0.1575 0.405,0.235 0.6625,0.235 z"
         id="path206491"
         style="fill:#f2f2f2;fill-opacity:1" />
      <path
         d="m 4.1119776,255.89497 c 0.5325,0 0.895,-0.4225 0.895,-0.905 v -0.005 c 0,-0.4825 -0.3575,-0.9 -0.89,-0.9 -0.5325,0 -0.895,0.4225 -0.895,0.905 v 0.005 c 0,0.4825 0.3575,0.9 0.89,0.9 z m 0.005,-0.1825 c -0.4,0 -0.69,-0.325 -0.69,-0.7225 v -0.005 c 0,-0.3975 0.285,-0.7175 0.685,-0.7175 0.4,0 0.69,0.325 0.69,0.7225 v 0.005 c 0,0.3975 -0.285,0.7175 -0.685,0.7175 z"
         id="path206493"
         style="fill:#f2f2f2;fill-opacity:1" />
      <path
         d="m 5.405953,255.76497 c 0,0.0575 0.045,0.1 0.0975,0.1 h 1.0075 c 0.05,0 0.09,-0.04 0.09,-0.09 0,-0.05 -0.04,-0.0925 -0.09,-0.0925 h -0.9075 v -1.48 c 0,-0.0575 -0.0425,-0.1 -0.1,-0.1 -0.0525,0 -0.0975,0.0425 -0.0975,0.1 z"
         id="path206495"
         style="fill:#f2f2f2;fill-opacity:1" />
      <path
         d="m 7.6474286,255.89497 c 0.5325,0 0.895,-0.4225 0.895,-0.905 v -0.005 c 0,-0.4825 -0.3575,-0.9 -0.89,-0.9 -0.5325,0 -0.895,0.4225 -0.895,0.905 v 0.005 c 0,0.4825 0.3575,0.9 0.89,0.9 z m 0.005,-0.1825 c -0.4,0 -0.69,-0.325 -0.69,-0.7225 v -0.005 c 0,-0.3975 0.285,-0.7175 0.685,-0.7175 0.4,0 0.69,0.325 0.69,0.7225 v 0.005 c 0,0.3975 -0.285,0.7175 -0.685,0.7175 z"
         id="path206497"
         style="fill:#f2f2f2;fill-opacity:1" />
    </g>
    <g
       aria-label="BAL"
       id="text190672"
       style="font-size:2.5px;line-height:1.25;font-family:'Gotham Rounded';-inkscape-font-specification:'Gotham Rounded';letter-spacing:-0.0185208px;fill:#f2f2f2;fill-opacity:1;stroke-width:0.264583"
       transform="translate(0,-1.50001)">
      <path
         d="m 2.619,205.66099 c 0,0.0575 0.045,0.1 0.0975,0.1 h 0.68 c 0.3825,0 0.635,-0.1775 0.635,-0.4775 v -0.005 c 0,-0.2375 -0.1675,-0.3625 -0.375,-0.4225 0.1375,-0.06 0.2775,-0.1775 0.2775,-0.405 v -0.005 c 0,-0.1075 -0.0375,-0.2025 -0.1125,-0.28 -0.1,-0.0975 -0.2575,-0.155 -0.4575,-0.155 H 2.7165 c -0.0525,0 -0.0975,0.0425 -0.0975,0.1 z m 0.195,-0.87 v -0.6025 h 0.5325 c 0.25,0 0.3875,0.1125 0.3875,0.285 v 0.005 c 0,0.2075 -0.1625,0.3125 -0.4025,0.3125 z m 0,0.7925 v -0.6175 h 0.5525 c 0.3075,0 0.465,0.11 0.465,0.3 v 0.005 c 0,0.1975 -0.1625,0.3125 -0.43,0.3125 z"
         id="path194897"
         style="fill:#f2f2f2;fill-opacity:1" />
      <path
         d="m 4.2854747,205.68349 c 0,0.05 0.04,0.09 0.09,0.09 0.045,0 0.0775,-0.0225 0.095,-0.0675 l 0.1825,-0.4075 h 0.96 l 0.1825,0.4025 c 0.0175,0.04 0.05,0.0725 0.0975,0.0725 0.0525,0 0.095,-0.0425 0.095,-0.095 0,-0.0125 -0.005,-0.03 -0.0125,-0.05 l -0.71,-1.55 c -0.0225,-0.0575 -0.065,-0.0875 -0.1225,-0.0875 h -0.01 c -0.0625,0 -0.0975,0.03 -0.125,0.0875 l -0.71,1.5525 c -0.0075,0.0175 -0.0125,0.035 -0.0125,0.0525 z m 0.445,-0.565 0.4025,-0.895 0.4025,0.895 z"
         id="path194899"
         style="fill:#f2f2f2;fill-opacity:1" />
      <path
         d="m 6.3469501,205.66099 c 0,0.0575 0.045,0.1 0.0975,0.1 h 1.0075 c 0.05,0 0.09,-0.04 0.09,-0.09 0,-0.05 -0.04,-0.0925 -0.09,-0.0925 h -0.9075 v -1.48 c 0,-0.0575 -0.0425,-0.1 -0.1,-0.1 -0.0525,0 -0.0975,0.0425 -0.0975,0.1 z"
         id="path194901"
         style="fill:#f2f2f2;fill-opacity:1" />
    </g>
    <g
       aria-label="PAN"
       id="text189744"
       style="font-size:2.5px;line-height:1.25;font-family:'Gotham Rounded';-inkscape-font-specification:'Gotham Rounded';letter-spacing:-0.0185208px;fill:#f2f2f2;fill-opacity:1;stroke-width:0.264583"
       transform="translate(0,-1.5)">
      <path
         d="m 2.6250001,203.19148 c 0,0.0575 0.045,0.1 0.0975,0.1 0.0575,0 0.1,-0.0425 0.1,-0.1 v -0.53 h 0.425 c 0.3725,0 0.6875,-0.195 0.6875,-0.5725 v -0.005 c 0,-0.345 -0.26,-0.555 -0.655,-0.555 h -0.5575 c -0.0525,0 -0.0975,0.0425 -0.0975,0.1 z m 0.1975,-0.71 v -0.77 h 0.4425 c 0.2825,0 0.47,0.13 0.47,0.38 v 0.005 c 0,0.23 -0.19,0.385 -0.48,0.385 z"
         id="path194872"
         style="fill:#f2f2f2;fill-opacity:1" />
      <path
         d="m 3.9939761,203.20148 c 0,0.05 0.04,0.09 0.09,0.09 0.045,0 0.0775,-0.0225 0.095,-0.0675 l 0.1825,-0.4075 h 0.96 l 0.1825,0.4025 c 0.0175,0.04 0.05,0.0725 0.0975,0.0725 0.0525,0 0.095,-0.0425 0.095,-0.095 0,-0.0125 -0.005,-0.03 -0.0125,-0.05 l -0.71,-1.55 c -0.0225,-0.0575 -0.065,-0.0875 -0.1225,-0.0875 h -0.01 c -0.0625,0 -0.0975,0.03 -0.125,0.0875 l -0.71,1.5525 c -0.0075,0.0175 -0.0125,0.035 -0.0125,0.0525 z m 0.445,-0.565 0.4025,-0.895 0.4025,0.895 z"
         id="path194874"
         style="fill:#f2f2f2;fill-opacity:1" />
      <path
         d="m 6.0554515,203.19398 c 0,0.0525 0.0425,0.0975 0.095,0.0975 0.0575,0 0.0975,-0.045 0.0975,-0.0975 v -1.355 l 1.085,1.3875 c 0.03,0.0375 0.06,0.06 0.1025,0.06 h 0.01 c 0.0525,0 0.09,-0.04 0.09,-0.0925 v -1.58 c 0,-0.0525 -0.0425,-0.0975 -0.095,-0.0975 -0.0575,0 -0.0975,0.045 -0.0975,0.0975 v 1.32 l -1.0625,-1.355 c -0.0275,-0.0375 -0.0525,-0.0575 -0.1,-0.0575 h -0.0275 c -0.0525,0 -0.0975,0.045 -0.0975,0.0975 z"
         id="path194876"
         style="fill:#f2f2f2;fill-opacity:1" />
    </g>
    <g
       aria-label="AUX2"
       id="text197441"
       style="font-size:2.5px;line-height:1.25;font-family:'Gotham Rounded';-inkscape-font-specification:'Gotham Rounded';letter-spacing:-0.0185208px;fill:#f2f2f2;fill-opacity:1;stroke-width:0.264583"
       transform="translate(-1.139484,-1.49974)">
      <path
         d="m 2.845484,195.38722 c 0,0.05 0.04,0.09 0.09,0.09 0.045,0 0.0775,-0.0225 0.095,-0.0675 l 0.1825,-0.4075 h 0.96 l 0.1825,0.4025 c 0.0175,0.04 0.05,0.0725 0.0975,0.0725 0.0525,0 0.095,-0.0425 0.095,-0.095 0,-0.0125 -0.005,-0.03 -0.0125,-0.05 l -0.71,-1.55 c -0.0225,-0.0575 -0.065,-0.0875 -0.1225,-0.0875 h -0.01 c -0.0625,0 -0.0975,0.03 -0.125,0.0875 l -0.71,1.5525 c -0.0075,0.0175 -0.0125,0.035 -0.0125,0.0525 z m 0.445,-0.565 0.4025,-0.895 0.4025,0.895 z"
         id="path199061"
         style="fill:#f2f2f2;fill-opacity:1" />
      <path
         d="m 5.5519562,195.49222 c 0.4375,0 0.73,-0.2625 0.73,-0.775 v -0.915 c 0,-0.0575 -0.045,-0.1 -0.0975,-0.1 -0.0575,0 -0.1,0.0425 -0.1,0.1 v 0.93 c 0,0.3825 -0.205,0.5775 -0.5275,0.5775 -0.3325,0 -0.535,-0.21 -0.535,-0.59 v -0.9175 c 0,-0.0575 -0.0425,-0.1 -0.1,-0.1 -0.0525,0 -0.0975,0.0425 -0.0975,0.1 v 0.93 c 0,0.495 0.295,0.76 0.7275,0.76 z"
         id="path199063"
         style="fill:#f2f2f2;fill-opacity:1" />
      <path
         d="m 6.6259306,195.38472 c 0,0.0525 0.04,0.0925 0.0875,0.0925 0.0475,0 0.07,-0.025 0.0975,-0.0575 l 0.545,-0.71 0.5525,0.7175 c 0.0275,0.03 0.0475,0.05 0.0875,0.05 0.0575,0 0.0975,-0.045 0.0975,-0.0975 0,-0.0225 -0.01,-0.0475 -0.0325,-0.0725 l -0.5775,-0.7375 0.5575,-0.705 c 0.0175,-0.0225 0.0275,-0.045 0.0275,-0.07 0,-0.0525 -0.0425,-0.0925 -0.09,-0.0925 -0.0425,0 -0.0675,0.025 -0.095,0.0575 l -0.52,0.6775 -0.5275,-0.685 c -0.0275,-0.03 -0.0475,-0.05 -0.0875,-0.05 -0.0575,0 -0.0975,0.045 -0.0975,0.095 0,0.03 0.015,0.0525 0.0325,0.075 l 0.555,0.7 -0.585,0.7425 c -0.0175,0.0225 -0.0275,0.045 -0.0275,0.07 z"
         id="path199065"
         style="fill:#f2f2f2;fill-opacity:1" />
      <path
         d="m 8.3499094,195.37222 c 0,0.0575 0.0425,0.0925 0.1,0.0925 h 1.0525 c 0.05,0 0.0925,-0.04 0.0925,-0.09 0,-0.05 -0.0425,-0.09 -0.0925,-0.09 h -0.8475 l 0.4675,-0.415 c 0.3075,-0.2675 0.4425,-0.425 0.4425,-0.68 v -0.005 c 0,-0.285 -0.2275,-0.495 -0.5425,-0.495 -0.29,0 -0.445,0.1225 -0.5925,0.3225 -0.0125,0.0175 -0.02,0.035 -0.02,0.055 0,0.05 0.04,0.09 0.09,0.09 0.0325,0 0.055,-0.015 0.0725,-0.035 0.1275,-0.1675 0.2475,-0.255 0.435,-0.255 0.19,0 0.3525,0.13 0.3525,0.335 0,0.1775 -0.0975,0.3075 -0.365,0.55 l -0.5975,0.5275 c -0.0325,0.0275 -0.0475,0.0575 -0.0475,0.0925 z"
         id="path199067"
         style="fill:#f2f2f2;fill-opacity:1" />
    </g>
    <g
       aria-label="AUX1"
       id="text185210"
       style="font-size:2.5px;line-height:1.25;font-family:'Gotham Rounded';-inkscape-font-specification:'Gotham Rounded';letter-spacing:-0.0185208px;fill:#f2f2f2;fill-opacity:1;stroke-width:0.264583"
       transform="translate(0,-1.5)">
      <path
         d="m 2.062,185.38348 c 0,0.05 0.04,0.09 0.09,0.09 0.045,0 0.0775,-0.0225 0.095,-0.0675 l 0.1825,-0.4075 h 0.96 l 0.1825,0.4025 c 0.0175,0.04 0.05,0.0725 0.0975,0.0725 0.0525,0 0.095,-0.0425 0.095,-0.095 0,-0.0125 -0.005,-0.03 -0.0125,-0.05 l -0.71,-1.55 c -0.0225,-0.0575 -0.065,-0.0875 -0.1225,-0.0875 h -0.01 c -0.0625,0 -0.0975,0.03 -0.125,0.0875 l -0.71,1.5525 c -0.0075,0.0175 -0.0125,0.035 -0.0125,0.0525 z m 0.445,-0.565 0.4025,-0.895 0.4025,0.895 z"
         id="path194818"
         style="fill:#f2f2f2;fill-opacity:1" />
      <path
         d="m 4.7684722,185.48848 c 0.4375,0 0.73,-0.2625 0.73,-0.775 v -0.915 c 0,-0.0575 -0.045,-0.1 -0.0975,-0.1 -0.0575,0 -0.1,0.0425 -0.1,0.1 v 0.93 c 0,0.3825 -0.205,0.5775 -0.5275,0.5775 -0.3325,0 -0.535,-0.21 -0.535,-0.59 v -0.9175 c 0,-0.0575 -0.0425,-0.1 -0.1,-0.1 -0.0525,0 -0.0975,0.0425 -0.0975,0.1 v 0.93 c 0,0.495 0.295,0.76 0.7275,0.76 z"
         id="path194820"
         style="fill:#f2f2f2;fill-opacity:1" />
      <path
         d="m 5.8424466,185.38098 c 0,0.0525 0.04,0.0925 0.0875,0.0925 0.0475,0 0.07,-0.025 0.0975,-0.0575 l 0.545,-0.71 0.5525,0.7175 c 0.0275,0.03 0.0475,0.05 0.0875,0.05 0.0575,0 0.0975,-0.045 0.0975,-0.0975 0,-0.0225 -0.01,-0.0475 -0.0325,-0.0725 l -0.5775,-0.7375 0.5575,-0.705 c 0.0175,-0.0225 0.0275,-0.045 0.0275,-0.07 0,-0.0525 -0.0425,-0.0925 -0.09,-0.0925 -0.0425,0 -0.0675,0.025 -0.095,0.0575 l -0.52,0.6775 -0.5275,-0.685 c -0.0275,-0.03 -0.0475,-0.05 -0.0875,-0.05 -0.0575,0 -0.0975,0.045 -0.0975,0.095 0,0.03 0.015,0.0525 0.0325,0.075 l 0.555,0.7 -0.585,0.7425 c -0.0175,0.0225 -0.0275,0.045 -0.0275,0.07 z"
         id="path194822"
         style="fill:#f2f2f2;fill-opacity:1" />
      <path
         d="m 7.9039254,185.37348 c 0,0.0575 0.045,0.1 0.0975,0.1 0.0575,0 0.0975,-0.0425 0.0975,-0.1 v -1.585 c 0,-0.0525 -0.04,-0.0975 -0.0975,-0.0975 h -0.005 c -0.0325,0 -0.0675,0.01 -0.1075,0.0225 l -0.2875,0.1 c -0.0475,0.0175 -0.07,0.045 -0.07,0.085 0,0.0475 0.0375,0.085 0.085,0.085 0.0125,0 0.0275,-0.002 0.0425,-0.007 l 0.245,-0.08 z"
         id="path194824"
         style="fill:#f2f2f2;fill-opacity:1" />
    </g>
    <g
       aria-label="0dB"
       id="text212620"
       style="font-size:2.5px;line-height:1.25;font-family:'Gotham Rounded';-inkscape-font-specification:'Gotham Rounded';letter-spacing:-0.0185208px;fill:#f2f2f2;fill-opacity:1;stroke-width:0.264583"
       transform="matrix(0.99990786,0,0,1,2.4167797e-4,1.73222)">
      <path
         d="m 3.3604999,219.48526 c 0.45,0 0.74,-0.415 0.74,-0.905 v -0.005 c 0,-0.49 -0.285,-0.9 -0.735,-0.9 -0.45,0 -0.7425,0.415 -0.7425,0.905 v 0.005 c 0,0.49 0.285,0.9 0.7375,0.9 z m 0.005,-0.18 c -0.33,0 -0.5375,-0.345 -0.5375,-0.725 v -0.005 c 0,-0.385 0.205,-0.72 0.5325,-0.72 0.3275,0 0.535,0.345 0.535,0.725 v 0.005 c 0,0.3825 -0.2,0.72 -0.53,0.72 z"
         id="path214468"
         style="fill:#f2f2f2;fill-opacity:1" />
      <path
         d="m 5.6819747,217.71526 c 0,-0.0575 -0.04,-0.0975 -0.0975,-0.0975 -0.0575,0 -0.095,0.04 -0.095,0.0975 v 0.695 c -0.1,-0.1475 -0.255,-0.275 -0.495,-0.275 -0.31,0 -0.6175,0.2525 -0.6175,0.6725 v 0.005 c 0,0.425 0.3075,0.67 0.6175,0.67 0.24,0 0.3875,-0.1325 0.495,-0.2875 v 0.175 c 0,0.0575 0.04,0.0975 0.0975,0.0975 0.0525,0 0.095,-0.04 0.095,-0.0975 z m -0.6525,0.5925 c 0.24,0 0.4675,0.2 0.4675,0.4975 v 0.005 c 0,0.2975 -0.2275,0.5 -0.4675,0.5 -0.24,0 -0.455,-0.1925 -0.455,-0.5 v -0.005 c 0,-0.3125 0.205,-0.4975 0.455,-0.4975 z"
         id="path214470"
         style="fill:#f2f2f2;fill-opacity:1" />
      <path
         d="m 6.1259528,219.35526 c 0,0.0575 0.045,0.1 0.0975,0.1 h 0.68 c 0.3825,0 0.635,-0.1775 0.635,-0.4775 v -0.005 c 0,-0.2375 -0.1675,-0.3625 -0.375,-0.4225 0.1375,-0.06 0.2775,-0.1775 0.2775,-0.405 v -0.005 c 0,-0.1075 -0.0375,-0.2025 -0.1125,-0.28 -0.1,-0.0975 -0.2575,-0.155 -0.4575,-0.155 h -0.6475 c -0.0525,0 -0.0975,0.0425 -0.0975,0.1 z m 0.195,-0.87 v -0.6025 h 0.5325 c 0.25,0 0.3875,0.1125 0.3875,0.285 v 0.005 c 0,0.2075 -0.1625,0.3125 -0.4025,0.3125 z m 0,0.7925 v -0.6175 h 0.5525 c 0.3075,0 0.465,0.11 0.465,0.3 v 0.005 c 0,0.1975 -0.1625,0.3125 -0.43,0.3125 z"
         id="path214472"
         style="fill:#f2f2f2;fill-opacity:1" />
    </g>
    <g
       aria-label="Master"
       id="text25388"
       style="font-weight:500;font-size:4px;line-height:1.25;font-family:'Gotham Rounded';-inkscape-font-specification:'Gotham Rounded Medium';letter-spacing:-0.0185208px;fill:#e6e6e6;stroke-width:0.264583"
       transform="translate(-0.73102773)">
      <path
         d="m 4.9110788,176.09598 c 0,0.14 0.1,0.24 0.24,0.24 0.14,0 0.244,-0.1 0.244,-0.24 v -1.676 l 0.68,1.02 c 0.052,0.08 0.112,0.128 0.204,0.128 0.092,0 0.156,-0.048 0.208,-0.128 l 0.684,-1.028 v 1.68 c 0,0.132 0.112,0.244 0.244,0.244 0.14,0 0.248,-0.104 0.248,-0.244 v -2.344 c 0,-0.14 -0.108,-0.248 -0.248,-0.248 h -0.052 c -0.096,0 -0.172,0.044 -0.224,0.128 l -0.852,1.332 -0.848,-1.328 c -0.048,-0.076 -0.12,-0.132 -0.228,-0.132 h -0.052 c -0.14,0 -0.248,0.108 -0.248,0.248 z"
         id="path28784" />
      <path
         d="m 8.9165505,176.35998 c 0.324,0 0.544,-0.136 0.688,-0.308 v 0.08 c 0,0.108 0.096,0.204 0.236,0.204 0.132,0 0.2359995,-0.1 0.2359995,-0.232 v -1.04 c 0,-0.276 -0.072,-0.496 -0.2279995,-0.652 -0.152,-0.156 -0.384,-0.236 -0.7,-0.236 -0.276,0 -0.476,0.048 -0.68,0.124 -0.076,0.028 -0.132,0.1 -0.132,0.192 0,0.112 0.092,0.2 0.204,0.2 0.02,0 0.048,-0.004 0.076,-0.012 0.132,-0.052 0.28,-0.084 0.468,-0.084 0.34,0 0.524,0.156 0.524,0.46 v 0.052 c -0.164,-0.052 -0.328,-0.088 -0.568,-0.088 -0.516,0 -0.872,0.22 -0.872,0.68 v 0.008 c 0,0.428 0.352,0.652 0.748,0.652 z m 0.136,-0.352 c -0.236,0 -0.412,-0.116 -0.412,-0.32 v -0.008 c 0,-0.224 0.18,-0.352 0.496,-0.352 0.192,0 0.356,0.036 0.48,0.084 v 0.144 c 0,0.272 -0.244,0.452 -0.564,0.452 z"
         id="path28786" />
      <path
         d="m 11.362029,176.35598 c 0.44,0 0.784,-0.22 0.784,-0.664 v -0.008 c 0,-0.38 -0.352,-0.52 -0.656,-0.616 -0.248,-0.076 -0.476,-0.148 -0.476,-0.3 v -0.008 c 0,-0.124 0.108,-0.208 0.296,-0.208 0.148,0 0.324,0.052 0.496,0.144 0.032,0.016 0.052,0.024 0.096,0.024 0.112,0 0.2,-0.084 0.2,-0.196 0,-0.084 -0.048,-0.148 -0.116,-0.184 -0.204,-0.108 -0.44,-0.172 -0.664,-0.172 -0.42,0 -0.752,0.244 -0.752,0.644 v 0.008 c 0,0.404 0.352,0.536 0.66,0.62 0.248,0.076 0.472,0.136 0.472,0.296 v 0.008 c 0,0.14 -0.12,0.228 -0.328,0.228 -0.192,0 -0.404,-0.064 -0.608,-0.204 -0.032,-0.02 -0.068,-0.028 -0.104,-0.028 -0.112,0 -0.196,0.088 -0.196,0.196 0,0.08 0.04,0.14 0.092,0.168 0.244,0.172 0.532,0.252 0.804,0.252 z"
         id="path28788" />
      <path
         d="m 13.291505,176.35198 c 0.128,0 0.224,-0.02 0.332,-0.056 0.068,-0.028 0.128,-0.096 0.128,-0.188 0,-0.112 -0.096,-0.2 -0.204,-0.2 -0.016,0 -0.06,0.012 -0.12,0.012 -0.164,0 -0.26,-0.076 -0.26,-0.264 v -1.036 h 0.38 c 0.116,0 0.212,-0.092 0.212,-0.208 0,-0.116 -0.096,-0.208 -0.212,-0.208 h -0.38 v -0.36 c 0,-0.132 -0.108,-0.24 -0.24,-0.24 -0.14,0 -0.244,0.108 -0.244,0.24 v 0.36 h -0.08 c -0.116,0 -0.208,0.092 -0.208,0.208 0,0.116 0.092,0.208 0.208,0.208 h 0.08 v 1.112 c 0,0.464 0.252,0.62 0.608,0.62 z"
         id="path28790" />
      <path
         d="m 14.512976,175.11198 c 0.044,-0.332 0.248,-0.556 0.548,-0.556 0.32,0 0.504,0.248 0.536,0.556 z m 1.364,0.972 c 0.036,-0.036 0.064,-0.088 0.064,-0.148 0,-0.112 -0.084,-0.196 -0.192,-0.196 -0.06,0 -0.088,0.016 -0.124,0.044 -0.14,0.112 -0.296,0.184 -0.5,0.184 -0.316,0 -0.556,-0.188 -0.608,-0.536 h 1.324 c 0.124,0 0.228,-0.092 0.228,-0.232 0,-0.488 -0.332,-1.04 -1.004,-1.04 -0.604,0 -1.032,0.492 -1.032,1.1 v 0.008 c 0,0.652 0.476,1.096 1.084,1.096 0.332,0 0.568,-0.108 0.76,-0.28 z"
         id="path28792" />
      <path
         d="m 16.546449,176.09598 c 0,0.14 0.108,0.24 0.24,0.24 0.14,0 0.244,-0.108 0.244,-0.24 v -0.624 c 0,-0.5 0.232,-0.764 0.58,-0.824 0.108,-0.02 0.192,-0.104 0.192,-0.232 0,-0.14 -0.084,-0.24 -0.24,-0.24 -0.212,0 -0.42,0.196 -0.532,0.464 v -0.216 c 0,-0.14 -0.104,-0.244 -0.244,-0.244 -0.14,0 -0.24,0.104 -0.24,0.244 z"
         id="path28794" />
    </g>
  </g>
  <g
     inkscape:groupmode="layer"
     id="layer2"
     inkscape:label="components" />
</svg>
