<?xml version="1.0" encoding="UTF-8" standalone="no"?>
<!-- Created with Inkscape (http://www.inkscape.org/) -->

<svg
   width="20.32mm"
   height="128.5mm"
   viewBox="0 0 20.320001 128.50002"
   version="1.1"
   id="svg8"
   inkscape:version="1.1.2 (0a00cf5339, 2022-02-04)"
   sodipodi:docname="ChainMixerAux-dark.svg"
   xmlns:inkscape="http://www.inkscape.org/namespaces/inkscape"
   xmlns:sodipodi="http://sodipodi.sourceforge.net/DTD/sodipodi-0.dtd"
   xmlns="http://www.w3.org/2000/svg"
   xmlns:svg="http://www.w3.org/2000/svg"
   xmlns:rdf="http://www.w3.org/1999/02/22-rdf-syntax-ns#"
   xmlns:cc="http://creativecommons.org/ns#"
   xmlns:dc="http://purl.org/dc/elements/1.1/">
  <defs
     id="defs2">
    <rect
       x="18.951939"
       y="128.22154"
       width="2.9603795"
       height="26.149619"
       id="rect139664" />
    <rect
       x="30.793283"
       y="166.70589"
       width="10.854667"
       height="18.255398"
       id="rect64003" />
  </defs>
  <sodipodi:namedview
     id="base"
     pagecolor="#ffffff"
     bordercolor="#666666"
     borderopacity="1.0"
     inkscape:pageopacity="0.0"
     inkscape:pageshadow="2"
     inkscape:zoom="1"
     inkscape:cx="159.5"
     inkscape:cy="245.5"
     inkscape:document-units="mm"
     inkscape:current-layer="layer1"
     showgrid="false"
     units="mm"
     inkscape:snap-bbox="true"
     inkscape:snap-page="true"
     inkscape:bbox-nodes="false"
     inkscape:snap-bbox-edge-midpoints="false"
     inkscape:window-width="1842"
     inkscape:window-height="1128"
     inkscape:window-x="2636"
     inkscape:window-y="0"
     inkscape:window-maximized="0"
     inkscape:snap-bbox-midpoints="true"
     inkscape:snap-nodes="false"
     inkscape:pagecheckerboard="0"
     width="15.24mm"
     showguides="false" />
  <metadata
     id="metadata5">
    <rdf:RDF>
      <cc:Work
         rdf:about="">
        <dc:format>image/svg+xml</dc:format>
        <dc:type
           rdf:resource="http://purl.org/dc/dcmitype/StillImage" />
      </cc:Work>
    </rdf:RDF>
  </metadata>
  <g
     inkscape:label="Layer 1"
     inkscape:groupmode="layer"
     id="layer1"
     transform="translate(0,-168.49998)">
    <rect
       style="display:inline;opacity:1;vector-effect:none;fill:#2c2c24;fill-opacity:1;fill-rule:evenodd;stroke:none;stroke-width:0.530199;stroke-linecap:butt;stroke-linejoin:miter;stroke-miterlimit:4;stroke-dasharray:none;stroke-dashoffset:0;stroke-opacity:1;paint-order:normal"
       id="rect420"
       width="20.32"
       height="128.5"
       x="5.9211732e-17"
       y="168.49998"
       sodipodi:insensitive="true" />
    <rect
       style="fill:#848483;fill-opacity:1;stroke-width:0"
       id="rect206661"
       width="9.3199997"
       height="18"
       x="0.5"
       y="269.49997"
       ry="1.4264066" />
    <rect
       style="fill:#848483;fill-opacity:1;stroke-width:0"
       id="rect206661-3"
       width="9.3199997"
       height="18"
       x="10.66"
       y="269.49997"
       ry="1.4264066" />
    <rect
       style="fill:#50504e;fill-opacity:1;stroke-width:0"
       id="rect206661-6-7-3"
       width="9.3199997"
       height="18"
       x="10.66"
       y="245.49998"
       ry="1.4264066" />
    <rect
       style="fill:#50504e;fill-opacity:1;stroke-width:0"
       id="rect206661-6"
       width="9.3199997"
       height="18"
       x="0.5"
       y="245.49998"
       ry="1.4264066" />
    <g
       aria-label="P"
       id="text41381"
       style="font-weight:bold;font-size:12.2835px;line-height:1.25;font-family:'Gotham Rounded';-inkscape-font-specification:'Gotham Rounded Bold';letter-spacing:-0.07px;fill:#999999;fill-opacity:1"
       transform="matrix(0.33379305,0,0,0.33379305,-15.090396,172.06849)">
      <path
         id="path44464"
         d="m 75.468978,363.37891 c 0,0.52819 0.417639,0.94583 0.94583,0.94583 0.52819,0 0.945829,-0.41764 0.945829,-0.94583 v -1.70741 h 1.43717 c 1.928509,0 3.47623,-1.01953 3.47623,-3.02174 v -0.0246 c 0,-1.76882 -1.240633,-2.9726 -3.291978,-2.9726 h -2.567251 c -0.528191,0 -0.94583,0.41764 -0.94583,0.94583 z m 1.891659,-3.39025 v -2.62867 h 1.461737 c 0.945829,0 1.535437,0.45449 1.535437,1.30206 v 0.0246 c 0,0.73701 -0.552757,1.30205 -1.498587,1.30205 z m -3.820309,0.71391 c 1.289767,0 2.309298,-0.42992 3.009457,-0.85985 0.442206,-0.25795 0.663309,-0.6633 0.663309,-1.20378 v -2.08819 c 0,-0.52819 -0.417639,-0.94583 -0.945829,-0.94583 h -2.161896 c -0.454489,0 -0.822994,0.3685 -0.822994,0.82299 0,0.45449 0.368505,0.81071 0.822994,0.81071 h 1.277484 v 1.22835 c -0.479057,0.34394 -1.080948,0.51591 -1.781107,0.51591 -1.523154,0 -2.604102,-1.15465 -2.604102,-2.72694 v -0.0246 c 0,-1.46173 1.093231,-2.6778 2.468983,-2.6778 0.822994,0 1.351185,0.20882 1.879375,0.58961 0.135119,0.0983 0.294804,0.19653 0.577325,0.19653 0.52819,0 0.933546,-0.40535 0.933546,-0.93354 0,-0.38079 -0.20882,-0.62646 -0.393072,-0.76158 -0.786144,-0.54047 -1.621422,-0.83528 -2.935756,-0.83528 -2.604102,0 -4.508045,2.00221 -4.508045,4.44663 v 0.0246 c 0,2.55497 1.842525,4.42206 4.520328,4.42206 z"
         style="fill:#999999;fill-opacity:1" />
    </g>
    <g
       aria-label="1"
       id="text60713"
       style="font-weight:bold;font-size:4px;line-height:1.25;font-family:'Gotham Rounded';-inkscape-font-specification:'Gotham Rounded Bold';letter-spacing:-0.0185208px;fill:#f2f2f2;fill-opacity:1;stroke-width:0.264583">
      <path
         d="m 5.1520001,183.05998 c 0,0.172 0.132,0.304 0.304,0.304 0.172,0 0.304,-0.132 0.304,-0.304 v -2.256 c 0,-0.172 -0.132,-0.304 -0.304,-0.304 h -0.008 c -0.084,0 -0.172,0.02 -0.288,0.052 l -0.396,0.116 c -0.124,0.036 -0.204,0.14 -0.204,0.264 0,0.144 0.124,0.264 0.268,0.264 0.032,0 0.076,-0.004 0.108,-0.016 l 0.216,-0.056 z"
         id="path10489"
         style="fill:#f2f2f2;fill-opacity:1" />
    </g>
    <g
       aria-label="RETURN "
       id="text22183"
       style="font-weight:500;font-size:2.25px;line-height:1.25;font-family:'Gotham Rounded';-inkscape-font-specification:'Gotham Rounded Medium';letter-spacing:-0.0185208px;fill:#f2f2f2;fill-opacity:1;stroke-width:0.264583"
       transform="translate(0,1.00005)">
      <path
         d="m 5.8991252,242.46023 c 0,0.0788 0.06075,0.13725 0.1395,0.13725 0.07875,0 0.13725,-0.0585 0.13725,-0.13725 v -0.423 h 0.34875 l 0.3825,0.48825 c 0.03375,0.0428 0.072,0.072 0.135,0.072 0.06975,0 0.13275,-0.0495 0.13275,-0.12825 0,-0.0428 -0.018,-0.072 -0.045,-0.10575 l -0.3015,-0.38025 c 0.2115,-0.0675 0.35775,-0.216 0.35775,-0.47025 v -0.005 c 0,-0.13725 -0.04725,-0.252 -0.1305,-0.33975 -0.10125,-0.099 -0.2565,-0.1575 -0.4545,-0.1575 h -0.5625 c -0.07875,0 -0.1395,0.0607 -0.1395,0.1395 z m 0.27675,-0.66825 v -0.52875 h 0.40275 c 0.207,0 0.32625,0.09 0.32625,0.261 v 0.005 c 0,0.162 -0.126,0.26325 -0.324,0.26325 z"
         id="path10406"
         style="fill:#f2f2f2;fill-opacity:1" />
      <path
         d="m 8.5738534,242.58623 c 0.06975,0 0.12375,-0.054 0.12375,-0.12375 0,-0.0697 -0.054,-0.12375 -0.12375,-0.12375 h -0.78975 v -0.423 h 0.67725 c 0.06975,0 0.12375,-0.0517 0.12375,-0.1215 0,-0.0697 -0.054,-0.126 -0.12375,-0.126 h -0.67725 v -0.4095 h 0.7785 c 0.06975,0 0.12375,-0.054 0.12375,-0.12375 0,-0.0697 -0.054,-0.12375 -0.12375,-0.12375 h -0.91575 c -0.07875,0 -0.1395,0.0607 -0.1395,0.1395 v 1.296 c 0,0.0787 0.06075,0.1395 0.1395,0.1395 z"
         id="path10408"
         style="fill:#f2f2f2;fill-opacity:1" />
      <path
         d="m 9.3833285,242.46023 c 0,0.0788 0.06075,0.13725 0.1395,0.13725 0.07875,0 0.1395,-0.0585 0.1395,-0.13725 v -1.1925 h 0.3847495 c 0.06975,0 0.126,-0.0585 0.126,-0.12825 0,-0.0697 -0.05625,-0.12825 -0.126,-0.12825 H 9.0008285 c -0.072,0 -0.12825,0.0585 -0.12825,0.12825 0,0.0697 0.05625,0.12825 0.12825,0.12825 h 0.3825 z"
         id="path10410"
         style="fill:#f2f2f2;fill-opacity:1" />
      <path
         d="m 11.081555,242.61098 c 0.41175,0 0.67725,-0.23625 0.67725,-0.7065 v -0.76725 c 0,-0.0787 -0.0585,-0.13725 -0.13725,-0.13725 -0.07875,0 -0.1395,0.0585 -0.1395,0.13725 v 0.78075 c 0,0.29025 -0.15075,0.4365 -0.396,0.4365 -0.24975,0 -0.39825,-0.153 -0.39825,-0.44775 v -0.7695 c 0,-0.0787 -0.0585,-0.13725 -0.13725,-0.13725 -0.07875,0 -0.1395,0.0585 -0.1395,0.13725 v 0.78075 c 0,0.45675 0.26325,0.693 0.6705,0.693 z"
         id="path10412"
         style="fill:#f2f2f2;fill-opacity:1" />
      <path
         d="m 12.120534,242.46023 c 0,0.0788 0.06075,0.13725 0.1395,0.13725 0.07875,0 0.13725,-0.0585 0.13725,-0.13725 v -0.423 h 0.34875 l 0.3825,0.48825 c 0.03375,0.0428 0.072,0.072 0.135,0.072 0.06975,0 0.13275,-0.0495 0.13275,-0.12825 0,-0.0428 -0.018,-0.072 -0.045,-0.10575 l -0.3015,-0.38025 c 0.2115,-0.0675 0.35775,-0.216 0.35775,-0.47025 v -0.005 c 0,-0.13725 -0.04725,-0.252 -0.1305,-0.33975 -0.10125,-0.099 -0.2565,-0.1575 -0.4545,-0.1575 h -0.5625 c -0.07875,0 -0.1395,0.0607 -0.1395,0.1395 z m 0.27675,-0.66825 v -0.52875 h 0.40275 c 0.207,0 0.32625,0.09 0.32625,0.261 v 0.005 c 0,0.162 -0.126,0.26325 -0.324,0.26325 z"
         id="path10414"
         style="fill:#f2f2f2;fill-opacity:1" />
      <path
         d="m 13.728762,242.46248 c 0,0.0743 0.0585,0.135 0.13725,0.135 0.07425,0 0.135,-0.0607 0.135,-0.135 v -0.999 l 0.81,1.0485 c 0.03825,0.0517 0.07875,0.0832 0.144,0.0832 h 0.01125 c 0.07875,0 0.135,-0.0585 0.135,-0.13725 v -1.323 c 0,-0.0743 -0.0585,-0.135 -0.13725,-0.135 -0.07425,0 -0.135,0.0608 -0.135,0.135 v 0.9675 l -0.7875,-1.01925 c -0.03825,-0.0472 -0.07425,-0.081 -0.144,-0.081 h -0.02925 c -0.07875,0 -0.1395,0.0608 -0.1395,0.1395 z"
         id="path10416"
         style="fill:#f2f2f2;fill-opacity:1" />
    </g>
    <g
       aria-label="2"
       id="text64549"
       style="font-weight:bold;font-size:4px;line-height:1.25;font-family:'Gotham Rounded';-inkscape-font-specification:'Gotham Rounded Bold';letter-spacing:-0.0185208px;fill:#f2f2f2;fill-opacity:1;stroke-width:0.264583">
      <path
         d="m 14.259999,183.04798 c 0,0.188 0.14,0.292 0.332,0.292 h 1.52 c 0.148,0 0.268,-0.116 0.268,-0.264 0,-0.148 -0.12,-0.268 -0.268,-0.268 h -0.976 l 0.456,-0.352 c 0.496,-0.388 0.736,-0.612 0.736,-1.084 v -0.008 c 0,-0.524 -0.388,-0.864 -0.964,-0.864 -0.428,0 -0.688,0.152 -0.912,0.412 -0.048,0.056 -0.072,0.12 -0.072,0.192 0,0.156 0.124,0.28 0.28,0.28 0.096,0 0.164,-0.044 0.208,-0.088 0.156,-0.172 0.28,-0.244 0.456,-0.244 0.224,0 0.376,0.124 0.376,0.364 0,0.236 -0.132,0.384 -0.484,0.672 l -0.796,0.652 c -0.108,0.084 -0.16,0.188 -0.16,0.308 z"
         id="path10510"
         style="fill:#f2f2f2;fill-opacity:1" />
    </g>
    <g
       aria-label="SEND"
       id="text102595"
       style="font-weight:500;font-size:2.25px;line-height:1.25;font-family:'Gotham Rounded';-inkscape-font-specification:'Gotham Rounded Medium';letter-spacing:-0.0185208px;fill:#f2f2f2;fill-opacity:1;stroke-width:0.264583">
      <path
         d="m 8.0518538,267.61997 c 0.33075,0 0.5625,-0.17325 0.5625,-0.47025 v -0.005 c 0,-0.26325 -0.17325,-0.37575 -0.504,-0.46125 -0.30375,-0.072 -0.37575,-0.126 -0.37575,-0.2475 v -0.005 c 0,-0.10575 0.0945,-0.18675 0.2565,-0.18675 0.126,0 0.2385,0.0405 0.36225,0.11925 0.0225,0.0135 0.04725,0.0203 0.072,0.0203 0.072,0 0.1305,-0.0563 0.1305,-0.12825 0,-0.054 -0.027,-0.0922 -0.06075,-0.11025 -0.144,-0.0968 -0.3015,-0.14625 -0.4995,-0.14625 -0.31275,0 -0.53775,0.18675 -0.53775,0.45675 v 0.005 c 0,0.288 0.189,0.3915 0.52425,0.47025 0.2925,0.0652 0.3555,0.1305 0.3555,0.24075 v 0.005 c 0,0.117 -0.108,0.198 -0.279,0.198 -0.171,0 -0.30825,-0.0563 -0.441,-0.162 -0.018,-0.0157 -0.04275,-0.0247 -0.081,-0.0247 -0.072,0 -0.1305,0.0562 -0.1305,0.12825 0,0.045 0.02025,0.081 0.054,0.10575 0.17775,0.13275 0.3735,0.198 0.59175,0.198 z"
         id="path10437"
         style="fill:#f2f2f2;fill-opacity:1" />
      <path
         d="m 9.9885816,267.59747 c 0.06975,0 0.1237504,-0.054 0.1237504,-0.12375 0,-0.0697 -0.054,-0.12375 -0.1237504,-0.12375 h -0.78975 v -0.423 h 0.67725 c 0.06975,0 0.12375,-0.0517 0.12375,-0.1215 0,-0.0697 -0.054,-0.126 -0.12375,-0.126 h -0.67725 v -0.4095 h 0.7785 c 0.06975,0 0.1237504,-0.054 0.1237504,-0.12375 0,-0.0698 -0.054,-0.12375 -0.1237504,-0.12375 h -0.91575 c -0.07875,0 -0.1395,0.0607 -0.1395,0.1395 v 1.296 c 0,0.0788 0.06075,0.1395 0.1395,0.1395 z"
         id="path10439"
         style="fill:#f2f2f2;fill-opacity:1" />
      <path
         d="m 10.411057,267.47372 c 0,0.0743 0.0585,0.135 0.13725,0.135 0.07425,0 0.135,-0.0607 0.135,-0.135 v -0.999 l 0.81,1.0485 c 0.03825,0.0518 0.07875,0.0833 0.144,0.0833 h 0.01125 c 0.07875,0 0.135,-0.0585 0.135,-0.13725 v -1.323 c 0,-0.0743 -0.0585,-0.135 -0.13725,-0.135 -0.07425,0 -0.135,0.0608 -0.135,0.135 v 0.9675 l -0.7875,-1.01925 c -0.03825,-0.0473 -0.07425,-0.081 -0.144,-0.081 h -0.02925 c -0.07875,0 -0.1395,0.0608 -0.1395,0.1395 z"
         id="path10441"
         style="fill:#f2f2f2;fill-opacity:1" />
      <path
         d="m 12.170034,267.45797 c 0,0.0788 0.06075,0.1395 0.1395,0.1395 h 0.44775 c 0.495,0 0.837,-0.34425 0.837,-0.7875 v -0.005 c 0,-0.44325 -0.342,-0.783 -0.837,-0.783 h -0.44775 c -0.07875,0 -0.1395,0.0607 -0.1395,0.1395 z m 0.27675,-0.1125 v -1.071 h 0.3105 c 0.33075,0 0.54675,0.22725 0.54675,0.5355 v 0.004 c 0,0.30825 -0.216,0.531 -0.54675,0.531 z"
         id="path10443"
         style="fill:#f2f2f2;fill-opacity:1" />
    </g>
    <g
       aria-label="Aux"
       id="text6586"
       style="font-weight:500;font-size:4px;line-height:1.25;font-family:'Gotham Rounded';-inkscape-font-specification:'Gotham Rounded Medium';letter-spacing:-0.0185208px;fill:#e6e6e6;fill-opacity:1;stroke-width:0.264583">
      <path
         d="m 6.3638747,176.13198 c 0,0.128 0.1,0.228 0.228,0.228 0.108,0 0.184,-0.052 0.228,-0.156 l 0.236,-0.54 h 1.36 l 0.228,0.524 c 0.044,0.108 0.124,0.172 0.24,0.172 0.132,0 0.232,-0.104 0.232,-0.236 0,-0.036 -0.008,-0.068 -0.028,-0.104 l -1.04,-2.32 c -0.06,-0.124 -0.152,-0.2 -0.292,-0.2 h -0.024 c -0.14,0 -0.236,0.076 -0.296,0.2 l -1.04,2.32 c -0.02,0.044 -0.032,0.08 -0.032,0.112 z m 0.88,-0.904 0.492,-1.132 0.492,1.132 z"
         id="path10464"
         style="fill:#e6e6e6;fill-opacity:1" />
      <path
         d="m 11.421342,174.44798 c 0,-0.14 -0.112,-0.244 -0.244,-0.244 -0.14,0 -0.244,0.104 -0.244,0.244 v 0.972 c 0,0.332 -0.192,0.52 -0.476,0.52 -0.288,0 -0.452,-0.18 -0.452,-0.512 v -0.98 c 0,-0.14 -0.1040004,-0.244 -0.2440004,-0.244 -0.132,0 -0.24,0.104 -0.24,0.244 v 1.124 c 0,0.496 0.272,0.812 0.7520004,0.812 0.324,0 0.52,-0.168 0.66,-0.372 v 0.108 c 0,0.14 0.112,0.24 0.244,0.24 0.14,0 0.244,-0.108 0.244,-0.24 z"
         id="path10466"
         style="fill:#e6e6e6;fill-opacity:1" />
      <path
         d="m 11.894816,176.15598 c 0,0.124 0.1,0.212 0.224,0.212 0.092,0 0.152,-0.056 0.212,-0.124 l 0.512,-0.66 0.512,0.66 c 0.06,0.08 0.128,0.124 0.224,0.124 0.124,0 0.224,-0.084 0.224,-0.224 0,-0.064 -0.028,-0.12 -0.08,-0.184 l -0.592,-0.7 0.572,-0.684 c 0.044,-0.048 0.068,-0.096 0.068,-0.164 0,-0.124 -0.1,-0.212 -0.228,-0.212 -0.084,0 -0.148,0.048 -0.208,0.124 l -0.484,0.62 -0.476,-0.624 c -0.06,-0.076 -0.128,-0.12 -0.224,-0.12 -0.124,0 -0.224,0.084 -0.224,0.224 0,0.064 0.028,0.12 0.08,0.184 l 0.556,0.66 -0.6,0.72 c -0.044,0.052 -0.068,0.108 -0.068,0.168 z"
         id="path10468"
         style="fill:#e6e6e6;fill-opacity:1" />
    </g>
  </g>
  <g
     inkscape:groupmode="layer"
     id="layer2"
     inkscape:label="components" />
</svg>
