<?xml version="1.0" encoding="UTF-8" standalone="no"?>
<!-- Created with Inkscape (http://www.inkscape.org/) -->

<svg
   width="16mm"
   height="16mm"
   viewBox="0 0 16 16"
   version="1.1"
   id="svg2420"
   sodipodi:docname="FilledKnob-16mm-bg.svg"
   inkscape:version="1.1.2 (0a00cf5339, 2022-02-04)"
   xmlns:inkscape="http://www.inkscape.org/namespaces/inkscape"
   xmlns:sodipodi="http://sodipodi.sourceforge.net/DTD/sodipodi-0.dtd"
   xmlns:xlink="http://www.w3.org/1999/xlink"
   xmlns="http://www.w3.org/2000/svg"
   xmlns:svg="http://www.w3.org/2000/svg">
  <sodipodi:namedview
     id="namedview2422"
     pagecolor="#ffffff"
     bordercolor="#666666"
     borderopacity="1.0"
     inkscape:pageshadow="2"
     inkscape:pageopacity="0.0"
     inkscape:pagecheckerboard="0"
     inkscape:document-units="mm"
     showgrid="false"
     inkscape:zoom="7.308151"
     inkscape:cx="38.381801"
     inkscape:cy="23.466948"
     inkscape:window-width="1842"
     inkscape:window-height="1128"
     inkscape:window-x="2636"
     inkscape:window-y="0"
     inkscape:window-maximized="0"
     inkscape:current-layer="g6417"
     inkscape:lockguides="true" />
  <defs
     id="defs2417">
    <linearGradient
       inkscape:collect="always"
       id="linearGradient4677">
      <stop
         style="stop-color:#808080;stop-opacity:1;"
         offset="0"
         id="stop4673" />
      <stop
         style="stop-color:#262626;stop-opacity:1"
         offset="1"
         id="stop4675" />
    </linearGradient>
    <linearGradient
       inkscape:collect="always"
       xlink:href="#linearGradient4677"
       id="linearGradient4679"
       x1="19.035326"
       y1="1.0094186"
       x2="44.554913"
       y2="63.579716"
       gradientUnits="userSpaceOnUse" />
    <radialGradient
       inkscape:collect="always"
       xlink:href="#linearGradient2826"
       id="radialGradient2828"
       cx="5.9438906"
       cy="4.6986723"
       fx="5.9438906"
       fy="4.6986723"
       r="3.5198231"
       gradientTransform="matrix(11.036436,0,0,6.0399098,-46.202771,-10.110186)"
       gradientUnits="userSpaceOnUse" />
    <linearGradient
       inkscape:collect="always"
       id="linearGradient2826">
      <stop
         style="stop-color:#999999;stop-opacity:1;"
         offset="0"
         id="stop2822" />
      <stop
         style="stop-color:#999999;stop-opacity:0;"
         offset="1"
         id="stop2824" />
    </linearGradient>
  </defs>
  <g
     inkscape:label="Ebene 1"
     inkscape:groupmode="layer"
     id="layer1">
    <g
       id="g6417"
       transform="matrix(1.9999927,0,0,2,-1.9999817,-2)">
      <path
         id="path5053"
         style="fill:#141414;fill-opacity:0.935282;stroke:#101010;stroke-width:0;stroke-linecap:round"
         d="M 7.4747596,5 A 2.4873796,2.4999995 0 0 1 4.98738,7.4999995 2.4873796,2.4999995 0 0 1 2.5000005,5 2.4873796,2.4999995 0 0 1 4.98738,2.5000005 2.4873796,2.4999995 0 0 1 7.4747596,5 Z" />
      <path
         id="path5053-56"
         style="fill-opacity:0.935282;stroke:#101010;stroke-width:0;stroke-linecap:round"
         d="m 5.8381139,2.6507689 a 2.4873796,2.4999995 0 0 1 1.4866384,1.494181 L 4.98738,5 Z" />
      <path
         id="path5053-56-2"
         style="fill-opacity:0.935282;stroke:#101010;stroke-width:0;stroke-linecap:round"
         transform="scale(-1)"
         d="m -4.1371259,-7.3492316 a 2.4873796,2.4999995 0 0 1 1.4866384,1.494181 l -2.3373722,0.8550501 z" />
      <path
         id="path5053-5"
         style="fill:#464646;stroke:#101010;stroke-width:0;stroke-linecap:round"
         d="M 2.6500078,4.1449498 A 2.4873796,2.4999995 0 0 1 3.3885233,3.0848892 L 4.98738,5 Z" />
      <path
         id="path5053-5-3"
         style="fill:#323233;fill-opacity:1;stroke:#101010;stroke-width:0;stroke-linecap:round"
         transform="scale(-1)"
         d="m -7.3247527,-5.8550507 a 2.4873796,2.4999995 0 0 1 0.7385155,-1.0600606 l 1.5988567,1.9151108 z" />
      <path
         id="path5053-6"
         style="fill:#5a5a5a;stroke:#101010;stroke-width:0;stroke-linecap:round"
         d="M 3.3885233,3.0848892 A 2.4873796,2.4999995 0 0 1 3.7436902,2.8349369 L 4.98738,5 Z" />
      <path
         id="path5053-6-7"
         style="fill:#424242;fill-opacity:1;stroke:#101010;stroke-width:0;stroke-linecap:round"
         transform="scale(-1)"
         d="m -6.5862372,-6.9151113 a 2.4873796,2.4999995 0 0 1 0.3551669,-0.2499523 l 1.2436898,2.1650631 z" />
      <path
         id="path7096"
         style="opacity:0.584259;fill:#505050;fill-opacity:0.935282;stroke:#101010;stroke-width:0;stroke-linecap:round"
         d="M 3.7436904,2.8349371 A 2.4873793,2.4999993 0 0 1 4.5554513,2.5379813 L 4.98738,5 Z" />
      <path
         id="path7096-3"
         style="opacity:0.584259;fill:#464646;fill-opacity:0.93528199;stroke:#101010;stroke-width:0;stroke-linecap:round"
         transform="scale(-1)"
         d="m -6.2310702,-7.1650634 a 2.4873793,2.4999993 0 0 1 0.8117609,-0.2969558 l 0.4319288,2.4620187 z" />
      <path
         id="path2574"
         style="fill:url(#radialGradient2828);stroke:#808080;stroke-width:0;stroke-linecap:round"
         d="m 30.328125,12.283203 a 17.862062,17.952751 0 0 0 -17.861328,17.953125 17.862062,17.952751 0 0 0 2.496094,9.146484 38.846295,21.259415 0 0 0 4.433593,0.146485 38.846295,21.259415 0 0 0 28.626954,-6.892578 17.862062,17.952751 0 0 0 0.167968,-2.400391 17.862062,17.952751 0 0 0 -17.863281,-17.953125 z"
         transform="matrix(0.13229215,0,0,0.13229167,0.9999945,1)" />
    </g>
    <path
       id="path4276"
       style="fill:url(#linearGradient4679);fill-opacity:1;stroke:none;stroke-width:0;stroke-linecap:round"
       d="M 30.236328,0 A 30.236219,30.236219 0 0 0 0,30.236328 30.236219,30.236219 0 0 0 30.236328,60.472656 30.236219,30.236219 0 0 0 60.472656,30.236328 30.236219,30.236219 0 0 0 30.236328,0 Z m 0,11.337891 A 18.897636,18.897636 0 0 1 49.134766,30.236328 18.897636,18.897636 0 0 1 30.236328,49.134766 18.897636,18.897636 0 0 1 11.337891,30.236328 18.897636,18.897636 0 0 1 30.236328,11.337891 Z"
       transform="scale(0.26458333)" />
  </g>
</svg>
