<?xml version="1.0" encoding="UTF-8" standalone="no"?>
<!-- Created with Inkscape (http://www.inkscape.org/) -->

<svg
   width="10mm"
   height="3mm"
   viewBox="0 0 10.000001 3.0000005"
   version="1.1"
   id="svg8"
   inkscape:version="1.1.2 (0a00cf5339, 2022-02-04)"
   sodipodi:docname="Number14-dark.svg"
   xmlns:inkscape="http://www.inkscape.org/namespaces/inkscape"
   xmlns:sodipodi="http://sodipodi.sourceforge.net/DTD/sodipodi-0.dtd"
   xmlns="http://www.w3.org/2000/svg"
   xmlns:svg="http://www.w3.org/2000/svg"
   xmlns:rdf="http://www.w3.org/1999/02/22-rdf-syntax-ns#"
   xmlns:cc="http://creativecommons.org/ns#"
   xmlns:dc="http://purl.org/dc/elements/1.1/">
  <defs
     id="defs2">
    <rect
       x="18.951939"
       y="128.22154"
       width="2.9603796"
       height="26.149618"
       id="rect139664" />
    <rect
       x="30.793283"
       y="166.70589"
       width="10.854667"
       height="18.255398"
       id="rect64003" />
  </defs>
  <sodipodi:namedview
     id="base"
     pagecolor="#ffffff"
     bordercolor="#666666"
     borderopacity="1.0"
     inkscape:pageopacity="0.0"
     inkscape:pageshadow="2"
     inkscape:zoom="4"
     inkscape:cx="40.625"
     inkscape:cy="60.375"
     inkscape:document-units="mm"
     inkscape:current-layer="layer1"
     showgrid="false"
     units="mm"
     inkscape:snap-bbox="true"
     inkscape:snap-page="true"
     inkscape:bbox-nodes="false"
     inkscape:snap-bbox-edge-midpoints="false"
     inkscape:window-width="1842"
     inkscape:window-height="1128"
     inkscape:window-x="2636"
     inkscape:window-y="0"
     inkscape:window-maximized="0"
     inkscape:snap-bbox-midpoints="true"
     inkscape:snap-nodes="false"
     inkscape:pagecheckerboard="0"
     width="15.24mm"
     showguides="false" />
  <metadata
     id="metadata5">
    <rdf:RDF>
      <cc:Work
         rdf:about="">
        <dc:format>image/svg+xml</dc:format>
        <dc:type
           rdf:resource="http://purl.org/dc/dcmitype/StillImage" />
      </cc:Work>
    </rdf:RDF>
  </metadata>
  <g
     inkscape:label="Layer 1"
     inkscape:groupmode="layer"
     id="layer1"
     transform="translate(0,-168.49998)">
    <g
       aria-label="14"
       id="text20765"
       style="font-weight:500;font-size:4px;line-height:1.25;font-family:'Gotham Rounded';-inkscape-font-specification:'Gotham Rounded Medium';letter-spacing:-0.0185208px;fill:#e6e6e6;stroke-width:0.264583">
      <path
         d="m 3.5992607,171.11598 c 0,0.14 0.112,0.244 0.244,0.244 0.14,0 0.244,-0.104 0.244,-0.244 v -2.368 c 0,-0.14 -0.104,-0.244 -0.244,-0.244 h -0.008 c -0.076,0 -0.144,0.016 -0.24,0.044 l -0.424,0.136 c -0.1,0.028 -0.164,0.104 -0.164,0.212 0,0.112 0.1,0.208 0.216,0.208 0.028,0 0.06,-0.004 0.088,-0.012 l 0.288,-0.088 z"
         id="path25271"
         style="fill:#e6e6e6" />
      <path
         d="m 6.1007395,171.12798 c 0,0.132 0.104,0.232 0.236,0.232 0.132,0 0.236,-0.1 0.236,-0.232 v -0.416 h 0.216 c 0.116,0 0.204,-0.088 0.204,-0.2 0,-0.112 -0.088,-0.204 -0.204,-0.204 h -0.216 v -1.572 c 0,-0.132 -0.108,-0.236 -0.24,-0.236 -0.144,0 -0.208,0.052 -0.3,0.16 l -1.316,1.56 c -0.076,0.084 -0.108,0.164 -0.108,0.26 0,0.14 0.108,0.232 0.24,0.232 h 1.252 z m -0.92,-0.82 0.92,-1.108 v 1.108 z"
         id="path25273"
         style="fill:#e6e6e6" />
    </g>
  </g>
  <g
     inkscape:groupmode="layer"
     id="layer2"
     inkscape:label="components" />
</svg>
