<?xml version="1.0" encoding="UTF-8" standalone="no"?>
<!-- Created with Inkscape (http://www.inkscape.org/) -->

<svg
   width="10mm"
   height="3mm"
   viewBox="0 0 10.000001 3.0000005"
   version="1.1"
   id="svg8"
   inkscape:version="1.1.2 (0a00cf5339, 2022-02-04)"
   sodipodi:docname="Number16.svg"
   xmlns:inkscape="http://www.inkscape.org/namespaces/inkscape"
   xmlns:sodipodi="http://sodipodi.sourceforge.net/DTD/sodipodi-0.dtd"
   xmlns="http://www.w3.org/2000/svg"
   xmlns:svg="http://www.w3.org/2000/svg"
   xmlns:rdf="http://www.w3.org/1999/02/22-rdf-syntax-ns#"
   xmlns:cc="http://creativecommons.org/ns#"
   xmlns:dc="http://purl.org/dc/elements/1.1/">
  <defs
     id="defs2">
    <rect
       x="18.951939"
       y="128.22154"
       width="2.9603796"
       height="26.149618"
       id="rect139664" />
    <rect
       x="30.793283"
       y="166.70589"
       width="10.854667"
       height="18.255398"
       id="rect64003" />
  </defs>
  <sodipodi:namedview
     id="base"
     pagecolor="#ffffff"
     bordercolor="#666666"
     borderopacity="1.0"
     inkscape:pageopacity="0.0"
     inkscape:pageshadow="2"
     inkscape:zoom="4"
     inkscape:cx="40.625"
     inkscape:cy="20.375"
     inkscape:document-units="mm"
     inkscape:current-layer="layer1"
     showgrid="false"
     units="mm"
     inkscape:snap-bbox="true"
     inkscape:snap-page="true"
     inkscape:bbox-nodes="false"
     inkscape:snap-bbox-edge-midpoints="false"
     inkscape:window-width="1842"
     inkscape:window-height="1128"
     inkscape:window-x="2636"
     inkscape:window-y="0"
     inkscape:window-maximized="0"
     inkscape:snap-bbox-midpoints="true"
     inkscape:snap-nodes="false"
     inkscape:pagecheckerboard="0"
     width="15.24mm"
     showguides="false" />
  <metadata
     id="metadata5">
    <rdf:RDF>
      <cc:Work
         rdf:about="">
        <dc:format>image/svg+xml</dc:format>
        <dc:type
           rdf:resource="http://purl.org/dc/dcmitype/StillImage" />
      </cc:Work>
    </rdf:RDF>
  </metadata>
  <g
     inkscape:label="Layer 1"
     inkscape:groupmode="layer"
     id="layer1"
     transform="translate(0,-168.49998)">
    <g
       aria-label="16"
       id="text22973"
       style="font-weight:500;font-size:4px;line-height:1.25;font-family:'Gotham Rounded';-inkscape-font-specification:'Gotham Rounded Medium';letter-spacing:-0.0185208px;fill:#4d4d4d;stroke-width:0.264583">
      <path
         d="m 3.6752607,171.12398 c 0,0.14 0.112,0.244 0.244,0.244 0.14,0 0.244,-0.104 0.244,-0.244 v -2.368 c 0,-0.14 -0.104,-0.244 -0.244,-0.244 h -0.008 c -0.076,0 -0.144,0.016 -0.24,0.044 l -0.424,0.136 c -0.1,0.028 -0.164,0.104 -0.164,0.212 0,0.112 0.1,0.208 0.216,0.208 0.028,0 0.06,-0.004 0.088,-0.012 l 0.288,-0.088 z"
         id="path23535"
         style="fill:#4d4d4d" />
      <path
         d="m 5.8767395,171.39598 c 0.588,0 1.04,-0.392 1.04,-0.952 v -0.008 c 0,-0.56 -0.432,-0.88 -0.976,-0.88 -0.336,0 -0.52,0.14 -0.672,0.28 0.02,-0.512 0.256,-0.888 0.672,-0.888 0.188,0 0.324,0.056 0.48,0.156 0.036,0.02 0.08,0.036 0.124,0.036 0.128,0 0.236,-0.1 0.236,-0.228 0,-0.1 -0.048,-0.164 -0.124,-0.212 -0.188,-0.124 -0.412,-0.2 -0.7,-0.2 -0.792,0 -1.2,0.672 -1.2,1.524 v 0.008 c 0,0.564 0.128,0.856 0.34,1.068 0.188,0.188 0.432,0.296 0.78,0.296 z m -0.012,-0.428 c -0.352,0 -0.58,-0.212 -0.58,-0.5 v -0.008 c 0,-0.268 0.22,-0.492 0.568,-0.492 0.352,0 0.572,0.204 0.572,0.488 v 0.008 c 0,0.288 -0.208,0.504 -0.56,0.504 z"
         id="path23537"
         style="fill:#4d4d4d" />
    </g>
  </g>
  <g
     inkscape:groupmode="layer"
     id="layer2"
     inkscape:label="components" />
</svg>
