<?xml version="1.0" encoding="UTF-8" standalone="no"?>
<!-- Created with Inkscape (http://www.inkscape.org/) -->

<svg
   width="10mm"
   height="3mm"
   viewBox="0 0 10.000001 3.0000005"
   version="1.1"
   id="svg8"
   inkscape:version="1.1.2 (0a00cf5339, 2022-02-04)"
   sodipodi:docname="Number2.svg"
   xmlns:inkscape="http://www.inkscape.org/namespaces/inkscape"
   xmlns:sodipodi="http://sodipodi.sourceforge.net/DTD/sodipodi-0.dtd"
   xmlns="http://www.w3.org/2000/svg"
   xmlns:svg="http://www.w3.org/2000/svg"
   xmlns:rdf="http://www.w3.org/1999/02/22-rdf-syntax-ns#"
   xmlns:cc="http://creativecommons.org/ns#"
   xmlns:dc="http://purl.org/dc/elements/1.1/">
  <defs
     id="defs2">
    <rect
       x="18.951939"
       y="128.22154"
       width="2.9603796"
       height="26.149618"
       id="rect139664" />
    <rect
       x="30.793283"
       y="166.70589"
       width="10.854667"
       height="18.255398"
       id="rect64003" />
  </defs>
  <sodipodi:namedview
     id="base"
     pagecolor="#ffffff"
     bordercolor="#666666"
     borderopacity="1.0"
     inkscape:pageopacity="0.0"
     inkscape:pageshadow="2"
     inkscape:zoom="4"
     inkscape:cx="40.625"
     inkscape:cy="40.375"
     inkscape:document-units="mm"
     inkscape:current-layer="layer1"
     showgrid="false"
     units="mm"
     inkscape:snap-bbox="true"
     inkscape:snap-page="true"
     inkscape:bbox-nodes="false"
     inkscape:snap-bbox-edge-midpoints="false"
     inkscape:window-width="1842"
     inkscape:window-height="1128"
     inkscape:window-x="2636"
     inkscape:window-y="0"
     inkscape:window-maximized="0"
     inkscape:snap-bbox-midpoints="true"
     inkscape:snap-nodes="false"
     inkscape:pagecheckerboard="0"
     width="15.24mm"
     showguides="false" />
  <metadata
     id="metadata5">
    <rdf:RDF>
      <cc:Work
         rdf:about="">
        <dc:format>image/svg+xml</dc:format>
        <dc:type
           rdf:resource="http://purl.org/dc/dcmitype/StillImage" />
      </cc:Work>
    </rdf:RDF>
  </metadata>
  <g
     inkscape:label="Layer 1"
     inkscape:groupmode="layer"
     id="layer1"
     transform="translate(0,-168.49998)">
    <g
       aria-label="2"
       id="text10282"
       style="font-weight:500;font-size:4px;line-height:1.25;font-family:'Gotham Rounded';-inkscape-font-specification:'Gotham Rounded Medium';letter-spacing:-0.0185208px;fill:#4d4d4d;stroke-width:0.264583">
      <path
         d="m 3.7567132,171.10798 c 0,0.144 0.108,0.232 0.264,0.232 h 1.588 c 0.124,0 0.216,-0.092 0.216,-0.216 0,-0.124 -0.092,-0.216 -0.216,-0.216 h -1.136 l 0.576,-0.48 c 0.492,-0.408 0.728,-0.64 0.728,-1.084 v -0.008 c 0,-0.5 -0.38,-0.836 -0.924,-0.836 -0.436,0 -0.704,0.164 -0.928,0.452 -0.036,0.044 -0.056,0.096 -0.056,0.152 0,0.124 0.1,0.224 0.224,0.224 0.08,0 0.136,-0.032 0.172,-0.076 0.172,-0.208 0.328,-0.312 0.552,-0.312 0.256,0 0.452,0.16 0.452,0.436 0,0.252 -0.14,0.436 -0.524,0.756 l -0.86,0.732 c -0.084,0.068 -0.128,0.152 -0.128,0.244 z"
         id="path26342"
         style="fill:#4d4d4d" />
    </g>
  </g>
  <g
     inkscape:groupmode="layer"
     id="layer2"
     inkscape:label="components" />
</svg>
