<?xml version="1.0" encoding="UTF-8" standalone="no"?>
<!-- Created with Inkscape (http://www.inkscape.org/) -->

<svg
   width="10mm"
   height="3mm"
   viewBox="0 0 10.000001 3.0000005"
   version="1.1"
   id="svg8"
   inkscape:version="1.1.2 (0a00cf5339, 2022-02-04)"
   sodipodi:docname="Number9-dark.svg"
   xmlns:inkscape="http://www.inkscape.org/namespaces/inkscape"
   xmlns:sodipodi="http://sodipodi.sourceforge.net/DTD/sodipodi-0.dtd"
   xmlns="http://www.w3.org/2000/svg"
   xmlns:svg="http://www.w3.org/2000/svg"
   xmlns:rdf="http://www.w3.org/1999/02/22-rdf-syntax-ns#"
   xmlns:cc="http://creativecommons.org/ns#"
   xmlns:dc="http://purl.org/dc/elements/1.1/">
  <defs
     id="defs2">
    <rect
       x="18.951939"
       y="128.22154"
       width="2.9603796"
       height="26.149618"
       id="rect139664" />
    <rect
       x="30.793283"
       y="166.70589"
       width="10.854667"
       height="18.255398"
       id="rect64003" />
  </defs>
  <sodipodi:namedview
     id="base"
     pagecolor="#ffffff"
     bordercolor="#666666"
     borderopacity="1.0"
     inkscape:pageopacity="0.0"
     inkscape:pageshadow="2"
     inkscape:zoom="4"
     inkscape:cx="40.625"
     inkscape:cy="40.375"
     inkscape:document-units="mm"
     inkscape:current-layer="layer1"
     showgrid="false"
     units="mm"
     inkscape:snap-bbox="true"
     inkscape:snap-page="true"
     inkscape:bbox-nodes="false"
     inkscape:snap-bbox-edge-midpoints="false"
     inkscape:window-width="1842"
     inkscape:window-height="1128"
     inkscape:window-x="2636"
     inkscape:window-y="0"
     inkscape:window-maximized="0"
     inkscape:snap-bbox-midpoints="true"
     inkscape:snap-nodes="false"
     inkscape:pagecheckerboard="0"
     width="15.24mm"
     showguides="false" />
  <metadata
     id="metadata5">
    <rdf:RDF>
      <cc:Work
         rdf:about="">
        <dc:format>image/svg+xml</dc:format>
        <dc:type
           rdf:resource="http://purl.org/dc/dcmitype/StillImage" />
      </cc:Work>
    </rdf:RDF>
  </metadata>
  <g
     inkscape:label="Layer 1"
     inkscape:groupmode="layer"
     id="layer1"
     transform="translate(0,-168.49998)">
    <g
       aria-label="9"
       id="text9406"
       style="font-weight:500;font-size:4px;line-height:1.25;font-family:'Gotham Rounded';-inkscape-font-specification:'Gotham Rounded Medium';letter-spacing:-0.0185208px;fill:#e6e6e6;stroke-width:0.264583"
       transform="translate(6.8816891,-7.86151)">
      <path
         d="m -2.0016891,179.25749 c 0.752,0 1.20000004,-0.624 1.20000004,-1.524 v -0.008 c 0,-0.548 -0.132,-0.86 -0.33600004,-1.068 -0.204,-0.196 -0.428,-0.296 -0.78,-0.296 -0.62,0 -1.044,0.42 -1.044,0.968 v 0.008 c 0,0.544 0.4,0.888 0.992,0.888 0.304,0 0.516,-0.124 0.656,-0.296 -0.02,0.516 -0.26,0.88 -0.676,0.88 -0.192,0 -0.348,-0.056 -0.512,-0.172 -0.044,-0.028 -0.092,-0.04 -0.136,-0.04 -0.128,0 -0.232,0.096 -0.232,0.224 0,0.092 0.044,0.16 0.112,0.204 0.208,0.14 0.436,0.232 0.756,0.232 z m 0.104,-1.444 c -0.352,0 -0.572,-0.208 -0.572,-0.5 v -0.008 c 0,-0.288 0.208,-0.52 0.556,-0.52 0.356,0 0.584,0.224 0.584,0.516 v 0.008 c 0,0.272 -0.212,0.504 -0.568,0.504 z"
         id="path9862"
         style="fill:#e6e6e6" />
    </g>
  </g>
  <g
     inkscape:groupmode="layer"
     id="layer2"
     inkscape:label="components" />
</svg>
