<?xml version="1.0" encoding="UTF-8" standalone="no"?>
<!-- Created with Inkscape (http://www.inkscape.org/) -->

<svg
   width="10mm"
   height="3mm"
   viewBox="0 0 10.000001 3.0000005"
   version="1.1"
   id="svg8"
   inkscape:version="1.1.2 (0a00cf5339, 2022-02-04)"
   sodipodi:docname="Number15-dark.svg"
   xmlns:inkscape="http://www.inkscape.org/namespaces/inkscape"
   xmlns:sodipodi="http://sodipodi.sourceforge.net/DTD/sodipodi-0.dtd"
   xmlns="http://www.w3.org/2000/svg"
   xmlns:svg="http://www.w3.org/2000/svg"
   xmlns:rdf="http://www.w3.org/1999/02/22-rdf-syntax-ns#"
   xmlns:cc="http://creativecommons.org/ns#"
   xmlns:dc="http://purl.org/dc/elements/1.1/">
  <defs
     id="defs2">
    <rect
       x="18.951939"
       y="128.22154"
       width="2.9603796"
       height="26.149618"
       id="rect139664" />
    <rect
       x="30.793283"
       y="166.70589"
       width="10.854667"
       height="18.255398"
       id="rect64003" />
  </defs>
  <sodipodi:namedview
     id="base"
     pagecolor="#ffffff"
     bordercolor="#666666"
     borderopacity="1.0"
     inkscape:pageopacity="0.0"
     inkscape:pageshadow="2"
     inkscape:zoom="4"
     inkscape:cx="40.625"
     inkscape:cy="0.375"
     inkscape:document-units="mm"
     inkscape:current-layer="layer1"
     showgrid="false"
     units="mm"
     inkscape:snap-bbox="true"
     inkscape:snap-page="true"
     inkscape:bbox-nodes="false"
     inkscape:snap-bbox-edge-midpoints="false"
     inkscape:window-width="1842"
     inkscape:window-height="1128"
     inkscape:window-x="2636"
     inkscape:window-y="0"
     inkscape:window-maximized="0"
     inkscape:snap-bbox-midpoints="true"
     inkscape:snap-nodes="false"
     inkscape:pagecheckerboard="0"
     width="15.24mm"
     showguides="false" />
  <metadata
     id="metadata5">
    <rdf:RDF>
      <cc:Work
         rdf:about="">
        <dc:format>image/svg+xml</dc:format>
        <dc:type
           rdf:resource="http://purl.org/dc/dcmitype/StillImage" />
      </cc:Work>
    </rdf:RDF>
  </metadata>
  <g
     inkscape:label="Layer 1"
     inkscape:groupmode="layer"
     id="layer1"
     transform="translate(0,-168.49998)">
    <g
       aria-label="15"
       id="text21593"
       style="font-weight:500;font-size:4px;line-height:1.25;font-family:'Gotham Rounded';-inkscape-font-specification:'Gotham Rounded Medium';letter-spacing:-0.0185208px;fill:#e6e6e6;stroke-width:0.264583">
      <path
         d="m 3.7412606,171.11198 c 0,0.14 0.112,0.244 0.244,0.244 0.14,0 0.244,-0.104 0.244,-0.244 v -2.368 c 0,-0.14 -0.104,-0.244 -0.244,-0.244 h -0.008 c -0.076,0 -0.144,0.016 -0.24,0.044 l -0.424,0.136 c -0.1,0.028 -0.164,0.104 -0.164,0.212 0,0.112 0.1,0.208 0.216,0.208 0.028,0 0.06,-0.004 0.088,-0.012 l 0.288,-0.088 z"
         id="path22155"
         style="fill:#e6e6e6" />
      <path
         d="m 5.8267394,171.38398 c 0.596,0 1.024,-0.38 1.024,-0.948 v -0.008 c 0,-0.592 -0.432,-0.88 -0.976,-0.88 -0.188,0 -0.312,0.032 -0.444,0.08 l 0.044,-0.656 h 1.052 c 0.124,0 0.22,-0.092 0.22,-0.216 0,-0.124 -0.096,-0.22 -0.22,-0.22 h -1.268 c -0.124,0 -0.212,0.092 -0.224,0.22 l -0.06,1.008 c -0.004,0.096 0.028,0.168 0.096,0.216 0.096,0.068 0.156,0.096 0.232,0.096 0.076,0 0.208,-0.096 0.48,-0.096 0.34,0 0.58,0.176 0.58,0.464 v 0.008 c 0,0.3 -0.224,0.484 -0.544,0.484 -0.224,0 -0.416,-0.08 -0.608,-0.236 -0.04,-0.032 -0.088,-0.048 -0.144,-0.048 -0.128,0 -0.236,0.108 -0.236,0.236 0,0.08 0.04,0.144 0.1,0.192 0.228,0.176 0.512,0.304 0.896,0.304 z"
         id="path22157"
         style="fill:#e6e6e6" />
    </g>
  </g>
  <g
     inkscape:groupmode="layer"
     id="layer2"
     inkscape:label="components" />
</svg>
