<?xml version="1.0" encoding="UTF-8" standalone="no"?>
<!-- Created with Inkscape (http://www.inkscape.org/) -->

<svg
   width="81.279999mm"
   height="128.5mm"
   viewBox="0 0 81.28 128.50002"
   version="1.1"
   id="svg8"
   inkscape:version="1.1.2 (0a00cf5339, 2022-02-04)"
   sodipodi:docname="Rotary-dark.svg"
   xmlns:inkscape="http://www.inkscape.org/namespaces/inkscape"
   xmlns:sodipodi="http://sodipodi.sourceforge.net/DTD/sodipodi-0.dtd"
   xmlns="http://www.w3.org/2000/svg"
   xmlns:svg="http://www.w3.org/2000/svg"
   xmlns:rdf="http://www.w3.org/1999/02/22-rdf-syntax-ns#"
   xmlns:cc="http://creativecommons.org/ns#"
   xmlns:dc="http://purl.org/dc/elements/1.1/">
  <defs
     id="defs2">
    <rect
       x="18.951939"
       y="128.22154"
       width="2.9603796"
       height="26.149618"
       id="rect139664" />
    <rect
       x="30.793283"
       y="166.70589"
       width="10.854667"
       height="18.255398"
       id="rect64003" />
  </defs>
  <sodipodi:namedview
     id="base"
     pagecolor="#ffffff"
     bordercolor="#666666"
     borderopacity="1.0"
     inkscape:pageopacity="0.0"
     inkscape:pageshadow="2"
     inkscape:zoom="1.2659143"
     inkscape:cx="180.50195"
     inkscape:cy="313.21236"
     inkscape:document-units="mm"
     inkscape:current-layer="layer1"
     showgrid="false"
     units="mm"
     inkscape:snap-bbox="true"
     inkscape:snap-page="true"
     inkscape:bbox-nodes="false"
     inkscape:snap-bbox-edge-midpoints="false"
     inkscape:window-width="1842"
     inkscape:window-height="1128"
     inkscape:window-x="2628"
     inkscape:window-y="0"
     inkscape:window-maximized="0"
     inkscape:snap-bbox-midpoints="true"
     inkscape:snap-nodes="false"
     inkscape:pagecheckerboard="0"
     width="81.28mm"
     showguides="false" />
  <metadata
     id="metadata5">
    <rdf:RDF>
      <cc:Work
         rdf:about="">
        <dc:format>image/svg+xml</dc:format>
        <dc:type
           rdf:resource="http://purl.org/dc/dcmitype/StillImage" />
      </cc:Work>
    </rdf:RDF>
  </metadata>
  <g
     inkscape:label="Layer 1"
     inkscape:groupmode="layer"
     id="layer1"
     transform="translate(0,-168.49998)">
    <rect
       style="display:inline;opacity:1;vector-effect:none;fill:#2c2c24;fill-opacity:1;fill-rule:evenodd;stroke:none;stroke-width:1.06039;stroke-linecap:butt;stroke-linejoin:miter;stroke-miterlimit:4;stroke-dasharray:none;stroke-dashoffset:0;stroke-opacity:1;paint-order:normal"
       id="rect420"
       width="81.279999"
       height="128.5"
       x="5.9211732e-17"
       y="168.49998"
       sodipodi:insensitive="true" />
    <rect
       style="fill:#848483;fill-opacity:1;stroke-width:0"
       id="rect206661"
       width="9.3199997"
       height="23"
       x="69.540001"
       y="264.49997"
       ry="1.8226306" />
    <g
       aria-label="P"
       id="text41381"
       style="font-weight:bold;font-size:12.2835px;line-height:1.25;font-family:'Gotham Rounded';-inkscape-font-specification:'Gotham Rounded Bold';letter-spacing:-0.07px;fill:#999999;fill-opacity:1"
       transform="matrix(0.33379305,0,0,0.33379305,15.38955,172.06849)">
      <path
         id="path44464"
         d="m 75.468978,363.37891 c 0,0.52819 0.417639,0.94583 0.94583,0.94583 0.52819,0 0.945829,-0.41764 0.945829,-0.94583 v -1.70741 h 1.43717 c 1.928509,0 3.47623,-1.01953 3.47623,-3.02174 v -0.0246 c 0,-1.76882 -1.240633,-2.9726 -3.291978,-2.9726 h -2.567251 c -0.528191,0 -0.94583,0.41764 -0.94583,0.94583 z m 1.891659,-3.39025 v -2.62867 h 1.461737 c 0.945829,0 1.535437,0.45449 1.535437,1.30206 v 0.0246 c 0,0.73701 -0.552757,1.30205 -1.498587,1.30205 z m -3.820309,0.71391 c 1.289767,0 2.309298,-0.42992 3.009457,-0.85985 0.442206,-0.25795 0.663309,-0.6633 0.663309,-1.20378 v -2.08819 c 0,-0.52819 -0.417639,-0.94583 -0.945829,-0.94583 h -2.161896 c -0.454489,0 -0.822994,0.3685 -0.822994,0.82299 0,0.45449 0.368505,0.81071 0.822994,0.81071 h 1.277484 v 1.22835 c -0.479057,0.34394 -1.080948,0.51591 -1.781107,0.51591 -1.523154,0 -2.604102,-1.15465 -2.604102,-2.72694 v -0.0246 c 0,-1.46173 1.093231,-2.6778 2.468983,-2.6778 0.822994,0 1.351185,0.20882 1.879375,0.58961 0.135119,0.0983 0.294804,0.19653 0.577325,0.19653 0.52819,0 0.933546,-0.40535 0.933546,-0.93354 0,-0.38079 -0.20882,-0.62646 -0.393072,-0.76158 -0.786144,-0.54047 -1.621422,-0.83528 -2.935756,-0.83528 -2.604102,0 -4.508045,2.00221 -4.508045,4.44663 v 0.0246 c 0,2.55497 1.842525,4.42206 4.520328,4.42206 z"
         style="fill:#999999;fill-opacity:1" />
    </g>
    <rect
       style="fill:#50504e;fill-opacity:1;stroke-width:0"
       id="rect206661-5"
       width="9.3199997"
       height="14"
       x="2.4200001"
       y="273.49997"
       ry="1.1094273" />
    <g
       aria-label="IN"
       id="text92668"
       style="font-size:2.5px;line-height:1.25;font-family:'Gotham Rounded';-inkscape-font-specification:'Gotham Rounded';letter-spacing:-0.0185208px;fill:#ffffff;fill-opacity:1;stroke-width:0.264583"
       transform="translate(1.9997372,10)">
      <path
         d="m 3.9942628,267.17498 c 0,0.0575 0.045,0.1 0.0975,0.1 0.0575,0 0.1,-0.0425 0.1,-0.1 v -1.575 c 0,-0.0575 -0.0425,-0.1 -0.1,-0.1 -0.0525,0 -0.0975,0.0425 -0.0975,0.1 z"
         id="path100575"
         style="fill:#ffffff;fill-opacity:1" />
      <path
         d="m 4.6857382,267.17748 c 0,0.0525 0.0425,0.0975 0.095,0.0975 0.0575,0 0.0975,-0.045 0.0975,-0.0975 v -1.355 l 1.085,1.3875 c 0.03,0.0375 0.06,0.06 0.1025,0.06 h 0.01 c 0.0525,0 0.09,-0.04 0.09,-0.0925 v -1.58 c 0,-0.0525 -0.0425,-0.0975 -0.095,-0.0975 -0.0575,0 -0.0975,0.045 -0.0975,0.0975 v 1.32 l -1.0625,-1.355 c -0.0275,-0.0375 -0.0525,-0.0575 -0.1,-0.0575 h -0.0275 c -0.0525,0 -0.0975,0.045 -0.0975,0.0975 z"
         id="path100577"
         style="fill:#ffffff;fill-opacity:1" />
    </g>
    <g
       aria-label="OUT"
       id="text94586"
       style="font-size:2.5px;line-height:1.25;font-family:'Gotham Rounded';-inkscape-font-specification:'Gotham Rounded';letter-spacing:-0.0185208px;fill:#000000;fill-opacity:1;stroke-width:0.264583"
       transform="translate(33.559998,1.00001)">
      <path
         d="m 38.867274,267.30997 c 0.5325,0 0.895,-0.4225 0.895,-0.905 v -0.005 c 0,-0.4825 -0.3575,-0.9 -0.89,-0.9 -0.5325,0 -0.895,0.4225 -0.895,0.905 v 0.005 c 0,0.4825 0.3575,0.9 0.89,0.9 z m 0.005,-0.1825 c -0.4,0 -0.69,-0.325 -0.69,-0.7225 v -0.005 c 0,-0.3975 0.285,-0.7175 0.685,-0.7175 0.4,0 0.69,0.325 0.69,0.7225 v 0.005 c 0,0.3975 -0.285,0.7175 -0.685,0.7175 z"
         id="path100637"
         style="fill:#000000;fill-opacity:1" />
      <path
         d="m 40.861249,267.30747 c 0.4375,0 0.73,-0.2625 0.73,-0.775 v -0.915 c 0,-0.0575 -0.045,-0.1 -0.0975,-0.1 -0.0575,0 -0.1,0.0425 -0.1,0.1 v 0.93 c 0,0.3825 -0.205,0.5775 -0.5275,0.5775 -0.3325,0 -0.535,-0.21 -0.535,-0.59 v -0.9175 c 0,-0.0575 -0.0425,-0.1 -0.1,-0.1 -0.0525,0 -0.0975,0.0425 -0.0975,0.1 v 0.93 c 0,0.495 0.295,0.76 0.7275,0.76 z"
         id="path100639"
         style="fill:#000000;fill-opacity:1" />
      <path
         d="m 42.502726,267.19247 c 0,0.0575 0.0425,0.1 0.1,0.1 0.0575,0 0.1,-0.0425 0.1,-0.1 v -1.48 h 0.5075 c 0.05,0 0.0925,-0.04 0.0925,-0.09 0,-0.05 -0.0425,-0.0925 -0.0925,-0.0925 h -1.215 c -0.05,0 -0.0925,0.0425 -0.0925,0.0925 0,0.05 0.0425,0.09 0.0925,0.09 h 0.5075 z"
         id="path100641"
         style="fill:#000000;fill-opacity:1" />
    </g>
    <g
       aria-label="FAST"
       id="text11319"
       style="font-size:2.5px;line-height:1.25;font-family:'Gotham Rounded';-inkscape-font-specification:'Gotham Rounded';letter-spacing:-0.0185208px;fill:#f2f2f2;fill-opacity:1;stroke-width:0.264583"
       transform="translate(-3.283862,-24.82297)">
      <path
         d="m 43.783862,213.11045 c 0,0.0575 0.045,0.1 0.0975,0.1 0.0575,0 0.1,-0.0425 0.1,-0.1 v -0.675 h 0.87 c 0.05,0 0.09,-0.04 0.09,-0.09 0,-0.05 -0.04,-0.09 -0.09,-0.09 h -0.87 v -0.625 h 0.9825 c 0.05,0 0.09,-0.0425 0.09,-0.0925 0,-0.05 -0.04,-0.09 -0.09,-0.09 h -1.0825 c -0.0525,0 -0.0975,0.0425 -0.0975,0.1 z"
         id="path20279"
         style="fill:#f2f2f2;fill-opacity:1" />
      <path
         d="m 45.095336,213.12045 c 0,0.05 0.04,0.09 0.09,0.09 0.045,0 0.0775,-0.0225 0.095,-0.0675 l 0.1825,-0.4075 h 0.96 l 0.1825,0.4025 c 0.0175,0.04 0.05,0.0725 0.0975,0.0725 0.0525,0 0.095,-0.0425 0.095,-0.095 0,-0.0125 -0.005,-0.03 -0.0125,-0.05 l -0.71,-1.55 c -0.0225,-0.0575 -0.065,-0.0875 -0.1225,-0.0875 h -0.01 c -0.0625,0 -0.0975,0.03 -0.125,0.0875 l -0.71,1.5525 c -0.0075,0.0175 -0.0125,0.035 -0.0125,0.0525 z m 0.445,-0.565 0.4025,-0.895 0.4025,0.895 z"
         id="path20281"
         style="fill:#f2f2f2;fill-opacity:1" />
      <path
         d="m 47.726809,213.22295 c 0.3475,0 0.5975,-0.195 0.5975,-0.495 v -0.005 c 0,-0.2675 -0.18,-0.4075 -0.57,-0.495 -0.3875,-0.08 -0.475,-0.175 -0.475,-0.34 v -0.005 c 0,-0.16 0.1425,-0.2825 0.3725,-0.2825 0.1625,0 0.3025,0.045 0.4525,0.1525 0.0175,0.0125 0.035,0.0175 0.0575,0.0175 0.0525,0 0.095,-0.0425 0.095,-0.095 0,-0.0375 -0.0225,-0.0625 -0.0425,-0.08 -0.16,-0.1175 -0.3275,-0.1725 -0.5575,-0.1725 -0.3325,0 -0.575,0.205 -0.575,0.4775 v 0.005 c 0,0.2875 0.185,0.4175 0.5875,0.505 0.3675,0.08 0.455,0.17 0.455,0.3325 v 0.005 c 0,0.1725 -0.1525,0.2975 -0.39,0.2975 -0.2225,0 -0.385,-0.0675 -0.5525,-0.2075 -0.015,-0.015 -0.035,-0.0225 -0.06,-0.0225 -0.0525,0 -0.095,0.04 -0.095,0.0975 0,0.0325 0.0125,0.0575 0.0375,0.075 0.1975,0.1575 0.405,0.235 0.6625,0.235 z"
         id="path20283"
         style="fill:#f2f2f2;fill-opacity:1" />
      <path
         d="m 49.133283,213.11045 c 0,0.0575 0.0425,0.1 0.1,0.1 0.0575,0 0.1,-0.0425 0.1,-0.1 v -1.48 h 0.5075 c 0.05,0 0.0925,-0.04 0.0925,-0.09 0,-0.05 -0.0425,-0.0925 -0.0925,-0.0925 h -1.215 c -0.05,0 -0.0925,0.0425 -0.0925,0.0925 0,0.05 0.0425,0.09 0.0925,0.09 h 0.5075 z"
         id="path20285"
         style="fill:#f2f2f2;fill-opacity:1" />
    </g>
    <g
       aria-label="SLOW"
       id="text23665"
       style="font-size:2.5px;line-height:1.25;font-family:'Gotham Rounded';-inkscape-font-specification:'Gotham Rounded';letter-spacing:-0.0185208px;fill:#f2f2f2;stroke-width:0.264583"
       transform="translate(-21.405483,1.00401)">
      <path
         d="m 60.634483,197.40497 c 0.3475,0 0.5975,-0.195 0.5975,-0.495 v -0.005 c 0,-0.2675 -0.18,-0.4075 -0.57,-0.495 -0.3875,-0.08 -0.475,-0.175 -0.475,-0.34 v -0.005 c 0,-0.16 0.1425,-0.2825 0.3725,-0.2825 0.1625,0 0.3025,0.045 0.4525,0.1525 0.0175,0.0125 0.035,0.0175 0.0575,0.0175 0.0525,0 0.095,-0.0425 0.095,-0.095 0,-0.0375 -0.0225,-0.0625 -0.0425,-0.08 -0.16,-0.1175 -0.3275,-0.1725 -0.5575,-0.1725 -0.3325,0 -0.575,0.205 -0.575,0.4775 v 0.005 c 0,0.2875 0.185,0.4175 0.5875,0.505 0.3675,0.08 0.455,0.17 0.455,0.3325 v 0.005 c 0,0.1725 -0.1525,0.2975 -0.39,0.2975 -0.2225,0 -0.385,-0.0675 -0.5525,-0.2075 -0.015,-0.015 -0.035,-0.0225 -0.06,-0.0225 -0.0525,0 -0.095,0.04 -0.095,0.0975 0,0.0325 0.0125,0.0575 0.0375,0.075 0.1975,0.1575 0.405,0.235 0.6625,0.235 z"
         id="path35626" />
      <path
         d="m 61.615961,197.27997 c 0,0.0575 0.045,0.1 0.0975,0.1 h 1.0075 c 0.05,0 0.09,-0.04 0.09,-0.09 0,-0.05 -0.04,-0.0925 -0.09,-0.0925 h -0.9075 v -1.48 c 0,-0.0575 -0.0425,-0.1 -0.1,-0.1 -0.0525,0 -0.0975,0.0425 -0.0975,0.1 z"
         id="path35628" />
      <path
         d="m 63.857437,197.40997 c 0.5325,0 0.895,-0.4225 0.895,-0.905 v -0.005 c 0,-0.4825 -0.3575,-0.9 -0.89,-0.9 -0.5325,0 -0.895,0.4225 -0.895,0.905 v 0.005 c 0,0.4825 0.3575,0.9 0.89,0.9 z m 0.005,-0.1825 c -0.4,0 -0.69,-0.325 -0.69,-0.7225 v -0.005 c 0,-0.3975 0.285,-0.7175 0.685,-0.7175 0.4,0 0.69,0.325 0.69,0.7225 v 0.005 c 0,0.3975 -0.285,0.7175 -0.685,0.7175 z"
         id="path35630" />
      <path
         d="m 65.528912,197.31747 c 0.0175,0.0575 0.0525,0.085 0.1025,0.085 h 0.015 c 0.05,0 0.085,-0.035 0.1025,-0.085 l 0.4525,-1.345 0.455,1.345 c 0.0175,0.05 0.0525,0.085 0.1025,0.085 h 0.015 c 0.05,0 0.085,-0.035 0.1025,-0.085 l 0.56,-1.555 c 0.0075,-0.0175 0.0125,-0.03 0.0125,-0.0475 0,-0.05 -0.0475,-0.0975 -0.1,-0.0975 -0.0475,0 -0.0775,0.03 -0.095,0.0775 l -0.485,1.395 -0.4575,-1.395 c -0.0175,-0.0475 -0.0475,-0.0775 -0.0975,-0.0775 h -0.0125 c -0.0525,0 -0.08,0.03 -0.0975,0.0775 l -0.4575,1.395 -0.4825,-1.39 c -0.0175,-0.0475 -0.0525,-0.0825 -0.1025,-0.0825 -0.0575,0 -0.1025,0.0475 -0.1025,0.1 0,0.0175 0.0025,0.0275 0.01,0.045 z"
         id="path35632" />
    </g>
    <g
       aria-label="TREBLE"
       id="text68001"
       style="font-weight:500;font-size:3.25001px;line-height:1.25;font-family:'Gotham Rounded';-inkscape-font-specification:'Gotham Rounded Medium';letter-spacing:-0.0185208px;fill:#f2f2f2;fill-opacity:1;stroke-width:0.264583"
       transform="translate(1.5000002,-0.046)">
      <path
         d="m 3.7377522,188.45524 c 0,0.11375 0.08775,0.19825 0.2015006,0.19825 0.1137503,0 0.2015006,-0.0845 0.2015006,-0.19825 v -1.72251 h 0.5557517 c 0.1007503,0 0.1820006,-0.0845 0.1820006,-0.18525 0,-0.10075 -0.08125,-0.18525 -0.1820006,-0.18525 H 3.1852505 c -0.1040004,0 -0.1852506,0.0845 -0.1852506,0.18525 0,0.10075 0.08125,0.18525 0.1852506,0.18525 h 0.5525017 z"
         id="path80761"
         style="fill:#f2f2f2;fill-opacity:1" />
      <path
         d="m 5.2662322,188.45524 c 0,0.11375 0.08775,0.19825 0.2015006,0.19825 0.1137504,0 0.1982506,-0.0845 0.1982506,-0.19825 v -0.611 H 6.169735 l 0.5525017,0.70525 c 0.04875,0.0618 0.1040003,0.104 0.1950006,0.104 0.1007503,0 0.1917506,-0.0715 0.1917506,-0.18525 0,-0.0618 -0.026,-0.104 -0.065,-0.15275 l -0.4355014,-0.54926 c 0.305501,-0.0975 0.5167516,-0.312 0.5167516,-0.67925 v -0.007 c 0,-0.19825 -0.06825,-0.364 -0.1885006,-0.49075 -0.1462504,-0.143 -0.3705011,-0.2275 -0.656502,-0.2275 H 5.4677328 c -0.1137503,0 -0.2015006,0.0877 -0.2015006,0.2015 z m 0.3997512,-0.96526 v -0.76375 h 0.5817518 c 0.2990009,0 0.4712515,0.13 0.4712515,0.377 v 0.007 c 0,0.234 -0.1820006,0.38025 -0.4680015,0.38025 z"
         id="path80763"
         style="fill:#f2f2f2;fill-opacity:1" />
      <path
         d="m 9.1379721,188.63724 c 0.1007503,0 0.1787505,-0.078 0.1787505,-0.17875 0,-0.10075 -0.078,-0.17875 -0.1787505,-0.17875 H 7.9972186 v -0.61101 h 0.978253 c 0.1007503,0 0.1787505,-0.0748 0.1787505,-0.1755 0,-0.10075 -0.078,-0.182 -0.1787505,-0.182 h -0.978253 v -0.5915 H 9.121722 c 0.1007504,0 0.1787506,-0.078 0.1787506,-0.17875 0,-0.10075 -0.078,-0.17875 -0.1787506,-0.17875 H 7.798968 c -0.1137504,0 -0.2015006,0.0877 -0.2015006,0.2015 v 1.87201 c 0,0.11375 0.08775,0.2015 0.2015006,0.2015 z"
         id="path80765"
         style="fill:#f2f2f2;fill-opacity:1" />
      <path
         d="m 9.7564472,188.43574 c 0,0.11375 0.08775,0.2015 0.2015007,0.2015 H 10.80945 c 0.507002,0 0.841753,-0.21775 0.841753,-0.624 v -0.006 c 0,-0.31201 -0.182,-0.45826 -0.451751,-0.55251 0.169,-0.0877 0.325001,-0.23075 0.325001,-0.507 v -0.006 c 0,-0.1495 -0.052,-0.27625 -0.152751,-0.377 -0.13325,-0.13325 -0.331501,-0.2015 -0.594752,-0.2015 H 9.9579479 c -0.1137504,0 -0.2015007,0.0877 -0.2015007,0.2015 z m 0.3932508,-1.11476 v -0.6045 h 0.575252 c 0.260001,0 0.399751,0.10725 0.399751,0.28925 v 0.006 c 0,0.208 -0.169,0.30875 -0.429001,0.30875 z m 0,0.96201 v -0.62401 h 0.633752 c 0.315251,0 0.468002,0.1105 0.468002,0.30551 v 0.006 c 0,0.208 -0.165751,0.312 -0.438752,0.312 z"
         id="path80767"
         style="fill:#f2f2f2;fill-opacity:1" />
      <path
         d="m 12.084427,188.43574 c 0,0.11375 0.08775,0.2015 0.201501,0.2015 h 1.228504 c 0.10075,0 0.182,-0.0812 0.182,-0.182 0,-0.10075 -0.08125,-0.182 -0.182,-0.182 h -1.030253 v -1.72901 c 0,-0.11375 -0.0845,-0.19825 -0.198251,-0.19825 -0.11375,0 -0.201501,0.0845 -0.201501,0.19825 z"
         id="path80769"
         style="fill:#f2f2f2;fill-opacity:1" />
      <path
         d="m 15.618166,188.63724 c 0.10075,0 0.17875,-0.078 0.17875,-0.17875 0,-0.10075 -0.078,-0.17875 -0.17875,-0.17875 h -1.140754 v -0.61101 h 0.978253 c 0.100751,0 0.178751,-0.0748 0.178751,-0.1755 0,-0.10075 -0.078,-0.182 -0.178751,-0.182 h -0.978253 v -0.5915 h 1.124504 c 0.10075,0 0.17875,-0.078 0.17875,-0.17875 0,-0.10075 -0.078,-0.17875 -0.17875,-0.17875 h -1.322754 c -0.113751,0 -0.201501,0.0877 -0.201501,0.2015 v 1.87201 c 0,0.11375 0.08775,0.2015 0.201501,0.2015 z"
         id="path80771"
         style="fill:#f2f2f2;fill-opacity:1" />
    </g>
    <g
       aria-label="DOUBLE"
       id="text86745"
       style="font-size:2.5px;line-height:1.25;font-family:'Gotham Rounded';-inkscape-font-specification:'Gotham Rounded';letter-spacing:-0.0185208px;fill:#f2f2f2;fill-opacity:1;stroke-width:0.264583"
       transform="translate(41.499999,0.03875)">
      <path
         d="m 26.000001,188.27123 c 0,0.0575 0.045,0.1 0.0975,0.1 h 0.51 c 0.55,0 0.93,-0.3825 0.93,-0.875 v -0.005 c 0,-0.4925 -0.38,-0.87 -0.93,-0.87 h -0.51 c -0.0525,0 -0.0975,0.0425 -0.0975,0.1 z m 0.1975,-0.0825 v -1.385 h 0.41 c 0.4425,0 0.725,0.305 0.725,0.6925 v 0.005 c 0,0.39 -0.2825,0.6875 -0.725,0.6875 z"
         id="path93110"
         style="fill:#f2f2f2;fill-opacity:1" />
      <path
         d="m 28.748979,188.40123 c 0.5325,0 0.895,-0.4225 0.895,-0.905 v -0.005 c 0,-0.4825 -0.3575,-0.9 -0.89,-0.9 -0.5325,0 -0.895,0.4225 -0.895,0.905 v 0.005 c 0,0.4825 0.3575,0.9 0.89,0.9 z m 0.005,-0.1825 c -0.4,0 -0.69,-0.325 -0.69,-0.7225 v -0.005 c 0,-0.3975 0.285,-0.7175 0.685,-0.7175 0.4,0 0.69,0.325 0.69,0.7225 v 0.005 c 0,0.3975 -0.285,0.7175 -0.685,0.7175 z"
         id="path93112"
         style="fill:#f2f2f2;fill-opacity:1" />
      <path
         d="m 30.742954,188.39873 c 0.4375,0 0.73,-0.2625 0.73,-0.775 v -0.915 c 0,-0.0575 -0.045,-0.1 -0.0975,-0.1 -0.0575,0 -0.1,0.0425 -0.1,0.1 v 0.93 c 0,0.3825 -0.205,0.5775 -0.5275,0.5775 -0.3325,0 -0.535,-0.21 -0.535,-0.59 v -0.9175 c 0,-0.0575 -0.0425,-0.1 -0.1,-0.1 -0.0525,0 -0.0975,0.0425 -0.0975,0.1 v 0.93 c 0,0.495 0.295,0.76 0.7275,0.76 z"
         id="path93114"
         style="fill:#f2f2f2;fill-opacity:1" />
      <path
         d="m 31.92193,188.27123 c 0,0.0575 0.045,0.1 0.0975,0.1 h 0.68 c 0.3825,0 0.635,-0.1775 0.635,-0.4775 v -0.005 c 0,-0.2375 -0.1675,-0.3625 -0.375,-0.4225 0.1375,-0.06 0.2775,-0.1775 0.2775,-0.405 v -0.005 c 0,-0.1075 -0.0375,-0.2025 -0.1125,-0.28 -0.1,-0.0975 -0.2575,-0.155 -0.4575,-0.155 h -0.6475 c -0.0525,0 -0.0975,0.0425 -0.0975,0.1 z m 0.195,-0.87 v -0.6025 h 0.5325 c 0.25,0 0.3875,0.1125 0.3875,0.285 v 0.005 c 0,0.2075 -0.1625,0.3125 -0.4025,0.3125 z m 0,0.7925 v -0.6175 h 0.5525 c 0.3075,0 0.465,0.11 0.465,0.3 v 0.005 c 0,0.1975 -0.1625,0.3125 -0.43,0.3125 z"
         id="path93116"
         style="fill:#f2f2f2;fill-opacity:1" />
      <path
         d="m 33.708405,188.27123 c 0,0.0575 0.045,0.1 0.0975,0.1 h 1.0075 c 0.05,0 0.09,-0.04 0.09,-0.09 0,-0.05 -0.04,-0.0925 -0.09,-0.0925 h -0.9075 v -1.48 c 0,-0.0575 -0.0425,-0.1 -0.1,-0.1 -0.0525,0 -0.0975,0.0425 -0.0975,0.1 z"
         id="path93118"
         style="fill:#f2f2f2;fill-opacity:1" />
      <path
         d="m 36.434883,188.37123 c 0.05,0 0.09,-0.04 0.09,-0.09 0,-0.05 -0.04,-0.09 -0.09,-0.09 h -1 v -0.6125 h 0.875 c 0.05,0 0.09,-0.04 0.09,-0.09 0,-0.0475 -0.04,-0.09 -0.09,-0.09 h -0.875 v -0.5975 h 0.9875 c 0.05,0 0.09,-0.04 0.09,-0.09 0,-0.05 -0.04,-0.09 -0.09,-0.09 h -1.0875 c -0.0525,0 -0.0975,0.0425 -0.0975,0.1 v 1.55 c 0,0.0575 0.045,0.1 0.0975,0.1 z"
         id="path93120"
         style="fill:#f2f2f2;fill-opacity:1" />
    </g>
    <g
       aria-label="FAST"
       id="text11319-7"
       style="font-size:2.5px;line-height:1.25;font-family:'Gotham Rounded';-inkscape-font-specification:'Gotham Rounded';letter-spacing:-0.0185208px;fill:#f2f2f2;fill-opacity:1;stroke-width:0.264583"
       transform="translate(-3.283862,2.1770296)">
      <path
         d="m 43.783862,213.11045 c 0,0.0575 0.045,0.1 0.0975,0.1 0.0575,0 0.1,-0.0425 0.1,-0.1 v -0.675 h 0.87 c 0.05,0 0.09,-0.04 0.09,-0.09 0,-0.05 -0.04,-0.09 -0.09,-0.09 h -0.87 v -0.625 h 0.9825 c 0.05,0 0.09,-0.0425 0.09,-0.0925 0,-0.05 -0.04,-0.09 -0.09,-0.09 h -1.0825 c -0.0525,0 -0.0975,0.0425 -0.0975,0.1 z"
         id="path20279-9"
         style="fill:#f2f2f2;fill-opacity:1" />
      <path
         d="m 45.095336,213.12045 c 0,0.05 0.04,0.09 0.09,0.09 0.045,0 0.0775,-0.0225 0.095,-0.0675 l 0.1825,-0.4075 h 0.96 l 0.1825,0.4025 c 0.0175,0.04 0.05,0.0725 0.0975,0.0725 0.0525,0 0.095,-0.0425 0.095,-0.095 0,-0.0125 -0.005,-0.03 -0.0125,-0.05 l -0.71,-1.55 c -0.0225,-0.0575 -0.065,-0.0875 -0.1225,-0.0875 h -0.01 c -0.0625,0 -0.0975,0.03 -0.125,0.0875 l -0.71,1.5525 c -0.0075,0.0175 -0.0125,0.035 -0.0125,0.0525 z m 0.445,-0.565 0.4025,-0.895 0.4025,0.895 z"
         id="path20281-2"
         style="fill:#f2f2f2;fill-opacity:1" />
      <path
         d="m 47.726809,213.22295 c 0.3475,0 0.5975,-0.195 0.5975,-0.495 v -0.005 c 0,-0.2675 -0.18,-0.4075 -0.57,-0.495 -0.3875,-0.08 -0.475,-0.175 -0.475,-0.34 v -0.005 c 0,-0.16 0.1425,-0.2825 0.3725,-0.2825 0.1625,0 0.3025,0.045 0.4525,0.1525 0.0175,0.0125 0.035,0.0175 0.0575,0.0175 0.0525,0 0.095,-0.0425 0.095,-0.095 0,-0.0375 -0.0225,-0.0625 -0.0425,-0.08 -0.16,-0.1175 -0.3275,-0.1725 -0.5575,-0.1725 -0.3325,0 -0.575,0.205 -0.575,0.4775 v 0.005 c 0,0.2875 0.185,0.4175 0.5875,0.505 0.3675,0.08 0.455,0.17 0.455,0.3325 v 0.005 c 0,0.1725 -0.1525,0.2975 -0.39,0.2975 -0.2225,0 -0.385,-0.0675 -0.5525,-0.2075 -0.015,-0.015 -0.035,-0.0225 -0.06,-0.0225 -0.0525,0 -0.095,0.04 -0.095,0.0975 0,0.0325 0.0125,0.0575 0.0375,0.075 0.1975,0.1575 0.405,0.235 0.6625,0.235 z"
         id="path20283-0"
         style="fill:#f2f2f2;fill-opacity:1" />
      <path
         d="m 49.133283,213.11045 c 0,0.0575 0.0425,0.1 0.1,0.1 0.0575,0 0.1,-0.0425 0.1,-0.1 v -1.48 h 0.5075 c 0.05,0 0.0925,-0.04 0.0925,-0.09 0,-0.05 -0.0425,-0.0925 -0.0925,-0.0925 h -1.215 c -0.05,0 -0.0925,0.0425 -0.0925,0.0925 0,0.05 0.0425,0.09 0.0925,0.09 h 0.5075 z"
         id="path20285-2"
         style="fill:#f2f2f2;fill-opacity:1" />
    </g>
    <g
       aria-label="SLOW"
       id="text23665-3"
       style="font-size:2.5px;line-height:1.25;font-family:'Gotham Rounded';-inkscape-font-specification:'Gotham Rounded';letter-spacing:-0.0185208px;fill:#f2f2f2;stroke-width:0.264583"
       transform="translate(-21.405483,28.00401)">
      <path
         d="m 60.634483,197.40497 c 0.3475,0 0.5975,-0.195 0.5975,-0.495 v -0.005 c 0,-0.2675 -0.18,-0.4075 -0.57,-0.495 -0.3875,-0.08 -0.475,-0.175 -0.475,-0.34 v -0.005 c 0,-0.16 0.1425,-0.2825 0.3725,-0.2825 0.1625,0 0.3025,0.045 0.4525,0.1525 0.0175,0.0125 0.035,0.0175 0.0575,0.0175 0.0525,0 0.095,-0.0425 0.095,-0.095 0,-0.0375 -0.0225,-0.0625 -0.0425,-0.08 -0.16,-0.1175 -0.3275,-0.1725 -0.5575,-0.1725 -0.3325,0 -0.575,0.205 -0.575,0.4775 v 0.005 c 0,0.2875 0.185,0.4175 0.5875,0.505 0.3675,0.08 0.455,0.17 0.455,0.3325 v 0.005 c 0,0.1725 -0.1525,0.2975 -0.39,0.2975 -0.2225,0 -0.385,-0.0675 -0.5525,-0.2075 -0.015,-0.015 -0.035,-0.0225 -0.06,-0.0225 -0.0525,0 -0.095,0.04 -0.095,0.0975 0,0.0325 0.0125,0.0575 0.0375,0.075 0.1975,0.1575 0.405,0.235 0.6625,0.235 z"
         id="path35626-7" />
      <path
         d="m 61.615961,197.27997 c 0,0.0575 0.045,0.1 0.0975,0.1 h 1.0075 c 0.05,0 0.09,-0.04 0.09,-0.09 0,-0.05 -0.04,-0.0925 -0.09,-0.0925 h -0.9075 v -1.48 c 0,-0.0575 -0.0425,-0.1 -0.1,-0.1 -0.0525,0 -0.0975,0.0425 -0.0975,0.1 z"
         id="path35628-5" />
      <path
         d="m 63.857437,197.40997 c 0.5325,0 0.895,-0.4225 0.895,-0.905 v -0.005 c 0,-0.4825 -0.3575,-0.9 -0.89,-0.9 -0.5325,0 -0.895,0.4225 -0.895,0.905 v 0.005 c 0,0.4825 0.3575,0.9 0.89,0.9 z m 0.005,-0.1825 c -0.4,0 -0.69,-0.325 -0.69,-0.7225 v -0.005 c 0,-0.3975 0.285,-0.7175 0.685,-0.7175 0.4,0 0.69,0.325 0.69,0.7225 v 0.005 c 0,0.3975 -0.285,0.7175 -0.685,0.7175 z"
         id="path35630-9" />
      <path
         d="m 65.528912,197.31747 c 0.0175,0.0575 0.0525,0.085 0.1025,0.085 h 0.015 c 0.05,0 0.085,-0.035 0.1025,-0.085 l 0.4525,-1.345 0.455,1.345 c 0.0175,0.05 0.0525,0.085 0.1025,0.085 h 0.015 c 0.05,0 0.085,-0.035 0.1025,-0.085 l 0.56,-1.555 c 0.0075,-0.0175 0.0125,-0.03 0.0125,-0.0475 0,-0.05 -0.0475,-0.0975 -0.1,-0.0975 -0.0475,0 -0.0775,0.03 -0.095,0.0775 l -0.485,1.395 -0.4575,-1.395 c -0.0175,-0.0475 -0.0475,-0.0775 -0.0975,-0.0775 h -0.0125 c -0.0525,0 -0.08,0.03 -0.0975,0.0775 l -0.4575,1.395 -0.4825,-1.39 c -0.0175,-0.0475 -0.0525,-0.0825 -0.1025,-0.0825 -0.0575,0 -0.1025,0.0475 -0.1025,0.1 0,0.0175 0.0025,0.0275 0.01,0.045 z"
         id="path35632-2" />
    </g>
    <g
       aria-label="FAST"
       id="text11319-3"
       style="font-size:2.5px;line-height:1.25;font-family:'Gotham Rounded';-inkscape-font-specification:'Gotham Rounded';letter-spacing:-0.0185208px;fill:#f2f2f2;fill-opacity:1;stroke-width:0.264583"
       transform="translate(-3.283862,29.17703)">
      <path
         d="m 43.783862,213.11045 c 0,0.0575 0.045,0.1 0.0975,0.1 0.0575,0 0.1,-0.0425 0.1,-0.1 v -0.675 h 0.87 c 0.05,0 0.09,-0.04 0.09,-0.09 0,-0.05 -0.04,-0.09 -0.09,-0.09 h -0.87 v -0.625 h 0.9825 c 0.05,0 0.09,-0.0425 0.09,-0.0925 0,-0.05 -0.04,-0.09 -0.09,-0.09 h -1.0825 c -0.0525,0 -0.0975,0.0425 -0.0975,0.1 z"
         id="path20279-7"
         style="fill:#f2f2f2;fill-opacity:1" />
      <path
         d="m 45.095336,213.12045 c 0,0.05 0.04,0.09 0.09,0.09 0.045,0 0.0775,-0.0225 0.095,-0.0675 l 0.1825,-0.4075 h 0.96 l 0.1825,0.4025 c 0.0175,0.04 0.05,0.0725 0.0975,0.0725 0.0525,0 0.095,-0.0425 0.095,-0.095 0,-0.0125 -0.005,-0.03 -0.0125,-0.05 l -0.71,-1.55 c -0.0225,-0.0575 -0.065,-0.0875 -0.1225,-0.0875 h -0.01 c -0.0625,0 -0.0975,0.03 -0.125,0.0875 l -0.71,1.5525 c -0.0075,0.0175 -0.0125,0.035 -0.0125,0.0525 z m 0.445,-0.565 0.4025,-0.895 0.4025,0.895 z"
         id="path20281-4"
         style="fill:#f2f2f2;fill-opacity:1" />
      <path
         d="m 47.726809,213.22295 c 0.3475,0 0.5975,-0.195 0.5975,-0.495 v -0.005 c 0,-0.2675 -0.18,-0.4075 -0.57,-0.495 -0.3875,-0.08 -0.475,-0.175 -0.475,-0.34 v -0.005 c 0,-0.16 0.1425,-0.2825 0.3725,-0.2825 0.1625,0 0.3025,0.045 0.4525,0.1525 0.0175,0.0125 0.035,0.0175 0.0575,0.0175 0.0525,0 0.095,-0.0425 0.095,-0.095 0,-0.0375 -0.0225,-0.0625 -0.0425,-0.08 -0.16,-0.1175 -0.3275,-0.1725 -0.5575,-0.1725 -0.3325,0 -0.575,0.205 -0.575,0.4775 v 0.005 c 0,0.2875 0.185,0.4175 0.5875,0.505 0.3675,0.08 0.455,0.17 0.455,0.3325 v 0.005 c 0,0.1725 -0.1525,0.2975 -0.39,0.2975 -0.2225,0 -0.385,-0.0675 -0.5525,-0.2075 -0.015,-0.015 -0.035,-0.0225 -0.06,-0.0225 -0.0525,0 -0.095,0.04 -0.095,0.0975 0,0.0325 0.0125,0.0575 0.0375,0.075 0.1975,0.1575 0.405,0.235 0.6625,0.235 z"
         id="path20283-5"
         style="fill:#f2f2f2;fill-opacity:1" />
      <path
         d="m 49.133283,213.11045 c 0,0.0575 0.0425,0.1 0.1,0.1 0.0575,0 0.1,-0.0425 0.1,-0.1 v -1.48 h 0.5075 c 0.05,0 0.0925,-0.04 0.0925,-0.09 0,-0.05 -0.0425,-0.0925 -0.0925,-0.0925 h -1.215 c -0.05,0 -0.0925,0.0425 -0.0925,0.0925 0,0.05 0.0425,0.09 0.0925,0.09 h 0.5075 z"
         id="path20285-25"
         style="fill:#f2f2f2;fill-opacity:1" />
    </g>
    <g
       aria-label="SLOW"
       id="text23665-4"
       style="font-size:2.5px;line-height:1.25;font-family:'Gotham Rounded';-inkscape-font-specification:'Gotham Rounded';letter-spacing:-0.0185208px;fill:#f2f2f2;stroke-width:0.264583"
       transform="translate(-21.405483,55.00401)">
      <path
         d="m 60.634483,197.40497 c 0.3475,0 0.5975,-0.195 0.5975,-0.495 v -0.005 c 0,-0.2675 -0.18,-0.4075 -0.57,-0.495 -0.3875,-0.08 -0.475,-0.175 -0.475,-0.34 v -0.005 c 0,-0.16 0.1425,-0.2825 0.3725,-0.2825 0.1625,0 0.3025,0.045 0.4525,0.1525 0.0175,0.0125 0.035,0.0175 0.0575,0.0175 0.0525,0 0.095,-0.0425 0.095,-0.095 0,-0.0375 -0.0225,-0.0625 -0.0425,-0.08 -0.16,-0.1175 -0.3275,-0.1725 -0.5575,-0.1725 -0.3325,0 -0.575,0.205 -0.575,0.4775 v 0.005 c 0,0.2875 0.185,0.4175 0.5875,0.505 0.3675,0.08 0.455,0.17 0.455,0.3325 v 0.005 c 0,0.1725 -0.1525,0.2975 -0.39,0.2975 -0.2225,0 -0.385,-0.0675 -0.5525,-0.2075 -0.015,-0.015 -0.035,-0.0225 -0.06,-0.0225 -0.0525,0 -0.095,0.04 -0.095,0.0975 0,0.0325 0.0125,0.0575 0.0375,0.075 0.1975,0.1575 0.405,0.235 0.6625,0.235 z"
         id="path35626-74" />
      <path
         d="m 61.615961,197.27997 c 0,0.0575 0.045,0.1 0.0975,0.1 h 1.0075 c 0.05,0 0.09,-0.04 0.09,-0.09 0,-0.05 -0.04,-0.0925 -0.09,-0.0925 h -0.9075 v -1.48 c 0,-0.0575 -0.0425,-0.1 -0.1,-0.1 -0.0525,0 -0.0975,0.0425 -0.0975,0.1 z"
         id="path35628-4" />
      <path
         d="m 63.857437,197.40997 c 0.5325,0 0.895,-0.4225 0.895,-0.905 v -0.005 c 0,-0.4825 -0.3575,-0.9 -0.89,-0.9 -0.5325,0 -0.895,0.4225 -0.895,0.905 v 0.005 c 0,0.4825 0.3575,0.9 0.89,0.9 z m 0.005,-0.1825 c -0.4,0 -0.69,-0.325 -0.69,-0.7225 v -0.005 c 0,-0.3975 0.285,-0.7175 0.685,-0.7175 0.4,0 0.69,0.325 0.69,0.7225 v 0.005 c 0,0.3975 -0.285,0.7175 -0.685,0.7175 z"
         id="path35630-3" />
      <path
         d="m 65.528912,197.31747 c 0.0175,0.0575 0.0525,0.085 0.1025,0.085 h 0.015 c 0.05,0 0.085,-0.035 0.1025,-0.085 l 0.4525,-1.345 0.455,1.345 c 0.0175,0.05 0.0525,0.085 0.1025,0.085 h 0.015 c 0.05,0 0.085,-0.035 0.1025,-0.085 l 0.56,-1.555 c 0.0075,-0.0175 0.0125,-0.03 0.0125,-0.0475 0,-0.05 -0.0475,-0.0975 -0.1,-0.0975 -0.0475,0 -0.0775,0.03 -0.095,0.0775 l -0.485,1.395 -0.4575,-1.395 c -0.0175,-0.0475 -0.0475,-0.0775 -0.0975,-0.0775 h -0.0125 c -0.0525,0 -0.08,0.03 -0.0975,0.0775 l -0.4575,1.395 -0.4825,-1.39 c -0.0175,-0.0475 -0.0525,-0.0825 -0.1025,-0.0825 -0.0575,0 -0.1025,0.0475 -0.1025,0.1 0,0.0175 0.0025,0.0275 0.01,0.045 z"
         id="path35632-0" />
    </g>
    <g
       aria-label="ENABLE"
       id="text96990"
       style="font-size:2.5px;line-height:1.25;font-family:'Gotham Rounded';-inkscape-font-specification:'Gotham Rounded';letter-spacing:-0.0185208px;fill:#f2f2f2;stroke-width:0.264583"
       transform="translate(39.899999,2.5e-4)">
      <path
         d="m 28.797501,215.41373 c 0.05,0 0.09,-0.04 0.09,-0.09 0,-0.05 -0.04,-0.09 -0.09,-0.09 h -1 v -0.6125 h 0.875 c 0.05,0 0.09,-0.04 0.09,-0.09 0,-0.0475 -0.04,-0.09 -0.09,-0.09 h -0.875 v -0.5975 h 0.9875 c 0.05,0 0.09,-0.04 0.09,-0.09 0,-0.05 -0.04,-0.09 -0.09,-0.09 h -1.0875 c -0.0525,0 -0.0975,0.0425 -0.0975,0.1 v 1.55 c 0,0.0575 0.045,0.1 0.0975,0.1 z"
         id="path134028" />
      <path
         d="m 29.256476,215.32873 c 0,0.0525 0.0425,0.0975 0.095,0.0975 0.0575,0 0.0975,-0.045 0.0975,-0.0975 v -1.355 l 1.085,1.3875 c 0.03,0.0375 0.06,0.06 0.1025,0.06 h 0.01 c 0.0525,0 0.09,-0.04 0.09,-0.0925 v -1.58 c 0,-0.0525 -0.0425,-0.0975 -0.095,-0.0975 -0.0575,0 -0.0975,0.045 -0.0975,0.0975 v 1.32 l -1.0625,-1.355 c -0.0275,-0.0375 -0.0525,-0.0575 -0.1,-0.0575 h -0.0275 c -0.0525,0 -0.0975,0.045 -0.0975,0.0975 z"
         id="path134030" />
      <path
         d="m 31.092952,215.33623 c 0,0.05 0.04,0.09 0.09,0.09 0.045,0 0.0775,-0.0225 0.095,-0.0675 l 0.1825,-0.4075 h 0.96 l 0.1825,0.4025 c 0.0175,0.04 0.05,0.0725 0.0975,0.0725 0.0525,0 0.095,-0.0425 0.095,-0.095 0,-0.0125 -0.005,-0.03 -0.0125,-0.05 l -0.71,-1.55 c -0.0225,-0.0575 -0.065,-0.0875 -0.1225,-0.0875 h -0.01 c -0.0625,0 -0.0975,0.03 -0.125,0.0875 l -0.71,1.5525 c -0.0075,0.0175 -0.0125,0.035 -0.0125,0.0525 z m 0.445,-0.565 0.4025,-0.895 0.4025,0.895 z"
         id="path134032" />
      <path
         d="m 33.154428,215.31373 c 0,0.0575 0.045,0.1 0.0975,0.1 h 0.68 c 0.3825,0 0.635,-0.1775 0.635,-0.4775 v -0.005 c 0,-0.2375 -0.1675,-0.3625 -0.375,-0.4225 0.1375,-0.06 0.2775,-0.1775 0.2775,-0.405 v -0.005 c 0,-0.1075 -0.0375,-0.2025 -0.1125,-0.28 -0.1,-0.0975 -0.2575,-0.155 -0.4575,-0.155 h -0.6475 c -0.0525,0 -0.0975,0.0425 -0.0975,0.1 z m 0.195,-0.87 v -0.6025 h 0.5325 c 0.25,0 0.3875,0.1125 0.3875,0.285 v 0.005 c 0,0.2075 -0.1625,0.3125 -0.4025,0.3125 z m 0,0.7925 v -0.6175 h 0.5525 c 0.3075,0 0.465,0.11 0.465,0.3 v 0.005 c 0,0.1975 -0.1625,0.3125 -0.43,0.3125 z"
         id="path134034" />
      <path
         d="m 34.940902,215.31373 c 0,0.0575 0.045,0.1 0.0975,0.1 h 1.0075 c 0.05,0 0.09,-0.04 0.09,-0.09 0,-0.05 -0.04,-0.0925 -0.09,-0.0925 h -0.9075 v -1.48 c 0,-0.0575 -0.0425,-0.1 -0.1,-0.1 -0.0525,0 -0.0975,0.0425 -0.0975,0.1 z"
         id="path134036" />
      <path
         d="m 37.667381,215.41373 c 0.05,0 0.09,-0.04 0.09,-0.09 0,-0.05 -0.04,-0.09 -0.09,-0.09 h -1 v -0.6125 h 0.875 c 0.05,0 0.09,-0.04 0.09,-0.09 0,-0.0475 -0.04,-0.09 -0.09,-0.09 h -0.875 v -0.5975 h 0.9875 c 0.05,0 0.09,-0.04 0.09,-0.09 0,-0.05 -0.04,-0.09 -0.09,-0.09 h -1.0875 c -0.0525,0 -0.0975,0.0425 -0.0975,0.1 v 1.55 c 0,0.0575 0.045,0.1 0.0975,0.1 z"
         id="path134038" />
    </g>
    <g
       aria-label="MID"
       id="text121499"
       style="font-weight:500;font-size:3.25001px;line-height:1.25;font-family:'Gotham Rounded';-inkscape-font-specification:'Gotham Rounded Medium';letter-spacing:-0.0185208px;fill:#f2f2f2;stroke-width:0.264583"
       transform="translate(2.0000001)">
      <path
         d="m 2.4999999,215.41248 c 0,0.11375 0.08125,0.195 0.1950006,0.195 0.1137504,0 0.1982506,-0.0813 0.1982506,-0.195 v -1.36175 l 0.5525017,0.82875 c 0.04225,0.065 0.091,0.104 0.1657506,0.104 0.07475,0 0.1267503,-0.039 0.1690005,-0.104 l 0.5557517,-0.83525 v 1.365 c 0,0.10725 0.091,0.19825 0.1982506,0.19825 0.1137503,0 0.2015006,-0.0845 0.2015006,-0.19825 v -1.9045 c 0,-0.11375 -0.08775,-0.2015 -0.2015006,-0.2015 h -0.04225 c -0.078,0 -0.1397505,0.0357 -0.1820006,0.104 l -0.6922521,1.08225 -0.6890021,-1.079 c -0.039,-0.0618 -0.0975,-0.10725 -0.1852506,-0.10725 h -0.04225 c -0.1137503,0 -0.2015006,0.0877 -0.2015006,0.2015 z"
         id="path133816" />
      <path
         d="m 5.3252316,215.40923 c 0,0.11375 0.08775,0.19825 0.2015007,0.19825 0.1137503,0 0.1982506,-0.0845 0.1982506,-0.19825 v -1.911 c 0,-0.11375 -0.0845,-0.19825 -0.1982506,-0.19825 -0.1137504,0 -0.2015007,0.0845 -0.2015007,0.19825 z"
         id="path133818" />
      <path
         d="m 6.3142123,215.38973 c 0,0.11375 0.08775,0.2015 0.2015006,0.2015 h 0.646752 c 0.7150022,0 1.2090037,-0.49725 1.2090037,-1.1375 v -0.007 c 0,-0.64025 -0.4940015,-1.131 -1.2090037,-1.131 h -0.646752 c -0.1137504,0 -0.2015006,0.0877 -0.2015006,0.2015 z m 0.3997512,-0.1625 v -1.547 h 0.4485014 c 0.4777514,0 0.7897524,0.32825 0.7897524,0.7735 v 0.006 c 0,0.44525 -0.312001,0.767 -0.7897524,0.767 z"
         id="path133820" />
    </g>
    <g
       aria-label="BASS"
       id="text126057"
       style="font-weight:500;font-size:3.25001px;line-height:1.25;font-family:'Gotham Rounded';-inkscape-font-specification:'Gotham Rounded Medium';letter-spacing:-0.0185208px;fill:#f2f2f2;stroke-width:0.264583"
       transform="translate(2.0000001,-2.5e-4)">
      <path
         d="m 2.4999999,242.39024 c 0,0.11375 0.08775,0.2015 0.2015006,0.2015 h 0.8515027 c 0.5070015,0 0.8417526,-0.21775 0.8417526,-0.62401 v -0.006 c 0,-0.312 -0.1820006,-0.45825 -0.4517514,-0.5525 0.1690005,-0.0877 0.325001,-0.23075 0.325001,-0.507 v -0.006 c 0,-0.1495 -0.052,-0.27625 -0.1527505,-0.377 -0.1332504,-0.13325 -0.331501,-0.2015 -0.5947518,-0.2015 H 2.7015005 c -0.1137503,0 -0.2015006,0.0877 -0.2015006,0.2015 z m 0.3932512,-1.11476 v -0.6045 h 0.5752518 c 0.2600008,0 0.3997512,0.10725 0.3997512,0.28925 v 0.007 c 0,0.208 -0.1690005,0.30875 -0.4290013,0.30875 z m 0,0.962 v -0.624 h 0.633752 c 0.315251,0 0.4680014,0.1105 0.4680014,0.3055 v 0.006 c 0,0.208 -0.1657505,0.312 -0.4387513,0.312 z"
         id="path133841" />
      <path
         d="m 4.67198,242.42274 c 0,0.104 0.08125,0.18525 0.1852505,0.18525 0.08775,0 0.1495005,-0.0422 0.1852506,-0.12675 l 0.1917506,-0.43876 h 1.1050034 l 0.1852506,0.42576 c 0.03575,0.0877 0.1007503,0.13975 0.1950006,0.13975 0.1072503,0 0.1885006,-0.0845 0.1885006,-0.19175 0,-0.0292 -0.0065,-0.0553 -0.02275,-0.0845 l -0.8450026,-1.88501 c -0.04875,-0.10075 -0.1235004,-0.1625 -0.2372507,-0.1625 h -0.0195 c -0.1137504,0 -0.1917506,0.0617 -0.2405008,0.1625 L 4.69798,242.33174 c -0.01625,0.0358 -0.026,0.065 -0.026,0.091 z m 0.7150022,-0.73451 0.3997512,-0.91975 0.3997512,0.91975 z"
         id="path133843" />
      <path
         d="m 8.0919615,242.62424 c 0.4777515,0 0.8125025,-0.25025 0.8125025,-0.67926 v -0.006 c 0,-0.38025 -0.2502508,-0.54275 -0.7280022,-0.66625 -0.4387514,-0.104 -0.5427517,-0.182 -0.5427517,-0.3575 v -0.006 c 0,-0.15275 0.1365004,-0.26975 0.3705011,-0.26975 0.1820006,0 0.3445011,0.0585 0.5232517,0.17225 0.0325,0.0195 0.06825,0.0292 0.1040003,0.0292 0.1040003,0 0.1885006,-0.0812 0.1885006,-0.18525 0,-0.078 -0.039,-0.13325 -0.08775,-0.15925 -0.2080007,-0.13975 -0.4355014,-0.21125 -0.7215022,-0.21125 -0.4517514,0 -0.7767524,0.26975 -0.7767524,0.65975 v 0.006 c 0,0.416 0.2730008,0.5655 0.7572523,0.67925 0.4225013,0.0943 0.5135016,0.1885 0.5135016,0.34775 v 0.006 c 0,0.169 -0.1560005,0.286 -0.4030013,0.286 -0.2470007,0 -0.4452513,-0.0813 -0.6370019,-0.234 -0.026,-0.0228 -0.06175,-0.0358 -0.1170004,-0.0358 -0.1040003,0 -0.1885006,0.0813 -0.1885006,0.18525 0,0.065 0.02925,0.117 0.078,0.15276 0.2567508,0.19175 0.5395016,0.286 0.8547526,0.286 z"
         id="path133845" />
      <path
         d="m 10.120944,242.62424 c 0.477752,0 0.812503,-0.25025 0.812503,-0.67926 v -0.006 c 0,-0.38025 -0.250251,-0.54275 -0.728003,-0.66625 -0.4387509,-0.104 -0.5427513,-0.182 -0.5427513,-0.3575 v -0.006 c 0,-0.15275 0.1365005,-0.26975 0.3705013,-0.26975 0.182,0 0.344501,0.0585 0.523251,0.17225 0.0325,0.0195 0.06825,0.0292 0.104001,0.0292 0.104,0 0.1885,-0.0812 0.1885,-0.18525 0,-0.078 -0.039,-0.13325 -0.08775,-0.15925 -0.208001,-0.13975 -0.435501,-0.21125 -0.721502,-0.21125 -0.4517515,0 -0.7767525,0.26975 -0.7767525,0.65975 v 0.006 c 0,0.416 0.2730009,0.5655 0.7572525,0.67925 0.422501,0.0943 0.513501,0.1885 0.513501,0.34775 v 0.006 c 0,0.169 -0.156,0.286 -0.403001,0.286 -0.2470006,0 -0.4452512,-0.0813 -0.6370018,-0.234 -0.026,-0.0228 -0.06175,-0.0358 -0.1170003,-0.0358 -0.1040004,0 -0.1885006,0.0813 -0.1885006,0.18525 0,0.065 0.02925,0.117 0.078,0.15276 0.2567508,0.19175 0.5395017,0.286 0.8547527,0.286 z"
         id="path133847" />
    </g>
    <g
       aria-label="DISTANCE"
       id="text8588"
       style="font-size:2.5px;line-height:1.25;font-family:'Gotham Rounded';-inkscape-font-specification:'Gotham Rounded';letter-spacing:-0.0185208px;fill:#f2f2f2;fill-opacity:1;stroke-width:0.264583"
       transform="translate(16.916738,-42.29014)">
      <path
         d="m 53.706,287.36997 c 0,0.0575 0.045,0.1 0.0975,0.1 h 0.51 c 0.55,0 0.93,-0.3825 0.93,-0.875 v -0.005 c 0,-0.4925 -0.38,-0.87 -0.93,-0.87 h -0.51 c -0.0525,0 -0.0975,0.0425 -0.0975,0.1 z m 0.1975,-0.0825 v -1.385 h 0.41 c 0.4425,0 0.725,0.305 0.725,0.6925 v 0.005 c 0,0.39 -0.2825,0.6875 -0.725,0.6875 z"
         id="path28212"
         style="fill:#f2f2f2;fill-opacity:1" />
      <path
         d="m 55.659978,287.38247 c 0,0.0575 0.045,0.1 0.0975,0.1 0.0575,0 0.1,-0.0425 0.1,-0.1 v -1.575 c 0,-0.0575 -0.0425,-0.1 -0.1,-0.1 -0.0525,0 -0.0975,0.0425 -0.0975,0.1 z"
         id="path28214"
         style="fill:#f2f2f2;fill-opacity:1" />
      <path
         d="m 56.951453,287.49497 c 0.3475,0 0.5975,-0.195 0.5975,-0.495 v -0.005 c 0,-0.2675 -0.18,-0.4075 -0.57,-0.495 -0.3875,-0.08 -0.475,-0.175 -0.475,-0.34 v -0.005 c 0,-0.16 0.1425,-0.2825 0.3725,-0.2825 0.1625,0 0.3025,0.045 0.4525,0.1525 0.0175,0.0125 0.035,0.0175 0.0575,0.0175 0.0525,0 0.095,-0.0425 0.095,-0.095 0,-0.0375 -0.0225,-0.0625 -0.0425,-0.08 -0.16,-0.1175 -0.3275,-0.1725 -0.5575,-0.1725 -0.3325,0 -0.575,0.205 -0.575,0.4775 v 0.005 c 0,0.2875 0.185,0.4175 0.5875,0.505 0.3675,0.08 0.455,0.17 0.455,0.3325 v 0.005 c 0,0.1725 -0.1525,0.2975 -0.39,0.2975 -0.2225,0 -0.385,-0.0675 -0.5525,-0.2075 -0.015,-0.015 -0.035,-0.0225 -0.06,-0.0225 -0.0525,0 -0.095,0.04 -0.095,0.0975 0,0.0325 0.0125,0.0575 0.0375,0.075 0.1975,0.1575 0.405,0.235 0.6625,0.235 z"
         id="path28216"
         style="fill:#f2f2f2;fill-opacity:1" />
      <path
         d="m 58.357928,287.38247 c 0,0.0575 0.0425,0.1 0.1,0.1 0.0575,0 0.1,-0.0425 0.1,-0.1 v -1.48 h 0.5075 c 0.05,0 0.0925,-0.04 0.0925,-0.09 0,-0.05 -0.0425,-0.0925 -0.0925,-0.0925 h -1.215 c -0.05,0 -0.0925,0.0425 -0.0925,0.0925 0,0.05 0.0425,0.09 0.0925,0.09 h 0.5075 z"
         id="path28218"
         style="fill:#f2f2f2;fill-opacity:1" />
    </g>
    <g
       aria-label="ANGLE"
       id="text15810"
       style="font-size:2.5px;line-height:1.25;font-family:'Gotham Rounded';-inkscape-font-specification:'Gotham Rounded';letter-spacing:-0.0185208px;fill:#f2f2f2;fill-opacity:1;stroke-width:0.264583"
       transform="translate(-4.999997,-28.29014)">
      <path
         d="m 73.611997,287.39247 c 0,0.05 0.04,0.09 0.09,0.09 0.045,0 0.0775,-0.0225 0.095,-0.0675 l 0.1825,-0.4075 h 0.96 l 0.1825,0.4025 c 0.0175,0.04 0.05,0.0725 0.0975,0.0725 0.0525,0 0.095,-0.0425 0.095,-0.095 0,-0.0125 -0.005,-0.03 -0.0125,-0.05 l -0.71,-1.55 c -0.0225,-0.0575 -0.065,-0.0875 -0.1225,-0.0875 h -0.01 c -0.0625,0 -0.0975,0.03 -0.125,0.0875 l -0.71,1.5525 c -0.0075,0.0175 -0.0125,0.035 -0.0125,0.0525 z m 0.445,-0.565 0.4025,-0.895 0.4025,0.895 z"
         id="path28247"
         style="fill:#f2f2f2;fill-opacity:1" />
      <path
         d="m 75.673472,287.38497 c 0,0.0525 0.0425,0.0975 0.095,0.0975 0.0575,0 0.0975,-0.045 0.0975,-0.0975 v -1.355 l 1.085,1.3875 c 0.03,0.0375 0.06,0.06 0.1025,0.06 h 0.01 c 0.0525,0 0.09,-0.04 0.09,-0.0925 v -1.58 c 0,-0.0525 -0.0425,-0.0975 -0.095,-0.0975 -0.0575,0 -0.0975,0.045 -0.0975,0.0975 v 1.32 l -1.0625,-1.355 c -0.0275,-0.0375 -0.0525,-0.0575 -0.1,-0.0575 h -0.0275 c -0.0525,0 -0.0975,0.045 -0.0975,0.0975 z"
         id="path28249"
         style="fill:#f2f2f2;fill-opacity:1" />
      <path
         d="m 78.442449,287.49997 c 0.26,0 0.475,-0.095 0.635,-0.2125 0.045,-0.03 0.0675,-0.07 0.0675,-0.12 v -0.5325 c 0,-0.0575 -0.045,-0.1 -0.0975,-0.1 h -0.5625 c -0.0475,0 -0.0875,0.04 -0.0875,0.09 0,0.0475 0.04,0.0875 0.0875,0.0875 h 0.47 v 0.435 c -0.12,0.0975 -0.305,0.175 -0.505,0.175 -0.425,0 -0.6925,-0.31 -0.6925,-0.7275 v -0.005 c 0,-0.39 0.2775,-0.7175 0.665,-0.7175 0.22,0 0.3575,0.0625 0.485,0.16 0.0225,0.0175 0.0425,0.025 0.0625,0.025 0.0525,0 0.0975,-0.0425 0.0975,-0.1 0,-0.0375 -0.0175,-0.0625 -0.04,-0.08 -0.16,-0.1175 -0.33,-0.1875 -0.5975,-0.1875 -0.525,0 -0.8775,0.425 -0.8775,0.905 v 0.005 c 0,0.5 0.34,0.9 0.89,0.9 z"
         id="path28251"
         style="fill:#f2f2f2;fill-opacity:1" />
      <path
         d="m 79.571425,287.36997 c 0,0.0575 0.045,0.1 0.0975,0.1 h 1.0075 c 0.05,0 0.09,-0.04 0.09,-0.09 0,-0.05 -0.04,-0.0925 -0.09,-0.0925 h -0.9075 v -1.48 c 0,-0.0575 -0.0425,-0.1 -0.1,-0.1 -0.0525,0 -0.0975,0.0425 -0.0975,0.1 z"
         id="path28253"
         style="fill:#f2f2f2;fill-opacity:1" />
      <path
         d="m 82.297902,287.46997 c 0.05,0 0.09,-0.04 0.09,-0.09 0,-0.05 -0.04,-0.09 -0.09,-0.09 h -1 v -0.6125 h 0.875 c 0.05,0 0.09,-0.04 0.09,-0.09 0,-0.0475 -0.04,-0.09 -0.09,-0.09 h -0.875 v -0.5975 h 0.9875 c 0.05,0 0.09,-0.04 0.09,-0.09 0,-0.05 -0.04,-0.09 -0.09,-0.09 h -1.0875 c -0.0525,0 -0.0975,0.0425 -0.0975,0.1 v 1.55 c 0,0.0575 0.045,0.1 0.0975,0.1 z"
         id="path28255"
         style="fill:#f2f2f2;fill-opacity:1" />
    </g>
    <g
       aria-label="Rotary"
       id="text41773"
       style="font-weight:500;font-size:4px;line-height:1.25;font-family:'Gotham Rounded';-inkscape-font-specification:'Gotham Rounded Medium';letter-spacing:-0.0185208px;fill:#e6e6e6;fill-opacity:1;stroke-width:0.264583"
       transform="translate(-10.16)">
      <path
         d="m 44.368308,175.92599 c 0,0.14 0.108,0.244 0.248,0.244 0.14,0 0.244,-0.104 0.244,-0.244 v -0.752 h 0.62 l 0.68,0.868 c 0.06,0.076 0.128,0.128 0.24,0.128 0.124,0 0.236,-0.088 0.236,-0.228 0,-0.076 -0.032,-0.128 -0.08,-0.188 l -0.536,-0.676 c 0.376,-0.12 0.636,-0.384 0.636,-0.836 v -0.008 c 0,-0.244 -0.084,-0.448 -0.232,-0.604 -0.18,-0.176 -0.456,-0.28 -0.808,-0.28 h -1 c -0.14,0 -0.248,0.108 -0.248,0.248 z m 0.492,-1.188 v -0.94 h 0.716 c 0.368,0 0.58,0.16 0.58,0.464 v 0.008 c 0,0.288 -0.224,0.468 -0.576,0.468 z"
         id="path47245"
         style="fill:#e6e6e6;fill-opacity:1" />
      <path
         d="m 48.149785,176.19799 c 0.652,0 1.132,-0.504 1.132,-1.1 v -0.008 c 0,-0.604 -0.472,-1.096 -1.124,-1.096 -0.648,0 -1.128,0.5 -1.128,1.104 v 0.008 c 0,0.6 0.476,1.092 1.12,1.092 z m 0.008,-0.424 c -0.372,0 -0.644,-0.308 -0.644,-0.676 v -0.008 c 0,-0.368 0.248,-0.672 0.636,-0.672 0.38,0 0.648,0.308 0.648,0.68 v 0.008 c 0,0.364 -0.244,0.668 -0.64,0.668 z"
         id="path47247"
         style="fill:#e6e6e6;fill-opacity:1" />
      <path
         d="m 50.463262,176.18599 c 0.128,0 0.224,-0.02 0.332,-0.056 0.068,-0.028 0.128,-0.096 0.128,-0.188 0,-0.112 -0.096,-0.2 -0.204,-0.2 -0.016,0 -0.06,0.012 -0.12,0.012 -0.164,0 -0.26,-0.076 -0.26,-0.264 v -1.036 h 0.38 c 0.116,0 0.212,-0.092 0.212,-0.208 0,-0.116 -0.096,-0.208 -0.212,-0.208 h -0.38 v -0.36 c 0,-0.132 -0.108,-0.24 -0.24,-0.24 -0.14,0 -0.244,0.108 -0.244,0.24 v 0.36 h -0.08 c -0.116,0 -0.208,0.092 -0.208,0.208 0,0.116 0.092,0.208 0.208,0.208 h 0.08 v 1.112 c 0,0.464 0.252,0.62 0.608,0.62 z"
         id="path47249"
         style="fill:#e6e6e6;fill-opacity:1" />
      <path
         d="m 51.988739,176.19399 c 0.324,0 0.544,-0.136 0.688,-0.308 v 0.08 c 0,0.108 0.096,0.204 0.236,0.204 0.132,0 0.236,-0.1 0.236,-0.232 v -1.04 c 0,-0.276 -0.072,-0.496 -0.228,-0.652 -0.152,-0.156 -0.384,-0.236 -0.7,-0.236 -0.276,0 -0.476,0.048 -0.68,0.124 -0.076,0.028 -0.132,0.1 -0.132,0.192 0,0.112 0.092,0.2 0.204,0.2 0.02,0 0.048,-0.004 0.076,-0.012 0.132,-0.052 0.28,-0.084 0.468,-0.084 0.34,0 0.524,0.156 0.524,0.46 v 0.052 c -0.164,-0.052 -0.328,-0.088 -0.568,-0.088 -0.516,0 -0.872,0.22 -0.872,0.68 v 0.008 c 0,0.428 0.352,0.652 0.748,0.652 z m 0.136,-0.352 c -0.236,0 -0.412,-0.116 -0.412,-0.32 v -0.008 c 0,-0.224 0.18,-0.352 0.496,-0.352 0.192,0 0.356,0.036 0.48,0.084 v 0.144 c 0,0.272 -0.244,0.452 -0.564,0.452 z"
         id="path47251"
         style="fill:#e6e6e6;fill-opacity:1" />
      <path
         d="m 53.710218,175.92999 c 0,0.14 0.108,0.24 0.24,0.24 0.14,0 0.244,-0.108 0.244,-0.24 v -0.624 c 0,-0.5 0.232,-0.764 0.58,-0.824 0.108,-0.02 0.192,-0.104 0.192,-0.232 0,-0.14 -0.084,-0.24 -0.24,-0.24 -0.212,0 -0.42,0.196 -0.532,0.464 v -0.216 c 0,-0.14 -0.104,-0.244 -0.244,-0.244 -0.14,0 -0.24,0.104 -0.24,0.244 z"
         id="path47253"
         style="fill:#e6e6e6;fill-opacity:1" />
      <path
         d="m 55.72769,176.80199 c 0.34,0 0.532,-0.16 0.712,-0.592 l 0.772,-1.852 c 0.012,-0.028 0.02,-0.072 0.02,-0.116 0,-0.128 -0.104,-0.228 -0.232,-0.228 -0.124,0 -0.188,0.084 -0.232,0.184 l -0.528,1.404 -0.568,-1.404 c -0.044,-0.112 -0.112,-0.184 -0.236,-0.184 -0.14,0 -0.24,0.096 -0.24,0.236 0,0.036 0.008,0.072 0.028,0.116 l 0.784,1.752 -0.016,0.044 c -0.08,0.164 -0.156,0.224 -0.3,0.224 -0.068,0 -0.108,-0.012 -0.168,-0.028 -0.028,-0.012 -0.044,-0.016 -0.088,-0.016 -0.108,0 -0.196,0.076 -0.196,0.2 0,0.116 0.076,0.172 0.152,0.2 0.1,0.044 0.196,0.06 0.336,0.06 z"
         id="path47255"
         style="fill:#e6e6e6;fill-opacity:1" />
    </g>
    <g
       aria-label="RAMP"
       id="text11174"
       style="font-size:2.5px;line-height:1.25;font-family:'Gotham Rounded';-inkscape-font-specification:'Gotham Rounded';letter-spacing:-0.0185208px;fill:#f2f2f2;stroke-width:0.264583"
       transform="translate(-17.970999)">
      <path
         d="m 35.699999,198.29423 c 0,0.0575 0.045,0.1 0.0975,0.1 0.0575,0 0.1,-0.0425 0.1,-0.1 v -0.5925 h 0.5025 l 0.4925,0.64 c 0.0225,0.03 0.0525,0.0525 0.0925,0.0525 0.05,0 0.1,-0.045 0.1,-0.0975 0,-0.0225 -0.01,-0.0475 -0.0325,-0.0725 l -0.435,-0.56 c 0.2725,-0.0525 0.4675,-0.22 0.4675,-0.5075 v -0.005 c 0,-0.14 -0.0475,-0.2575 -0.135,-0.345 -0.11,-0.11 -0.28,-0.175 -0.4975,-0.175 h -0.655 c -0.0525,0 -0.0975,0.0425 -0.0975,0.1 z m 0.1975,-0.77 v -0.71 h 0.54 c 0.2825,0 0.4475,0.1275 0.4475,0.345 v 0.005 c 0,0.225 -0.19,0.36 -0.45,0.36 z"
         id="path2605" />
      <path
         d="m 37.368977,198.30423 c 0,0.05 0.04,0.09 0.09,0.09 0.045,0 0.0775,-0.0225 0.095,-0.0675 l 0.1825,-0.4075 h 0.96 l 0.1825,0.4025 c 0.0175,0.04 0.05,0.0725 0.0975,0.0725 0.0525,0 0.095,-0.0425 0.095,-0.095 0,-0.0125 -0.005,-0.03 -0.0125,-0.05 l -0.71,-1.55 c -0.0225,-0.0575 -0.065,-0.0875 -0.1225,-0.0875 h -0.01 c -0.0625,0 -0.0975,0.03 -0.125,0.0875 l -0.71,1.5525 c -0.0075,0.0175 -0.0125,0.035 -0.0125,0.0525 z m 0.445,-0.565 0.4025,-0.895 0.4025,0.895 z"
         id="path2607" />
      <path
         d="m 39.430453,198.29673 c 0,0.0575 0.0425,0.0975 0.095,0.0975 0.0575,0 0.0975,-0.04 0.0975,-0.0975 v -1.305 l 0.5575,0.82 c 0.0225,0.0325 0.0525,0.05 0.085,0.05 0.0325,0 0.06,-0.0175 0.0825,-0.05 l 0.56,-0.8225 v 1.305 c 0,0.0525 0.0425,0.1 0.1,0.1 0.0525,0 0.0975,-0.0425 0.0975,-0.1 v -1.5725 c 0,-0.0525 -0.045,-0.0975 -0.0975,-0.0975 h -0.0225 c -0.04,0 -0.07,0.0175 -0.0925,0.0525 l -0.625,0.94 -0.625,-0.94 c -0.02,-0.03 -0.05,-0.0525 -0.0925,-0.0525 h -0.0225 c -0.0525,0 -0.0975,0.045 -0.0975,0.0975 z"
         id="path2609" />
      <path
         d="m 41.581927,198.29423 c 0,0.0575 0.045,0.1 0.0975,0.1 0.0575,0 0.1,-0.0425 0.1,-0.1 v -0.53 h 0.425 c 0.3725,0 0.6875,-0.195 0.6875,-0.5725 v -0.005 c 0,-0.345 -0.26,-0.555 -0.655,-0.555 h -0.5575 c -0.0525,0 -0.0975,0.0425 -0.0975,0.1 z m 0.1975,-0.71 v -0.77 h 0.4425 c 0.2825,0 0.47,0.13 0.47,0.38 v 0.005 c 0,0.23 -0.19,0.385 -0.48,0.385 z"
         id="path2611" />
    </g>
    <g
       aria-label="RAMP"
       id="text11174-3"
       style="font-size:2.5px;line-height:1.25;font-family:'Gotham Rounded';-inkscape-font-specification:'Gotham Rounded';letter-spacing:-0.0185208px;fill:#f2f2f2;stroke-width:0.264583"
       transform="translate(-18.500167)">
      <path
         d="m 36.229167,225.29423 c 0,0.0575 0.045,0.1 0.0975,0.1 0.0575,0 0.1,-0.0425 0.1,-0.1 v -0.5925 h 0.5025 l 0.4925,0.64 c 0.0225,0.03 0.0525,0.0525 0.0925,0.0525 0.05,0 0.1,-0.045 0.1,-0.0975 0,-0.0225 -0.01,-0.0475 -0.0325,-0.0725 l -0.435,-0.56 c 0.2725,-0.0525 0.4675,-0.22 0.4675,-0.5075 v -0.005 c 0,-0.14 -0.0475,-0.2575 -0.135,-0.345 -0.11,-0.11 -0.28,-0.175 -0.4975,-0.175 h -0.655 c -0.0525,0 -0.0975,0.0425 -0.0975,0.1 z m 0.1975,-0.77 v -0.71 h 0.54 c 0.2825,0 0.4475,0.1275 0.4475,0.345 v 0.005 c 0,0.225 -0.19,0.36 -0.45,0.36 z"
         id="path17388" />
      <path
         d="m 37.898145,225.30423 c 0,0.05 0.04,0.09 0.09,0.09 0.045,0 0.0775,-0.0225 0.095,-0.0675 l 0.1825,-0.4075 h 0.96 l 0.1825,0.4025 c 0.0175,0.04 0.05,0.0725 0.0975,0.0725 0.0525,0 0.095,-0.0425 0.095,-0.095 0,-0.0125 -0.005,-0.03 -0.0125,-0.05 l -0.71,-1.55 c -0.0225,-0.0575 -0.065,-0.0875 -0.1225,-0.0875 h -0.01 c -0.0625,0 -0.0975,0.03 -0.125,0.0875 l -0.71,1.5525 c -0.0075,0.0175 -0.0125,0.035 -0.0125,0.0525 z m 0.445,-0.565 0.4025,-0.895 0.4025,0.895 z"
         id="path17390" />
      <path
         d="m 39.95962,225.29673 c 0,0.0575 0.0425,0.0975 0.095,0.0975 0.0575,0 0.0975,-0.04 0.0975,-0.0975 v -1.305 l 0.5575,0.82 c 0.0225,0.0325 0.0525,0.05 0.085,0.05 0.0325,0 0.06,-0.0175 0.0825,-0.05 l 0.56,-0.8225 v 1.305 c 0,0.0525 0.0425,0.1 0.1,0.1 0.0525,0 0.0975,-0.0425 0.0975,-0.1 v -1.5725 c 0,-0.0525 -0.045,-0.0975 -0.0975,-0.0975 h -0.0225 c -0.04,0 -0.07,0.0175 -0.0925,0.0525 l -0.625,0.94 -0.625,-0.94 c -0.02,-0.03 -0.05,-0.0525 -0.0925,-0.0525 h -0.0225 c -0.0525,0 -0.0975,0.045 -0.0975,0.0975 z"
         id="path17392" />
      <path
         d="m 42.111095,225.29423 c 0,0.0575 0.045,0.1 0.0975,0.1 0.0575,0 0.1,-0.0425 0.1,-0.1 v -0.53 h 0.425 c 0.3725,0 0.6875,-0.195 0.6875,-0.5725 v -0.005 c 0,-0.345 -0.26,-0.555 -0.655,-0.555 h -0.5575 c -0.0525,0 -0.0975,0.0425 -0.0975,0.1 z m 0.1975,-0.71 v -0.77 h 0.4425 c 0.2825,0 0.47,0.13 0.47,0.38 v 0.005 c 0,0.23 -0.19,0.385 -0.48,0.385 z"
         id="path17394" />
    </g>
    <g
       aria-label="RAMP"
       id="text11174-3-7"
       style="font-size:2.5px;line-height:1.25;font-family:'Gotham Rounded';-inkscape-font-specification:'Gotham Rounded';letter-spacing:-0.0185208px;fill:#d3d3db;fill-opacity:1;stroke-width:0.264583"
       transform="translate(-17.970999)">
      <path
         d="m 35.699999,252.29423 c 0,0.0575 0.045,0.1 0.0975,0.1 0.0575,0 0.1,-0.0425 0.1,-0.1 v -0.5925 h 0.5025 l 0.4925,0.64 c 0.0225,0.03 0.0525,0.0525 0.0925,0.0525 0.05,0 0.1,-0.045 0.1,-0.0975 0,-0.0225 -0.01,-0.0475 -0.0325,-0.0725 l -0.435,-0.56 c 0.2725,-0.0525 0.4675,-0.22 0.4675,-0.5075 v -0.005 c 0,-0.14 -0.0475,-0.2575 -0.135,-0.345 -0.11,-0.11 -0.28,-0.175 -0.4975,-0.175 h -0.655 c -0.0525,0 -0.0975,0.0425 -0.0975,0.1 z m 0.1975,-0.77 v -0.71 h 0.54 c 0.2825,0 0.4475,0.1275 0.4475,0.345 v 0.005 c 0,0.225 -0.19,0.36 -0.45,0.36 z"
         id="path2632"
         style="fill:#d3d3db;fill-opacity:1" />
      <path
         d="m 37.368977,252.30423 c 0,0.05 0.04,0.09 0.09,0.09 0.045,0 0.0775,-0.0225 0.095,-0.0675 l 0.1825,-0.4075 h 0.96 l 0.1825,0.4025 c 0.0175,0.04 0.05,0.0725 0.0975,0.0725 0.0525,0 0.095,-0.0425 0.095,-0.095 0,-0.0125 -0.005,-0.03 -0.0125,-0.05 l -0.71,-1.55 c -0.0225,-0.0575 -0.065,-0.0875 -0.1225,-0.0875 h -0.01 c -0.0625,0 -0.0975,0.03 -0.125,0.0875 l -0.71,1.5525 c -0.0075,0.0175 -0.0125,0.035 -0.0125,0.0525 z m 0.445,-0.565 0.4025,-0.895 0.4025,0.895 z"
         id="path2634"
         style="fill:#d3d3db;fill-opacity:1" />
      <path
         d="m 39.430453,252.29673 c 0,0.0575 0.0425,0.0975 0.095,0.0975 0.0575,0 0.0975,-0.04 0.0975,-0.0975 v -1.305 l 0.5575,0.82 c 0.0225,0.0325 0.0525,0.05 0.085,0.05 0.0325,0 0.06,-0.0175 0.0825,-0.05 l 0.56,-0.8225 v 1.305 c 0,0.0525 0.0425,0.1 0.1,0.1 0.0525,0 0.0975,-0.0425 0.0975,-0.1 v -1.5725 c 0,-0.0525 -0.045,-0.0975 -0.0975,-0.0975 h -0.0225 c -0.04,0 -0.07,0.0175 -0.0925,0.0525 l -0.625,0.94 -0.625,-0.94 c -0.02,-0.03 -0.05,-0.0525 -0.0925,-0.0525 h -0.0225 c -0.0525,0 -0.0975,0.045 -0.0975,0.0975 z"
         id="path2636"
         style="fill:#d3d3db;fill-opacity:1" />
      <path
         d="m 41.581927,252.29423 c 0,0.0575 0.045,0.1 0.0975,0.1 0.0575,0 0.1,-0.0425 0.1,-0.1 v -0.53 h 0.425 c 0.3725,0 0.6875,-0.195 0.6875,-0.5725 v -0.005 c 0,-0.345 -0.26,-0.555 -0.655,-0.555 h -0.5575 c -0.0525,0 -0.0975,0.0425 -0.0975,0.1 z m 0.1975,-0.71 v -0.77 h 0.4425 c 0.2825,0 0.47,0.13 0.47,0.38 v 0.005 c 0,0.23 -0.19,0.385 -0.48,0.385 z"
         id="path2638"
         style="fill:#d3d3db;fill-opacity:1" />
    </g>
    <g
       aria-label="MIC"
       id="text24670"
       style="font-weight:500;font-size:3.5px;line-height:1.25;font-family:'Gotham Rounded';-inkscape-font-specification:'Gotham Rounded Medium';letter-spacing:-0.0185208px;fill:#f2f2f2;stroke-width:0.264583"
       transform="translate(2.0000102,0.16235)">
      <path
         d="m 67.897031,231.09713 c 0,0.1225 0.0875,0.21 0.21,0.21 0.1225,0 0.2135,-0.0875 0.2135,-0.21 v -1.4665 l 0.595,0.8925 c 0.0455,0.07 0.098,0.112 0.1785,0.112 0.0805,0 0.1365,-0.042 0.182,-0.112 l 0.5985,-0.8995 v 1.47 c 0,0.1155 0.098,0.2135 0.2135,0.2135 0.1225,0 0.217,-0.091 0.217,-0.2135 v -2.051 c 0,-0.1225 -0.0945,-0.217 -0.217,-0.217 h -0.0455 c -0.084,0 -0.1505,0.0385 -0.196,0.112 l -0.7455,1.1655 -0.742,-1.162 c -0.042,-0.0665 -0.105,-0.1155 -0.1995,-0.1155 h -0.0455 c -0.1225,0 -0.217,0.0945 -0.217,0.217 z"
         id="path41679" />
      <path
         d="m 70.941004,231.09363 c 0,0.1225 0.0945,0.2135 0.217,0.2135 0.1225,0 0.2135,-0.091 0.2135,-0.2135 v -2.058 c 0,-0.1225 -0.091,-0.2135 -0.2135,-0.2135 -0.1225,0 -0.217,0.091 -0.217,0.2135 z"
         id="path41681" />
      <path
         d="m 73.144981,231.33163 c 0.3955,0 0.6545,-0.1225 0.889,-0.329 0.0385,-0.0385 0.07,-0.0875 0.07,-0.154 0,-0.1085 -0.0945,-0.1995 -0.203,-0.1995 -0.0525,0 -0.098,0.021 -0.1295,0.049 -0.1785,0.1505 -0.35,0.2345 -0.6125,0.2345 -0.469,0 -0.8085,-0.3885 -0.8085,-0.868 v -0.007 c 0,-0.476 0.343,-0.8645 0.8085,-0.8645 0.238,0 0.4165,0.084 0.5845,0.2205 0.028,0.0245 0.07,0.042 0.1295,0.042 0.1225,0 0.2135,-0.0875 0.2135,-0.21 0,-0.0805 -0.0385,-0.133 -0.084,-0.1715 -0.2135,-0.1645 -0.462,-0.2765 -0.84,-0.2765 -0.742,0 -1.2635,0.5705 -1.2635,1.267 v 0.007 c 0,0.7035 0.532,1.26 1.246,1.26 z"
         id="path41683" />
    </g>
    <rect
       style="opacity:0.584259;fill:#f2f2f2;fill-opacity:0.9;stroke:none;stroke-width:0;stroke-opacity:1"
       id="rect10119-3-6-7"
       height="8.1699991"
       x="29.980001"
       y="270.29999"
       width="0.19999932" />
    <rect
       style="opacity:0.584259;fill:#f2f2f2;fill-opacity:0.9;stroke:none;stroke-width:0;stroke-opacity:1"
       id="rect10119-3-6-7-3"
       height="8.1699991"
       x="18.980001"
       y="270.29999"
       width="0.19999932" />
    <g
       aria-label="FAST"
       id="text11319-7-2"
       style="font-size:2.5px;line-height:1.25;font-family:'Gotham Rounded';-inkscape-font-specification:'Gotham Rounded';letter-spacing:-0.0185208px;fill:#f2f2f2;fill-opacity:0.9;stroke:none;stroke-width:0.264583;stroke-opacity:1"
       transform="translate(-16.778862,55.827093)">
      <path
         d="m 43.783862,213.11045 c 0,0.0575 0.045,0.1 0.0975,0.1 0.0575,0 0.1,-0.0425 0.1,-0.1 v -0.675 h 0.87 c 0.05,0 0.09,-0.04 0.09,-0.09 0,-0.05 -0.04,-0.09 -0.09,-0.09 h -0.87 v -0.625 h 0.9825 c 0.05,0 0.09,-0.0425 0.09,-0.0925 0,-0.05 -0.04,-0.09 -0.09,-0.09 h -1.0825 c -0.0525,0 -0.0975,0.0425 -0.0975,0.1 z"
         id="path20279-9-2"
         style="fill:#f2f2f2;fill-opacity:0.9;stroke:none;stroke-opacity:1" />
      <path
         d="m 45.095336,213.12045 c 0,0.05 0.04,0.09 0.09,0.09 0.045,0 0.0775,-0.0225 0.095,-0.0675 l 0.1825,-0.4075 h 0.96 l 0.1825,0.4025 c 0.0175,0.04 0.05,0.0725 0.0975,0.0725 0.0525,0 0.095,-0.0425 0.095,-0.095 0,-0.0125 -0.005,-0.03 -0.0125,-0.05 l -0.71,-1.55 c -0.0225,-0.0575 -0.065,-0.0875 -0.1225,-0.0875 h -0.01 c -0.0625,0 -0.0975,0.03 -0.125,0.0875 l -0.71,1.5525 c -0.0075,0.0175 -0.0125,0.035 -0.0125,0.0525 z m 0.445,-0.565 0.4025,-0.895 0.4025,0.895 z"
         id="path20281-2-6"
         style="fill:#f2f2f2;fill-opacity:0.9;stroke:none;stroke-opacity:1" />
      <path
         d="m 47.726809,213.22295 c 0.3475,0 0.5975,-0.195 0.5975,-0.495 v -0.005 c 0,-0.2675 -0.18,-0.4075 -0.57,-0.495 -0.3875,-0.08 -0.475,-0.175 -0.475,-0.34 v -0.005 c 0,-0.16 0.1425,-0.2825 0.3725,-0.2825 0.1625,0 0.3025,0.045 0.4525,0.1525 0.0175,0.0125 0.035,0.0175 0.0575,0.0175 0.0525,0 0.095,-0.0425 0.095,-0.095 0,-0.0375 -0.0225,-0.0625 -0.0425,-0.08 -0.16,-0.1175 -0.3275,-0.1725 -0.5575,-0.1725 -0.3325,0 -0.575,0.205 -0.575,0.4775 v 0.005 c 0,0.2875 0.185,0.4175 0.5875,0.505 0.3675,0.08 0.455,0.17 0.455,0.3325 v 0.005 c 0,0.1725 -0.1525,0.2975 -0.39,0.2975 -0.2225,0 -0.385,-0.0675 -0.5525,-0.2075 -0.015,-0.015 -0.035,-0.0225 -0.06,-0.0225 -0.0525,0 -0.095,0.04 -0.095,0.0975 0,0.0325 0.0125,0.0575 0.0375,0.075 0.1975,0.1575 0.405,0.235 0.6625,0.235 z"
         id="path20283-0-1"
         style="fill:#f2f2f2;fill-opacity:0.9;stroke:none;stroke-opacity:1" />
      <path
         d="m 49.133283,213.11045 c 0,0.0575 0.0425,0.1 0.1,0.1 0.0575,0 0.1,-0.0425 0.1,-0.1 v -1.48 h 0.5075 c 0.05,0 0.0925,-0.04 0.0925,-0.09 0,-0.05 -0.0425,-0.0925 -0.0925,-0.0925 h -1.215 c -0.05,0 -0.0925,0.0425 -0.0925,0.0925 0,0.05 0.0425,0.09 0.0925,0.09 h 0.5075 z"
         id="path20285-2-0"
         style="fill:#f2f2f2;fill-opacity:0.9;stroke:none;stroke-opacity:1" />
    </g>
    <g
       aria-label="SLOW"
       id="text23665-4-8"
       style="font-size:2.5px;line-height:1.25;font-family:'Gotham Rounded';-inkscape-font-specification:'Gotham Rounded';letter-spacing:-0.0185208px;fill:#f2f2f2;fill-opacity:0.9;stroke:none;stroke-width:0.264583;stroke-opacity:1"
       transform="translate(-44.611696,71.65006)">
      <path
         d="m 60.634483,197.40497 c 0.3475,0 0.5975,-0.195 0.5975,-0.495 v -0.005 c 0,-0.2675 -0.18,-0.4075 -0.57,-0.495 -0.3875,-0.08 -0.475,-0.175 -0.475,-0.34 v -0.005 c 0,-0.16 0.1425,-0.2825 0.3725,-0.2825 0.1625,0 0.3025,0.045 0.4525,0.1525 0.0175,0.0125 0.035,0.0175 0.0575,0.0175 0.0525,0 0.095,-0.0425 0.095,-0.095 0,-0.0375 -0.0225,-0.0625 -0.0425,-0.08 -0.16,-0.1175 -0.3275,-0.1725 -0.5575,-0.1725 -0.3325,0 -0.575,0.205 -0.575,0.4775 v 0.005 c 0,0.2875 0.185,0.4175 0.5875,0.505 0.3675,0.08 0.455,0.17 0.455,0.3325 v 0.005 c 0,0.1725 -0.1525,0.2975 -0.39,0.2975 -0.2225,0 -0.385,-0.0675 -0.5525,-0.2075 -0.015,-0.015 -0.035,-0.0225 -0.06,-0.0225 -0.0525,0 -0.095,0.04 -0.095,0.0975 0,0.0325 0.0125,0.0575 0.0375,0.075 0.1975,0.1575 0.405,0.235 0.6625,0.235 z"
         id="path35626-74-7"
         style="fill:#f2f2f2;fill-opacity:0.9;stroke:none;stroke-opacity:1" />
      <path
         d="m 61.615961,197.27997 c 0,0.0575 0.045,0.1 0.0975,0.1 h 1.0075 c 0.05,0 0.09,-0.04 0.09,-0.09 0,-0.05 -0.04,-0.0925 -0.09,-0.0925 h -0.9075 v -1.48 c 0,-0.0575 -0.0425,-0.1 -0.1,-0.1 -0.0525,0 -0.0975,0.0425 -0.0975,0.1 z"
         id="path35628-4-1"
         style="fill:#f2f2f2;fill-opacity:0.9;stroke:none;stroke-opacity:1" />
      <path
         d="m 63.857437,197.40997 c 0.5325,0 0.895,-0.4225 0.895,-0.905 v -0.005 c 0,-0.4825 -0.3575,-0.9 -0.89,-0.9 -0.5325,0 -0.895,0.4225 -0.895,0.905 v 0.005 c 0,0.4825 0.3575,0.9 0.89,0.9 z m 0.005,-0.1825 c -0.4,0 -0.69,-0.325 -0.69,-0.7225 v -0.005 c 0,-0.3975 0.285,-0.7175 0.685,-0.7175 0.4,0 0.69,0.325 0.69,0.7225 v 0.005 c 0,0.3975 -0.285,0.7175 -0.685,0.7175 z"
         id="path35630-3-7"
         style="fill:#f2f2f2;fill-opacity:0.9;stroke:none;stroke-opacity:1" />
      <path
         d="m 65.528912,197.31747 c 0.0175,0.0575 0.0525,0.085 0.1025,0.085 h 0.015 c 0.05,0 0.085,-0.035 0.1025,-0.085 l 0.4525,-1.345 0.455,1.345 c 0.0175,0.05 0.0525,0.085 0.1025,0.085 h 0.015 c 0.05,0 0.085,-0.035 0.1025,-0.085 l 0.56,-1.555 c 0.0075,-0.0175 0.0125,-0.03 0.0125,-0.0475 0,-0.05 -0.0475,-0.0975 -0.1,-0.0975 -0.0475,0 -0.0775,0.03 -0.095,0.0775 l -0.485,1.395 -0.4575,-1.395 c -0.0175,-0.0475 -0.0475,-0.0775 -0.0975,-0.0775 h -0.0125 c -0.0525,0 -0.08,0.03 -0.0975,0.0775 l -0.4575,1.395 -0.4825,-1.39 c -0.0175,-0.0475 -0.0525,-0.0825 -0.1025,-0.0825 -0.0575,0 -0.1025,0.0475 -0.1025,0.1 0,0.0175 0.0025,0.0275 0.01,0.045 z"
         id="path35632-0-2"
         style="fill:#f2f2f2;fill-opacity:0.9;stroke:none;stroke-opacity:1" />
    </g>
    <rect
       style="opacity:0.584259;fill:#f2f2f2;fill-opacity:0.9;stroke:none;stroke-width:0;stroke-opacity:1"
       id="rect10119-3-6-7-6"
       height="4.999999"
       x="40.98"
       y="273.46997"
       width="0.19999975" />
    <g
       aria-label="SPEED"
       id="text155447"
       style="font-size:2.5px;line-height:1.25;font-family:'Gotham Rounded';-inkscape-font-specification:'Gotham Rounded';letter-spacing:-0.0185208px;fill:#f2f2f2;fill-opacity:0.9;stroke:none;stroke-width:0.264583;stroke-opacity:1"
       transform="translate(13.999703,-0.99995)">
      <path
         d="m 34.688297,273.21998 c 0.3475,0 0.5975,-0.195 0.5975,-0.495 v -0.005 c 0,-0.2675 -0.18,-0.4075 -0.57,-0.495 -0.3875,-0.08 -0.475,-0.175 -0.475,-0.34 v -0.005 c 0,-0.16 0.1425,-0.2825 0.3725,-0.2825 0.1625,0 0.3025,0.045 0.4525,0.1525 0.0175,0.0125 0.035,0.0175 0.0575,0.0175 0.0525,0 0.095,-0.0425 0.095,-0.095 0,-0.0375 -0.0225,-0.0625 -0.0425,-0.08 -0.16,-0.1175 -0.3275,-0.1725 -0.5575,-0.1725 -0.3325,0 -0.575,0.205 -0.575,0.4775 v 0.005 c 0,0.2875 0.185,0.4175 0.5875,0.505 0.3675,0.08 0.455,0.17 0.455,0.3325 v 0.005 c 0,0.1725 -0.1525,0.2975 -0.39,0.2975 -0.2225,0 -0.385,-0.0675 -0.5525,-0.2075 -0.015,-0.015 -0.035,-0.0225 -0.06,-0.0225 -0.0525,0 -0.095,0.04 -0.095,0.0975 0,0.0325 0.0125,0.0575 0.0375,0.075 0.1975,0.1575 0.405,0.235 0.6625,0.235 z"
         id="path165935"
         style="fill:#f2f2f2;fill-opacity:0.9;stroke:none;stroke-opacity:1" />
      <path
         d="m 35.669775,273.10748 c 0,0.0575 0.045,0.1 0.0975,0.1 0.0575,0 0.1,-0.0425 0.1,-0.1 v -0.53 h 0.425 c 0.3725,0 0.6875,-0.195 0.6875,-0.5725 v -0.005 c 0,-0.345 -0.26,-0.555 -0.655,-0.555 h -0.5575 c -0.0525,0 -0.0975,0.0425 -0.0975,0.1 z m 0.1975,-0.71 v -0.77 h 0.4425 c 0.2825,0 0.47,0.13 0.47,0.38 v 0.005 c 0,0.23 -0.19,0.385 -0.48,0.385 z"
         id="path165937"
         style="fill:#f2f2f2;fill-opacity:0.9;stroke:none;stroke-opacity:1" />
      <path
         d="m 38.518752,273.19498 c 0.05,0 0.09,-0.04 0.09,-0.09 0,-0.05 -0.04,-0.09 -0.09,-0.09 h -1 v -0.6125 h 0.875 c 0.05,0 0.09,-0.04 0.09,-0.09 0,-0.0475 -0.04,-0.09 -0.09,-0.09 h -0.875 v -0.5975 h 0.9875 c 0.05,0 0.09,-0.04 0.09,-0.09 0,-0.05 -0.04,-0.09 -0.09,-0.09 h -1.0875 c -0.0525,0 -0.0975,0.0425 -0.0975,0.1 v 1.55 c 0,0.0575 0.045,0.1 0.0975,0.1 z"
         id="path165939"
         style="fill:#f2f2f2;fill-opacity:0.9;stroke:none;stroke-opacity:1" />
      <path
         d="m 40.175227,273.19498 c 0.05,0 0.09,-0.04 0.09,-0.09 0,-0.05 -0.04,-0.09 -0.09,-0.09 h -1 v -0.6125 h 0.875 c 0.05,0 0.09,-0.04 0.09,-0.09 0,-0.0475 -0.04,-0.09 -0.09,-0.09 h -0.875 v -0.5975 h 0.9875 c 0.05,0 0.09,-0.04 0.09,-0.09 0,-0.05 -0.04,-0.09 -0.09,-0.09 h -1.0875 c -0.0525,0 -0.0975,0.0425 -0.0975,0.1 v 1.55 c 0,0.0575 0.045,0.1 0.0975,0.1 z"
         id="path165941"
         style="fill:#f2f2f2;fill-opacity:0.9;stroke:none;stroke-opacity:1" />
      <path
         d="m 40.634202,273.09498 c 0,0.0575 0.045,0.1 0.0975,0.1 h 0.51 c 0.55,0 0.93,-0.3825 0.93,-0.875 v -0.005 c 0,-0.4925 -0.38,-0.87 -0.93,-0.87 h -0.51 c -0.0525,0 -0.0975,0.0425 -0.0975,0.1 z m 0.1975,-0.0825 v -1.385 h 0.41 c 0.4425,0 0.725,0.305 0.725,0.6925 v 0.005 c 0,0.39 -0.2825,0.6875 -0.725,0.6875 z"
         id="path165943"
         style="fill:#f2f2f2;fill-opacity:0.9;stroke:none;stroke-opacity:1" />
    </g>
    <g
       aria-label="VARI"
       id="text168364"
       style="font-size:2.5px;line-height:1.25;font-family:'Gotham Rounded';-inkscape-font-specification:'Gotham Rounded';letter-spacing:-0.0185208px;fill:#f2f2f2;fill-opacity:0.9;stroke:none;stroke-width:0.264583;stroke-opacity:1"
       transform="translate(13.999714,-0.99995)">
      <path
         d="m 35.935286,270.03993 c 0.0575,0 0.0925,-0.0325 0.115,-0.0825 l 0.6775,-1.565 c 0.005,-0.0125 0.0075,-0.025 0.0075,-0.04 0,-0.05 -0.04,-0.095 -0.0975,-0.095 -0.0475,0 -0.08,0.0325 -0.0975,0.07 l -0.6075,1.455 -0.605,-1.45 c -0.0175,-0.0425 -0.0525,-0.075 -0.1025,-0.075 -0.0575,0 -0.1,0.0475 -0.1,0.0975 0,0.0175 0.0025,0.0325 0.01,0.045 l 0.675,1.5575 c 0.02,0.05 0.0575,0.0825 0.115,0.0825 z"
         id="path177608"
         style="fill:#f2f2f2;fill-opacity:0.9;stroke:none;stroke-opacity:1" />
      <path
         d="m 36.739262,269.94243 c 0,0.05 0.04,0.09 0.09,0.09 0.045,0 0.0775,-0.0225 0.095,-0.0675 l 0.1825,-0.4075 h 0.96 l 0.1825,0.4025 c 0.0175,0.04 0.05,0.0725 0.0975,0.0725 0.0525,0 0.095,-0.0425 0.095,-0.095 0,-0.0125 -0.005,-0.03 -0.0125,-0.05 l -0.71,-1.55 c -0.0225,-0.0575 -0.065,-0.0875 -0.1225,-0.0875 h -0.01 c -0.0625,0 -0.0975,0.03 -0.125,0.0875 l -0.71,1.5525 c -0.0075,0.0175 -0.0125,0.035 -0.0125,0.0525 z m 0.445,-0.565 0.4025,-0.895 0.4025,0.895 z"
         id="path177610"
         style="fill:#f2f2f2;fill-opacity:0.9;stroke:none;stroke-opacity:1" />
      <path
         d="m 38.800737,269.93243 c 0,0.0575 0.045,0.1 0.0975,0.1 0.0575,0 0.1,-0.0425 0.1,-0.1 v -0.5925 h 0.5025 l 0.4925,0.64 c 0.0225,0.03 0.0525,0.0525 0.0925,0.0525 0.05,0 0.1,-0.045 0.1,-0.0975 0,-0.0225 -0.01,-0.0475 -0.0325,-0.0725 l -0.435,-0.56 c 0.2725,-0.0525 0.4675,-0.22 0.4675,-0.5075 v -0.005 c 0,-0.14 -0.0475,-0.2575 -0.135,-0.345 -0.11,-0.11 -0.28,-0.175 -0.4975,-0.175 h -0.655 c -0.0525,0 -0.0975,0.0425 -0.0975,0.1 z m 0.1975,-0.77 v -0.71 h 0.54 c 0.2825,0 0.4475,0.1275 0.4475,0.345 v 0.005 c 0,0.225 -0.19,0.36 -0.45,0.36 z"
         id="path177612"
         style="fill:#f2f2f2;fill-opacity:0.9;stroke:none;stroke-opacity:1" />
      <path
         d="m 40.607215,269.93243 c 0,0.0575 0.045,0.1 0.0975,0.1 0.0575,0 0.1,-0.0425 0.1,-0.1 v -1.575 c 0,-0.0575 -0.0425,-0.1 -0.1,-0.1 -0.0525,0 -0.0975,0.0425 -0.0975,0.1 z"
         id="path177614"
         style="fill:#f2f2f2;fill-opacity:0.9;stroke:none;stroke-opacity:1" />
    </g>
    <g
       aria-label="WHEEL"
       id="text5920"
       style="font-size:2.5px;line-height:1.25;font-family:'Gotham Rounded';-inkscape-font-specification:'Gotham Rounded';letter-spacing:-0.0185208px;fill:#f2f2f2;fill-opacity:0.9;stroke:none;stroke-width:0.264583;stroke-opacity:1"
       transform="translate(-10.000001,-0.99995)">
      <path
         d="m 47.131001,269.94998 c 0.0175,0.0575 0.0525,0.085 0.1025,0.085 h 0.015 c 0.05,0 0.085,-0.035 0.1025,-0.085 l 0.4525,-1.345 0.455,1.345 c 0.0175,0.05 0.0525,0.085 0.1025,0.085 h 0.015 c 0.05,0 0.085,-0.035 0.1025,-0.085 l 0.56,-1.555 c 0.0075,-0.0175 0.0125,-0.03 0.0125,-0.0475 0,-0.05 -0.0475,-0.0975 -0.1,-0.0975 -0.0475,0 -0.0775,0.03 -0.095,0.0775 l -0.485,1.395 -0.4575,-1.395 c -0.0175,-0.0475 -0.0475,-0.0775 -0.0975,-0.0775 h -0.0125 c -0.0525,0 -0.08,0.03 -0.0975,0.0775 l -0.4575,1.395 -0.4825,-1.39 c -0.0175,-0.0475 -0.0525,-0.0825 -0.1025,-0.0825 -0.0575,0 -0.1025,0.0475 -0.1025,0.1 0,0.0175 0.0025,0.0275 0.01,0.045 z"
         id="path47276"
         style="fill:#f2f2f2;fill-opacity:0.9;stroke:none;stroke-opacity:1" />
      <path
         d="m 49.40998,269.92498 c 0,0.0575 0.045,0.1 0.0975,0.1 0.0575,0 0.1,-0.0425 0.1,-0.1 v -0.7 h 1.01 v 0.7 c 0,0.0575 0.0425,0.1 0.1,0.1 0.0525,0 0.0975,-0.0425 0.0975,-0.1 v -1.575 c 0,-0.0575 -0.045,-0.1 -0.0975,-0.1 -0.0575,0 -0.1,0.0425 -0.1,0.1 v 0.69 h -1.01 v -0.69 c 0,-0.0575 -0.0425,-0.1 -0.1,-0.1 -0.0525,0 -0.0975,0.0425 -0.0975,0.1 z"
         id="path47278"
         style="fill:#f2f2f2;fill-opacity:0.9;stroke:none;stroke-opacity:1" />
      <path
         d="m 52.488955,270.01248 c 0.05,0 0.09,-0.04 0.09,-0.09 0,-0.05 -0.04,-0.09 -0.09,-0.09 h -1 v -0.6125 h 0.875 c 0.05,0 0.09,-0.04 0.09,-0.09 0,-0.0475 -0.04,-0.09 -0.09,-0.09 h -0.875 v -0.5975 h 0.9875 c 0.05,0 0.09,-0.04 0.09,-0.09 0,-0.05 -0.04,-0.09 -0.09,-0.09 h -1.0875 c -0.0525,0 -0.0975,0.0425 -0.0975,0.1 v 1.55 c 0,0.0575 0.045,0.1 0.0975,0.1 z"
         id="path47280"
         style="fill:#f2f2f2;fill-opacity:0.9;stroke:none;stroke-opacity:1" />
      <path
         d="m 54.145429,270.01248 c 0.05,0 0.09,-0.04 0.09,-0.09 0,-0.05 -0.04,-0.09 -0.09,-0.09 h -1 v -0.6125 h 0.875 c 0.05,0 0.09,-0.04 0.09,-0.09 0,-0.0475 -0.04,-0.09 -0.09,-0.09 h -0.875 v -0.5975 h 0.9875 c 0.05,0 0.09,-0.04 0.09,-0.09 0,-0.05 -0.04,-0.09 -0.09,-0.09 h -1.0875 c -0.0525,0 -0.0975,0.0425 -0.0975,0.1 v 1.55 c 0,0.0575 0.045,0.1 0.0975,0.1 z"
         id="path47282"
         style="fill:#f2f2f2;fill-opacity:0.9;stroke:none;stroke-opacity:1" />
      <path
         d="m 54.604404,269.91248 c 0,0.0575 0.045,0.1 0.0975,0.1 h 1.0075 c 0.05,0 0.09,-0.04 0.09,-0.09 0,-0.05 -0.04,-0.0925 -0.09,-0.0925 h -0.9075 v -1.48 c 0,-0.0575 -0.0425,-0.1 -0.1,-0.1 -0.0525,0 -0.0975,0.0425 -0.0975,0.1 z"
         id="path47284"
         style="fill:#f2f2f2;fill-opacity:0.9;stroke:none;stroke-opacity:1" />
    </g>
    <rect
       style="opacity:0.584259;fill:#f2f2f2;fill-opacity:0.9;stroke:none;stroke-width:0;stroke-opacity:1"
       id="rect10119-3-6-7-6-3"
       height="4.999999"
       x="51.98"
       y="273.46997"
       width="0.19999975" />
    <g
       aria-label="0-S-F"
       id="text22995"
       style="font-size:2.5px;line-height:1.25;font-family:'Gotham Rounded';-inkscape-font-specification:'Gotham Rounded';letter-spacing:-0.0185208px;fill:#f2f2f2;fill-opacity:0.9;stroke:none;stroke-width:0.264583;stroke-opacity:1"
       transform="translate(1)">
      <path
         d="m 37.459547,272.22998 c 0.45,0 0.74,-0.415 0.74,-0.905 v -0.005 c 0,-0.49 -0.285,-0.9 -0.735,-0.9 -0.45,0 -0.7425,0.415 -0.7425,0.905 v 0.005 c 0,0.49 0.285,0.9 0.7375,0.9 z m 0.005,-0.18 c -0.33,0 -0.5375,-0.345 -0.5375,-0.725 v -0.005 c 0,-0.385 0.205,-0.72 0.5325,-0.72 0.3275,0 0.535,0.345 0.535,0.725 v 0.005 c 0,0.3825 -0.2,0.72 -0.53,0.72 z"
         id="path49909"
         style="fill:#f2f2f2;fill-opacity:0.9;stroke:none;stroke-opacity:1" />
      <path
         d="m 39.106022,271.54998 c 0.0575,0 0.1,-0.045 0.1,-0.1025 0,-0.0525 -0.0425,-0.1 -0.1,-0.1 h -0.52 c -0.0575,0 -0.1,0.0475 -0.1,0.1 0,0.0575 0.0425,0.1025 0.1,0.1025 z"
         id="path49911"
         style="fill:#f2f2f2;fill-opacity:0.9;stroke:none;stroke-opacity:1" />
      <path
         d="m 40.184999,272.22498 c 0.3475,0 0.5975,-0.195 0.5975,-0.495 v -0.005 c 0,-0.2675 -0.18,-0.4075 -0.57,-0.495 -0.3875,-0.08 -0.475,-0.175 -0.475,-0.34 v -0.005 c 0,-0.16 0.1425,-0.2825 0.3725,-0.2825 0.1625,0 0.3025,0.045 0.4525,0.1525 0.0175,0.0125 0.035,0.0175 0.0575,0.0175 0.0525,0 0.095,-0.0425 0.095,-0.095 0,-0.0375 -0.0225,-0.0625 -0.0425,-0.08 -0.16,-0.1175 -0.3275,-0.1725 -0.5575,-0.1725 -0.3325,0 -0.575,0.205 -0.575,0.4775 v 0.005 c 0,0.2875 0.185,0.4175 0.5875,0.505 0.3675,0.08 0.455,0.17 0.455,0.3325 v 0.005 c 0,0.1725 -0.1525,0.2975 -0.39,0.2975 -0.2225,0 -0.385,-0.0675 -0.5525,-0.2075 -0.015,-0.015 -0.035,-0.0225 -0.06,-0.0225 -0.0525,0 -0.095,0.04 -0.095,0.0975 0,0.0325 0.0125,0.0575 0.0375,0.075 0.1975,0.1575 0.405,0.235 0.6625,0.235 z"
         id="path49913"
         style="fill:#f2f2f2;fill-opacity:0.9;stroke:none;stroke-opacity:1" />
      <path
         d="m 41.688976,271.54998 c 0.0575,0 0.1,-0.045 0.1,-0.1025 0,-0.0525 -0.0425,-0.1 -0.1,-0.1 h -0.52 c -0.0575,0 -0.1,0.0475 -0.1,0.1 0,0.0575 0.0425,0.1025 0.1,0.1025 z"
         id="path49915"
         style="fill:#f2f2f2;fill-opacity:0.9;stroke:none;stroke-opacity:1" />
      <path
         d="m 42.167953,272.11248 c 0,0.0575 0.045,0.1 0.0975,0.1 0.0575,0 0.1,-0.0425 0.1,-0.1 v -0.675 h 0.87 c 0.05,0 0.09,-0.04 0.09,-0.09 0,-0.05 -0.04,-0.09 -0.09,-0.09 h -0.87 v -0.625 h 0.9825 c 0.05,0 0.09,-0.0425 0.09,-0.0925 0,-0.05 -0.04,-0.09 -0.09,-0.09 h -1.0825 c -0.0525,0 -0.0975,0.0425 -0.0975,0.1 z"
         id="path49917"
         style="fill:#f2f2f2;fill-opacity:0.9;stroke:none;stroke-opacity:1" />
    </g>
  </g>
  <g
     inkscape:groupmode="layer"
     id="layer2"
     inkscape:label="components" />
</svg>
